<?xml version="1.0" standalone="no"?>
<!DOCTYPE svg PUBLIC "-//W3C//DTD SVG 1.1//EN" "http://www.w3.org/Graphics/SVG/1.1/DTD/svg11.dtd" >
<svg xmlns="http://www.w3.org/2000/svg" xmlns:xlink="http://www.w3.org/1999/xlink" version="1.1">
<metadata>
Created by FontForge 20201107 at Thu Sep  7 13:19:48 2023
 By 
Copyright 2023 The Gabarito Project Authors (https://github.com/naipefoundry/gabarito)
</metadata>
<defs>
<font id="Gabarito-Regular" horiz-adv-x="0" >
  <font-face 
    font-family="Gabarito"
    font-weight="400"
    font-stretch="normal"
    units-per-em="1000"
    panose-1="0 0 0 0 0 0 0 0 0 0"
    ascent="800"
    descent="-200"
    x-height="488"
    cap-height="681"
    bbox="-159 -292 1526 960"
    underline-thickness="80"
    underline-position="-235"
    unicode-range="U+0020-1F10C"
  />
<missing-glyph horiz-adv-x="834" 
d="M64 -60v607l215 215h491v-822h-706zM314 133q20 20 45.5 31.5t57.5 11.5q33 0 58 -11.5t46 -31.5l16 18q-20 22 -49.5 36t-70.5 14q-40 0 -69.5 -14t-49.5 -36zM376 273q8 0 13.5 6t5.5 14t-5.5 13.5t-13.5 5.5t-14 -5.5t-6 -13.5t6 -14t14 -6zM459 273q8 0 14 6t6 14
t-6 13.5t-14 5.5q-7 0 -13 -5.5t-6 -13.5t6 -14t13 -6zM124 0h586v702h-405l-181 -182v-520zM174 50v398h202v204h284v-602h-486zM174 498l152 154v-154h-152z" />
    <glyph glyph-name=".notdef" horiz-adv-x="834" 
d="M64 -60v607l215 215h491v-822h-706zM314 133q20 20 45.5 31.5t57.5 11.5q33 0 58 -11.5t46 -31.5l16 18q-20 22 -49.5 36t-70.5 14q-40 0 -69.5 -14t-49.5 -36zM376 273q8 0 13.5 6t5.5 14t-5.5 13.5t-13.5 5.5t-14 -5.5t-6 -13.5t6 -14t14 -6zM459 273q8 0 14 6t6 14
t-6 13.5t-14 5.5q-7 0 -13 -5.5t-6 -13.5t6 -14t13 -6zM124 0h586v702h-405l-181 -182v-520zM174 50v398h202v204h284v-602h-486zM174 498l152 154v-154h-152z" />
    <glyph glyph-name=".null" 
 />
    <glyph glyph-name="nonmarkingreturn" horiz-adv-x="333" 
 />
    <glyph glyph-name="space" unicode=" " horiz-adv-x="260" 
 />
    <glyph glyph-name="exclam" unicode="!" horiz-adv-x="291" 
d="M81 709h128l-10 -336l-12 -156h-84l-12 155zM145 -6q-32 0 -54.5 22.5t-22.5 54.5t22.5 55t54.5 23t55 -23t23 -55t-23 -54.5t-55 -22.5z" />
    <glyph glyph-name="quotedbl" unicode="&#x22;" horiz-adv-x="300" 
d="M58 398l-28 149v134h96v-283h-68zM206 398l-28 149v134h96v-283h-68z" />
    <glyph glyph-name="numbersign" unicode="#" horiz-adv-x="655" 
d="M233 690h86l-129 -700h-86zM617 507v-76h-529v76h529zM567 250v-76h-529v76h529zM448 690h86l-129 -700h-86z" />
    <glyph glyph-name="dollar" unicode="$" horiz-adv-x="526" 
d="M218 607v150h80v-150h-80zM488 186q0 -54 -29 -98.5t-80 -71t-118 -26.5t-125 30.5t-98 115.5l83 47q32 -52 69 -74.5t81 -22.5q53 0 85 27.5t32 65.5q0 22 -10 44t-40 41t-90 31q-71 15 -112.5 41t-59 60.5t-17.5 72.5q0 53 25 95t70.5 66.5t108.5 24.5q71 0 123.5 -28
t89.5 -86l-84 -54q-34 44 -66 57.5t-67 13.5q-50 0 -76 -24t-26 -58q0 -21 11.5 -41t41.5 -36.5t86 -30.5q100 -24 146 -67.5t46 -114.5zM218 -113v150h80v-150h-80z" />
    <glyph glyph-name="percent" unicode="%" horiz-adv-x="720" 
d="M119 -10l-63 48l545 626l63 -48zM179 363q-41 0 -76 20t-56 54t-21 76q0 43 21 77t56 54t76 20q42 0 77 -20.5t55.5 -54.5t20.5 -76t-21 -76t-56 -54t-76 -20zM179 442q29 0 49 20t20 51q0 32 -20 52.5t-49 20.5q-30 0 -49 -20.5t-19 -52.5q0 -31 19 -51t49 -20zM541 -10
q-41 0 -76 20t-56 54t-21 76q0 43 21 77t56 54t76 20q42 0 77 -20t55.5 -54.5t20.5 -76.5t-21 -76t-56 -54t-76 -20zM541 69q29 0 49 20t20 51q0 32 -20 52.5t-49 20.5q-30 0 -49 -20.5t-19 -52.5q0 -31 19 -51t49 -20z" />
    <glyph glyph-name="ampersand" unicode="&#x26;" horiz-adv-x="645" 
d="M624 322h-329q-61 0 -95 -31.5t-34 -85.5q0 -53 33.5 -84.5t94.5 -31.5q68 0 99 40.5t31 122.5v90h100v-100q0 -78 -22 -127t-57 -76.5t-74 -38t-72 -10.5q-75 0 -127.5 29t-80 78t-27.5 108q0 54 31.5 98.5t88 71t129.5 26.5l-19 -55q-88 0 -140.5 48.5t-52.5 125.5
q0 46 22 89t65 71.5t105 28.5q27 0 57.5 -5.5t62 -22.5t59.5 -50l-67 -61q-22 22 -48 31t-53 9q-50 0 -75.5 -28t-25.5 -63q0 -44 32.5 -73.5t98.5 -29.5h290v-94z" />
    <glyph glyph-name="quotesingle" unicode="'" horiz-adv-x="152" 
d="M58 398l-28 149v134h96v-283h-68z" />
    <glyph glyph-name="parenleft" unicode="(" horiz-adv-x="351" 
d="M168 322q0 -131 46 -231.5t128 -183.5l-71 -63q-58 54 -104 124t-72.5 158t-26.5 196t26.5 196t72.5 158.5t104 123.5l71 -63q-82 -83 -128 -183.5t-46 -231.5z" />
    <glyph glyph-name="parenright" unicode=")" horiz-adv-x="351" 
d="M182 322q0 131 -46 231.5t-128 183.5l71 63q58 -53 104 -123.5t72.5 -158.5t26.5 -196t-26.5 -196t-72.5 -158t-104 -124l-71 63q82 83 128 183.5t46 231.5z" />
    <glyph glyph-name="asterisk" unicode="*" horiz-adv-x="455" 
d="M171 374l-73 43l81 111l-136 -15v85l137 -15l-82 111l73 42l56 -126l55 126l74 -42l-82 -111l138 15v-85l-138 15l82 -111l-74 -43l-55 127z" />
    <glyph glyph-name="plus" unicode="+" horiz-adv-x="670" 
d="M284 100v480h90v-480h-90zM100 290v90h471v-90h-471z" />
    <glyph glyph-name="comma" unicode="," horiz-adv-x="271" 
d="M216 62q0 -53 -34.5 -110.5t-103.5 -104.5l-31 29q32 30 49.5 69t17.5 63q0 47 -21 72t-46 38q11 17 22.5 26.5t26.5 14t33 4.5q23 0 43 -12.5t32 -35t12 -53.5z" />
    <glyph glyph-name="hyphen" unicode="-" horiz-adv-x="368" 
d="M334 242h-300v94h300v-94z" />
    <glyph glyph-name="period" unicode="." horiz-adv-x="269" 
d="M134 -5q-21 0 -39 11t-29 29t-11 39q0 22 11 39.5t29 28.5t39 11q22 0 40 -11t29 -28.5t11 -39.5q0 -21 -11 -39t-29 -29t-40 -11z" />
    <glyph glyph-name="slash" unicode="/" horiz-adv-x="455" 
d="M83 -70l-79 37l368 755l79 -37z" />
    <glyph glyph-name="zero" unicode="0" horiz-adv-x="540" 
d="M270 -10q-71 0 -123.5 42t-80.5 120.5t-28 187.5q0 108 28 186.5t80.5 121t123.5 42.5q72 0 124 -42.5t80 -121t28 -186.5q0 -109 -28 -187.5t-80 -120.5t-124 -42zM270 86q46 0 74.5 33.5t42.5 91.5t14 129q0 64 -14 122t-42.5 95t-74.5 37q-47 0 -76.5 -37t-42.5 -95
t-13 -122q0 -71 13 -129t42.5 -91.5t76.5 -33.5z" />
    <glyph glyph-name="one" unicode="1" horiz-adv-x="347" 
d="M162 576l37 -15q-7 -19 -26 -37t-52 -30t-83 -12v96q43 0 74 12.5t51.5 36t30.5 54.5h68v-681h-100v576z" />
    <glyph glyph-name="two" unicode="2" horiz-adv-x="496" 
d="M445 506q0 -40 -12.5 -79.5t-37.5 -80t-63 -84.5l-192 -227l-3 59h321v-94h-407v82l186 217q41 48 65 81.5t34 61t10 55.5q0 47 -28.5 72t-64.5 25q-37 0 -72 -21t-73 -77l-74 52q30 49 62.5 80.5t70.5 46.5t83 15q60 0 104 -24t67.5 -65.5t23.5 -94.5z" />
    <glyph glyph-name="three" unicode="3" horiz-adv-x="497" 
d="M250 -10q-73 0 -124.5 25t-95.5 77l64 66q35 -37 69.5 -54.5t76.5 -17.5q63 0 94.5 31.5t31.5 79.5t-22.5 74.5t-59.5 37.5t-81 11q-12 0 -25.5 -0.5t-22.5 -1.5v88q17 -1 23.5 -1h17.5q68 0 105.5 27t37.5 74q0 41 -26 64.5t-73 23.5q-40 0 -71.5 -16.5t-62.5 -52.5
l-64 61q50 57 97.5 80.5t110.5 23.5q57 0 99.5 -22t65.5 -62t23 -94q0 -82 -60.5 -131.5t-161.5 -49.5v61q70 0 127 -22t90.5 -66t33.5 -111q0 -54 -25.5 -100.5t-74 -74.5t-117.5 -28z" />
    <glyph glyph-name="four" unicode="4" horiz-adv-x="552" 
d="M430 429v-429h-102v228l-21 35l67 166h56zM38 169v62l184 450h102l-186 -467l-22 51h410v-96h-488z" />
    <glyph glyph-name="five" unicode="5" horiz-adv-x="519" 
d="M136 280l-70 18v383h377v-96h-321l39 32v-301l-53 38q29 45 70 68t102 23q56 0 103.5 -28t76.5 -79t29 -120q0 -75 -31 -126t-81.5 -76.5t-110.5 -25.5q-80 0 -134.5 30t-88.5 81l73 57q27 -37 63.5 -54t72.5 -17q65 0 100 36t35 95q0 57 -37.5 91t-90.5 34
q-35 0 -66 -14t-57 -49z" />
    <glyph glyph-name="six" unicode="6" horiz-adv-x="536" 
d="M30 321q0 114 34 197t96.5 127.5t147.5 44.5q52 0 97.5 -16.5t85.5 -48.5l-54 -75q-28 23 -61 34.5t-67 11.5q-48 0 -88 -30.5t-63.5 -94t-23.5 -163.5h-19q22 56 74 88.5t118 32.5q70 0 116 -29t69 -77t23 -106q0 -67 -27 -118t-78 -80t-125 -29q-82 0 -139 34
t-86.5 107t-29.5 190zM148 207q0 -55 36 -89t94 -34q62 0 97.5 34t35.5 89q0 56 -35.5 91t-97.5 35q-58 0 -94 -35t-36 -91z" />
    <glyph glyph-name="seven" unicode="7" horiz-adv-x="477" 
d="M67 0l318 651l56 -66h-415v96h438v-85l-282 -596h-115z" />
    <glyph glyph-name="eight" unicode="8" horiz-adv-x="532" 
d="M266 -10q-71 0 -120 26t-74 69.5t-25 94.5q0 55 23 94t63 63.5t91 34.5v-49q-45 11 -80 36t-55 62t-20 84q0 56 24.5 97.5t69 64.5t105.5 23q59 0 103 -23t68 -64.5t24 -97.5q0 -42 -16.5 -77t-46 -60t-68.5 -38l-1 37q46 -12 80.5 -37t54 -62.5t19.5 -87.5
q0 -51 -25 -94.5t-74 -69.5t-120 -26zM266 88q53 0 85.5 30t32.5 79q0 52 -32.5 83t-85.5 31t-85.5 -31t-32.5 -83q0 -49 32.5 -79t85.5 -30zM266 405q44 0 73 27.5t29 68.5q0 39 -29 65t-73 26q-43 0 -72.5 -26t-29.5 -65q0 -41 29.5 -68.5t72.5 -27.5z" />
    <glyph glyph-name="nine" unicode="9" horiz-adv-x="535" 
d="M515 359q0 -114 -34 -196.5t-96.5 -127.5t-147.5 -45q-52 0 -97 16.5t-86 48.5l54 75q29 -22 61.5 -34t66.5 -12q49 0 88.5 30.5t63 94t23.5 163.5h19q-22 -56 -74 -88.5t-118 -32.5q-69 0 -115.5 29t-69.5 77t-23 106q0 67 27 118t78.5 80t124.5 29q83 0 139.5 -34
t86 -107t29.5 -190zM397 473q0 55 -35.5 89t-94.5 34q-61 0 -97 -34t-36 -89q0 -56 36 -91t97 -35q59 0 94.5 35t35.5 91z" />
    <glyph glyph-name="colon" unicode=":" horiz-adv-x="269" 
d="M134 -5q-21 0 -39 11t-29 29t-11 39q0 22 11 39.5t29 28.5t39 11q22 0 40 -11t29 -28.5t11 -39.5q0 -21 -11 -39t-29 -29t-40 -11zM134 330q-21 0 -39 11t-29 29t-11 39q0 22 11 39.5t29 28.5t39 11q22 0 40 -11t29 -28.5t11 -39.5q0 -21 -11 -39t-29 -29t-40 -11z" />
    <glyph glyph-name="semicolon" unicode=";" horiz-adv-x="271" 
d="M131 330q-21 0 -39 11t-29 29t-11 39q0 22 11 39.5t29 28.5t39 11q22 0 40 -11t29 -28.5t11 -39.5q0 -21 -11 -39t-29 -29t-40 -11zM216 62q0 -53 -34.5 -110.5t-103.5 -104.5l-31 29q32 30 49.5 69t17.5 63q0 47 -21 72t-46 38q11 17 22.5 26.5t26.5 14t33 4.5
q23 0 43 -12.5t32 -35t12 -53.5z" />
    <glyph glyph-name="less" unicode="&#x3c;" horiz-adv-x="670" 
d="M493 42l-361 224v56l361 224l46 -73l-316 -195v32l316 -195z" />
    <glyph glyph-name="equal" unicode="=" horiz-adv-x="670" 
d="M123 343v80h425v-80h-425zM123 157v80h425v-80h-425z" />
    <glyph glyph-name="greater" unicode="&#x3e;" horiz-adv-x="670" 
d="M171 42l-39 66l316 195v-25l-316 195l39 66l368 -224v-49z" />
    <glyph glyph-name="question" unicode="?" horiz-adv-x="538" 
d="M234 196l-52 86l66 41q50 31 80.5 57t45 54t14.5 64q0 55 -37 88.5t-89 33.5q-39 0 -78.5 -16.5t-74.5 -54.5l-13 -14l-62 67l11 12q40 44 94 73.5t130 29.5q63 0 113.5 -29t79.5 -79.5t29 -113.5q0 -39 -13.5 -79t-51.5 -82t-110 -87zM260 -8q-32 0 -54.5 22.5
t-22.5 54.5t22.5 55t54.5 23t55 -23t23 -55t-23 -54.5t-55 -22.5z" />
    <glyph glyph-name="at" unicode="@" horiz-adv-x="841" 
d="M349 154q-36 0 -65.5 19t-46.5 52t-17 76q0 65 26 117.5t70 83.5t97 31q41 0 67.5 -21.5t40 -54.5t13.5 -70q0 -44 -13 -85.5t-37.5 -75t-58.5 -53t-76 -19.5zM444 -49q-85 0 -157 27.5t-125 78t-82 120t-29 154.5q0 87 30.5 159.5t84 125t122.5 81.5t147 29
q77 0 141.5 -27t112.5 -74t74.5 -107t26.5 -126q0 -69 -19 -116t-48.5 -76t-62.5 -42t-60 -13q-58 0 -93 31t-35 93q0 5 0.5 11t1.5 13l24 138l46 98h61l-37 -177q-2 -11 -6 -35t-4 -42q0 -22 14 -36t34 -14q22 0 43 16t35.5 52.5t14.5 98.5q0 64 -32.5 119.5t-91.5 90
t-139 34.5q-85 0 -151.5 -39.5t-104.5 -108t-38 -155.5q0 -84 38.5 -149.5t105.5 -103t152 -37.5q73 0 123 19t93 50l48 -75q-48 -39 -115.5 -62.5t-142.5 -23.5zM371 228q35 0 59 24t36.5 60.5t12.5 75.5q0 30 -14 50.5t-42 20.5q-34 0 -58.5 -23.5t-37 -60.5t-12.5 -76
q0 -30 14 -50.5t42 -20.5z" />
    <glyph glyph-name="A" unicode="A" horiz-adv-x="662" 
d="M148 253h367v-94h-367v94zM20 0l243 681h136l243 -681h-102l-218 611h18l-218 -611h-102z" />
    <glyph glyph-name="B" unicode="B" horiz-adv-x="600" 
d="M85 0v681h226q69 0 116.5 -19.5t72.5 -60t25 -102.5q0 -52 -26 -92t-68.5 -62t-91.5 -22l7 52q61 0 106.5 -21.5t71.5 -62.5t26 -100q0 -93 -57.5 -142t-164.5 -49h-243zM185 618v-548l-40 26h186q56 0 86.5 29.5t30.5 75.5q0 52 -29.5 79t-85.5 27h-188v92h169
q53 0 81 23.5t28 68.5q0 41 -28.5 67.5t-80.5 26.5h-165z" />
    <glyph glyph-name="C" unicode="C" horiz-adv-x="710" 
d="M374 -10q-103 0 -180.5 45.5t-120.5 125t-43 179.5q0 76 26 140t72.5 111t109 73t136.5 26q116 0 190 -47.5t121 -127.5l-98 -29q-46 63 -98.5 85.5t-114.5 22.5q-69 0 -123.5 -33t-86.5 -90t-32 -131q0 -73 32 -130.5t86.5 -90.5t123.5 -33q62 0 114.5 22.5t98.5 85.5
l98 -29q-47 -80 -121 -127.5t-190 -47.5z" />
    <glyph glyph-name="D" unicode="D" horiz-adv-x="679" 
d="M85 0v681h224q98 0 175 -41t121 -117.5t44 -183.5q0 -109 -44.5 -184.5t-121.5 -115t-175 -39.5h-223zM185 72l-30 22h148q67 0 121.5 26.5t87.5 80.5t33 138q0 81 -32.5 136.5t-87 83.5t-121.5 28h-156l37 36v-551z" />
    <glyph glyph-name="E" unicode="E" horiz-adv-x="554" 
d="M165 295v94h275v-94h-275zM162 587l23 32v-540l-28 16h342v-95h-414v681h414v-94h-337z" />
    <glyph glyph-name="F" unicode="F" horiz-adv-x="519" 
d="M165 295v94h265v-94h-265zM185 0h-100v681h404v-94h-327l23 32v-619z" />
    <glyph glyph-name="G" unicode="G" horiz-adv-x="728" 
d="M374 -10q-103 0 -180.5 45.5t-120.5 125t-43 179.5q0 76 26 140t72.5 111t109 73t136.5 26q116 0 190 -47.5t121 -127.5l-98 -29q-46 63 -98.5 85.5t-114.5 22.5q-69 0 -123.5 -33t-86.5 -90t-32 -131q0 -73 32 -130.5t86.5 -90.5t123.5 -33q66 0 120.5 29.5t86.5 80.5
t32 116l15 -58h-260v94h334q3 -10 4.5 -23t1.5 -25q0 -64 -25 -120t-70.5 -99t-106 -67t-132.5 -24z" />
    <glyph glyph-name="H" unicode="H" horiz-adv-x="698" 
d="M513 0v681h100v-681h-100zM85 0v681h100v-681h-100zM151 286v94h392v-94h-392z" />
    <glyph glyph-name="I" unicode="I" horiz-adv-x="270" 
d="M185 0h-100v681h100v-681z" />
    <glyph glyph-name="J" unicode="J" horiz-adv-x="530" 
d="M248 79q49 0 74.5 29.5t25.5 80.5v492h102v-492q0 -61 -25 -107t-70.5 -71.5t-105.5 -25.5q-61 0 -106.5 23t-70.5 68t-25 110v41h102v-35q0 -59 26 -86t73 -27z" />
    <glyph glyph-name="K" unicode="K" horiz-adv-x="611" 
d="M85 0v681h100v-681h-100zM471 0l-323 334v11l327 336h125l-361 -371l10 59l357 -369h-135z" />
    <glyph glyph-name="L" unicode="L" horiz-adv-x="504" 
d="M479 0h-394v681h100v-601l-12 14h306v-94z" />
    <glyph glyph-name="M" unicode="M" horiz-adv-x="877" 
d="M36 0l125 681h89l187 -497h3l187 497h89l125 -681h-105l-55 324q-12 70 -20 138.5t-10 137.5h25q-18 -83 -37.5 -146t-44.5 -130l-117 -313h-77l-117 313q-25 68 -44.5 130.5t-37.5 145.5h25q-2 -69 -10 -137.5t-20 -138.5l-55 -324h-105z" />
    <glyph glyph-name="N" unicode="N" horiz-adv-x="739" 
d="M569 0l-440 571l56 16v-587h-100v681h85l425 -551h-41v551h100v-681h-85z" />
    <glyph glyph-name="O" unicode="O" horiz-adv-x="765" 
d="M30 340q0 76 26.5 140t74.5 111t112.5 73t140.5 26q75 0 139 -26t111.5 -73t74 -111t26.5 -140q0 -75 -26.5 -139t-74 -111.5t-111.5 -73.5t-139 -26q-76 0 -140.5 26t-112.5 73.5t-74.5 111.5t-26.5 139zM132 340q0 -73 33 -130.5t90 -90.5t129 -33t128 33t88.5 90.5
t32.5 130.5q0 74 -32.5 131t-88.5 90t-128 33t-129 -33t-90 -90t-33 -131z" />
    <glyph glyph-name="P" unicode="P" horiz-adv-x="588" 
d="M167 314h141q66 0 106 36t40 100q0 68 -39.5 102.5t-105.5 34.5h-142l18 23v-610h-100v681h241q70 0 122 -31t81 -83t29 -117q0 -64 -29 -116.5t-81.5 -83t-122.5 -30.5h-158v94z" />
    <glyph glyph-name="Q" unicode="Q" horiz-adv-x="765" 
d="M599 -40l-191 323h105l191 -323h-105zM30 340q0 76 26.5 140t74.5 111t112.5 73t140.5 26q75 0 139 -26t111.5 -73t74 -111t26.5 -140q0 -75 -26.5 -139t-74 -111.5t-111.5 -73.5t-139 -26q-76 0 -140.5 26t-112.5 73.5t-74.5 111.5t-26.5 139zM132 340q0 -73 33 -130.5
t90 -90.5t129 -33t128 33t88.5 90.5t32.5 130.5q0 74 -32.5 131t-88.5 90t-128 33t-129 -33t-90 -90t-33 -131z" />
    <glyph glyph-name="R" unicode="R" horiz-adv-x="620" 
d="M85 0v681h250q70 0 122.5 -29.5t81.5 -79.5t29 -112t-29 -112t-81.5 -79t-122.5 -29h-168v94h151q66 0 106 33.5t40 92.5q0 63 -40 95t-106 32h-152l19 23v-610h-100zM465 0l-159 283h110l159 -283h-110z" />
    <glyph glyph-name="S" unicode="S" horiz-adv-x="555" 
d="M295 -15q-53 0 -102.5 16t-90.5 52.5t-69 99.5l83 47q35 -63 77 -91t105 -28q61 0 92.5 27t31.5 74q0 28 -13.5 49t-47.5 39t-96 33q-78 20 -121.5 49.5t-60.5 68t-17 83.5q0 56 26 97.5t75 65t116 23.5q80 0 132 -30.5t88 -83.5l-84 -54q-31 38 -64.5 54.5t-71.5 16.5
q-58 0 -88.5 -23t-30.5 -66q0 -37 28.5 -64t111.5 -47q84 -21 131.5 -49.5t67 -68t19.5 -94.5t-28 -99t-79 -70.5t-120 -26.5z" />
    <glyph glyph-name="T" unicode="T" horiz-adv-x="556" 
d="M223 0v606h100v-606h-100zM10 587v94h536v-94h-536z" />
    <glyph glyph-name="U" unicode="U" horiz-adv-x="688" 
d="M344 -10q-77 0 -136.5 30t-93.5 89.5t-34 146.5v425h100v-410q0 -88 42.5 -136.5t121.5 -48.5q80 0 122 48.5t42 136.5v410h100v-425q0 -87 -34 -146.5t-93.5 -89.5t-136.5 -30z" />
    <glyph glyph-name="V" unicode="V" horiz-adv-x="642" 
d="M253 0l-243 681h102l218 -611h-18l218 611h102l-243 -681h-136z" />
    <glyph glyph-name="W" unicode="W" horiz-adv-x="966" 
d="M644 0l-187 607l-23 74h98l191 -631l-44 10l166 621h101l-185 -681h-117zM205 0l-185 681h101l166 -621l-44 -10l191 631h98l-23 -74l-187 -607h-117z" />
    <glyph glyph-name="X" unicode="X" horiz-adv-x="641" 
d="M139 681l197 -286h-22l198 286h119l-255 -355l-19 48l274 -374h-119l-217 305h46l-212 -305h-119l269 374l-5 -48l-254 355h119z" />
    <glyph glyph-name="Y" unicode="Y" horiz-adv-x="553" 
d="M307 288h-64l198 393h112l-242 -458l15 86v-309h-100v309l14 -86l-240 458h111z" />
    <glyph glyph-name="Z" unicode="Z" horiz-adv-x="557" 
d="M415 615v-28h-357v94h454v-86l-363 -531l-3 30h371v-94h-467v87z" />
    <glyph glyph-name="bracketleft" unicode="[" horiz-adv-x="312" 
d="M159 701v88h133v-88h-133zM180 -137h-100v926h100v-926zM158 -137v88h134v-88h-134z" />
    <glyph glyph-name="backslash" unicode="\" horiz-adv-x="455" 
d="M372 -70l-368 755l79 37l368 -755z" />
    <glyph glyph-name="bracketright" unicode="]" horiz-adv-x="302" 
d="M143 701h-133v88h133v-88zM122 -137v926h100v-926h-100zM144 -137h-134v88h134v-88z" />
    <glyph glyph-name="asciicircum" unicode="^" horiz-adv-x="670" 
d="M537 368l-51 -56l-151 129l-151 -129l-51 56l202 178z" />
    <glyph glyph-name="underscore" unicode="_" horiz-adv-x="544" 
d="M527 -80h-510v80h510v-80z" />
    <glyph glyph-name="grave" unicode="`" horiz-adv-x="540" 
d="M314 557l-153 141l51 51l152 -140z" />
    <glyph glyph-name="a" unicode="a" horiz-adv-x="492" 
d="M216 -14q-57 0 -98 20t-62.5 57.5t-21.5 89.5q0 48 22 85.5t63 59.5t97 22q70 0 112.5 -31.5t59.5 -86.5h-56v125q0 31 -21 57t-74 26q-28 0 -61.5 -6.5t-69.5 -22.5l-30 77q41 20 85 30t86 10q63 0 104 -23t61 -61.5t20 -86.5v-327h-72l-25 89l53 15q-18 -59 -64 -88.5
t-108 -29.5zM234 75q44 0 71 20.5t27 57.5q0 38 -27 58t-71 20t-71 -20t-27 -58q0 -37 27 -57.5t71 -20.5z" />
    <glyph glyph-name="b" unicode="b" horiz-adv-x="570" 
d="M311 -10q-66 0 -115 32t-76.5 89.5t-27.5 133.5t27.5 133t76.5 88.5t115 31.5q68 0 118.5 -31.5t78.5 -88.5t28 -133t-28 -133.5t-78.5 -89.5t-118.5 -32zM64 0v681h100v-305h-10v-278h10l-24 -98h-76zM296 76q62 0 100 46.5t38 122.5q0 75 -38 121t-100 46
q-61 0 -99 -46t-38 -122t38 -122t99 -46z" />
    <glyph glyph-name="c" unicode="c" horiz-adv-x="509" 
d="M279 -10q-75 0 -130 32.5t-85 89.5t-30 132t30 132t85 89.5t130 32.5q71 0 129 -38.5t84 -102.5l-95 -40q-16 42 -48 63.5t-73 21.5q-60 0 -100 -41.5t-40 -116.5t40 -116.5t100 -41.5q41 0 73 21.5t48 63.5l95 -40q-27 -64 -84.5 -102.5t-128.5 -38.5z" />
    <glyph glyph-name="d" unicode="d" horiz-adv-x="570" 
d="M259 -10q-67 0 -118 32t-79 89.5t-28 133.5t28 133t79 88.5t118 31.5q66 0 115 -31.5t76.5 -88.5t27.5 -133t-27.5 -133.5t-76.5 -89.5t-115 -32zM274 76q62 0 99.5 46t37.5 122t-37.5 122t-99.5 46t-100 -46t-38 -121q0 -76 38 -122.5t100 -46.5zM430 0l-24 98h10v278
h-10v305h100v-681h-76z" />
    <glyph glyph-name="e" unicode="e" horiz-adv-x="543" 
d="M273 -10q-71 0 -125 31.5t-84 88.5t-30 133q0 77 30 134t84 89t125 32q72 0 126 -32t84 -89t30 -134q0 -7 -0.5 -14.5t-1.5 -13.5h-382v86h310l-28 -58q0 76 -34 125t-104 49q-62 0 -99 -39.5t-37 -103.5v-52q0 -67 36 -106.5t100 -39.5q59 0 91 25t56 62l75 -47
q-34 -63 -87.5 -94.5t-134.5 -31.5z" />
    <glyph glyph-name="f" unicode="f" horiz-adv-x="314" 
d="M101 0v536q0 53 17 87t48 50.5t74 16.5q20 0 36 -3t29 -7v-93q-11 2 -21.5 3.5t-24.5 1.5q-22 0 -40 -14.5t-18 -49.5v-528h-100zM295 396h-269v92h269v-92z" />
    <glyph glyph-name="g" unicode="g" horiz-adv-x="575" 
d="M279 -198q-42 0 -79.5 11.5t-68 37.5t-54.5 69l-7 13l79 43q26 -43 55.5 -64.5t74.5 -21.5q61 0 96.5 38t35.5 117v104h10v241h-10l24 98h76v-427q0 -86 -30.5 -144t-82.5 -86.5t-119 -28.5zM267 30q-68 0 -119.5 29t-80 81.5t-28.5 122.5q0 71 28.5 123.5t80 82
t119.5 29.5q65 0 113.5 -29.5t75.5 -82t27 -123.5q0 -70 -27 -122.5t-75.5 -81.5t-113.5 -29zM279 116q62 0 99.5 40.5t37.5 107.5t-37.5 107.5t-99.5 40.5t-100 -41t-38 -108q0 -66 38 -106.5t100 -40.5z" />
    <glyph glyph-name="h" unicode="h" horiz-adv-x="551" 
d="M64 0v681h100v-681h-100zM391 0v312q0 52 -23.5 70t-55.5 18t-65 -13t-59 -35t-40 -49l-12 96q28 32 61 54t70 33.5t76 11.5q52 0 82 -17.5t44 -47t18 -66.5t4 -76v-291h-100z" />
    <glyph glyph-name="i" unicode="i" horiz-adv-x="232" 
d="M166 0h-100v488h100v-488zM51 638q0 29 17.5 47.5t47.5 18.5q29 0 47 -18.5t18 -47.5q0 -28 -18 -46.5t-47 -18.5q-30 0 -47.5 18.5t-17.5 46.5z" />
    <glyph glyph-name="j" unicode="j" horiz-adv-x="236" 
d="M60 -194q-25 0 -40 4.5t-20 6.5v84q5 -1 13 -3t18 -2q20 0 30 13t10 35v544h100v-541q0 -38 -11.5 -70.5t-36 -51.5t-63.5 -19zM56 638q0 29 17.5 47.5t47.5 18.5q29 0 47 -18.5t18 -47.5q0 -28 -18 -46.5t-47 -18.5q-30 0 -47.5 18.5t-17.5 46.5z" />
    <glyph glyph-name="k" unicode="k" horiz-adv-x="460" 
d="M138 246v14l212 228h118l-238 -261l-9 66l249 -293h-120zM64 681h98v-681h-98v681z" />
    <glyph glyph-name="l" unicode="l" horiz-adv-x="247" 
d="M153 -5q-26 0 -46 12.5t-31.5 36.5t-11.5 59v578h98v-543q0 -31 15.5 -42t35.5 -11v-80q-13 -5 -28 -7.5t-32 -2.5z" />
    <glyph glyph-name="m" unicode="m" horiz-adv-x="848" 
d="M64 0v488h76l21 -86l-25 -3q27 32 57 54t64 33.5t71 11.5q52 0 82 -17.5t44 -47t18 -66.5t4 -76v-291h-100v312q0 52 -23.5 70t-55.5 18q-46 0 -88 -28.5t-61 -68.5v56h16v-359h-100zM688 0v312q0 52 -23.5 70t-55.5 18q-46 0 -88 -28.5t-61 -68.5l-12 96q27 32 57 54
t64 33.5t71 11.5q52 0 82 -17.5t44 -47t18 -66.5t4 -76v-291h-100z" />
    <glyph glyph-name="n" unicode="n" horiz-adv-x="551" 
d="M343 498q52 0 82 -17.5t44 -47t18 -66.5t4 -76v-291h-100v312q0 52 -23.5 70t-55.5 18t-65 -13t-59 -35t-40 -49v56h16v-359h-100v488h76l21 -86l-25 -3q28 32 61 54t70 33.5t76 11.5z" />
    <glyph glyph-name="o" unicode="o" horiz-adv-x="569" 
d="M284 -10q-74 0 -130.5 31.5t-87.5 88.5t-31 133q0 77 31 134t87.5 89t130.5 32q75 0 131 -32t87.5 -89t31.5 -134q0 -76 -31.5 -133t-87.5 -88.5t-131 -31.5zM284 86q67 0 107.5 43.5t40.5 113.5q0 71 -40.5 115t-107.5 44q-66 0 -106.5 -43.5t-40.5 -114.5t40.5 -114.5
t106.5 -43.5z" />
    <glyph glyph-name="p" unicode="p" horiz-adv-x="570" 
d="M311 -10q-66 0 -115 31.5t-76.5 88.5t-27.5 133q0 77 27.5 134t76.5 89t115 32q68 0 118.5 -32t78.5 -89t28 -134q0 -76 -28 -133t-78.5 -88.5t-118.5 -31.5zM64 -190v678h76l24 -98h-10v-278h10v-302h-100zM296 76q62 0 100 46t38 121q0 76 -38 122.5t-100 46.5
q-61 0 -99 -46t-38 -122t38 -122t99 -46z" />
    <glyph glyph-name="q" unicode="q" horiz-adv-x="570" 
d="M259 -10q-67 0 -118 31.5t-79 88.5t-28 133q0 77 28 134t79 89t118 32q66 0 115 -32t76.5 -89t27.5 -134q0 -76 -27.5 -133t-76.5 -88.5t-115 -31.5zM274 76q62 0 99.5 46t37.5 122t-37.5 122t-99.5 46t-100 -46.5t-38 -122.5q0 -75 38 -121t100 -46zM406 -190v302h10
v278h-10l24 98h76v-678h-100z" />
    <glyph glyph-name="r" unicode="r" horiz-adv-x="345" 
d="M140 488l24 -132v-356h-100v488h76zM149 315l-24 11v73l9 11q10 18 31.5 38.5t50.5 35t59 14.5q15 0 28.5 -2t20.5 -7v-90h-31q-68 0 -99 -20.5t-45 -63.5z" />
    <glyph glyph-name="s" unicode="s" horiz-adv-x="432" 
d="M220 -10q-51 0 -100.5 24t-81.5 82l76 50q28 -37 53 -53.5t65 -16.5q32 0 49.5 16.5t17.5 40.5q0 16 -8.5 28t-29.5 22.5t-60 20.5q-72 19 -111 50t-39 98q0 40 20 73t58 53t90 20q62 0 106 -25.5t69 -60.5l-77 -57q-14 18 -41 35.5t-68 17.5q-25 0 -46 -14t-21 -39
t19.5 -40.5t71.5 -27.5q88 -21 125 -54.5t37 -88.5q0 -48 -24.5 -82.5t-64 -53t-85.5 -18.5z" />
    <glyph glyph-name="t" unicode="t" horiz-adv-x="359" 
d="M244 -9q-64 0 -101.5 37.5t-37.5 116.5v337v6l19 110h81v-455q0 -28 14.5 -42t36.5 -14q17 0 30 2t23 5v-93q-13 -4 -28.5 -7t-36.5 -3zM30 396v92h279v-92h-279z" />
    <glyph glyph-name="u" unicode="u" horiz-adv-x="551" 
d="M218 -10q-55 0 -87 17.5t-47 47t-19.5 66.5t-4.5 76v291h100v-312q0 -52 23.5 -70t55.5 -18q33 0 65.5 13t59 35.5t39.5 48.5v-56h-16v359h100v-488h-76l-21 86l25 3q-26 -31 -58 -53.5t-67 -34t-72 -11.5z" />
    <glyph glyph-name="v" unicode="v" horiz-adv-x="507" 
d="M490 488l-184 -488h-95l-194 488h111l136 -379h-13l130 379h109z" />
    <glyph glyph-name="w" unicode="w" horiz-adv-x="729" 
d="M167 0l-154 488h100l101 -359h-9l114 359h91l114 -359h-9l101 359h100l-154 -488h-85l-121 381h17l-121 -381h-85z" />
    <glyph glyph-name="x" unicode="x" horiz-adv-x="489" 
d="M351 0l-125 193h36l-124 -193h-121l184 269v-50l-184 269h121l124 -193h-35l124 193h121l-184 -269v50l184 -269h-121z" />
    <glyph glyph-name="y" unicode="y" horiz-adv-x="502" 
d="M208 62l-193 426h105l171 -377zM80 -190l308 678h105l-308 -678h-105z" />
    <glyph glyph-name="z" unicode="z" horiz-adv-x="453" 
d="M415 92v-92h-377v78l282 361l33 -43h-309v92h367v-78l-283 -361l-61 43h348z" />
    <glyph glyph-name="braceleft" unicode="{" horiz-adv-x="312" 
d="M114 343q32 0 63 -17.5t51.5 -46.5t20.5 -64q0 -29 -15 -57t-35 -55t-35 -53t-15 -51q0 -34 22 -47.5t50 -13.5h41v-84q-10 -2 -24 -2.5t-28 -0.5q-36 0 -65.5 10t-50.5 28t-32.5 42.5t-11.5 53.5q0 31 15.5 59.5t35.5 55.5t35.5 53t15.5 53q0 22 -15.5 41.5t-46.5 32.5
l-38 16v60l38 16q31 13 46.5 32.5t15.5 41.5q0 27 -15.5 53t-35.5 53t-35.5 55.5t-15.5 59.5q0 29 11.5 53.5t32.5 42.5t50.5 28t65.5 10q14 0 28 -0.5t24 -2.5v-84h-41q-28 0 -50 -13.5t-22 -47.5q0 -25 15 -50.5t35 -52.5t35 -55.5t15 -57.5q0 -35 -20.5 -64t-51.5 -46.5
t-63 -17.5v34z" />
    <glyph glyph-name="bar" unicode="|" horiz-adv-x="264" 
d="M179 -120h-94v940h94v-940z" />
    <glyph glyph-name="braceright" unicode="}" horiz-adv-x="312" 
d="M198 343v-34q-32 0 -63 17.5t-51.5 46.5t-20.5 64q0 29 15 57.5t35 55.5t35 52.5t15 50.5q0 34 -21.5 47.5t-50.5 13.5h-41v84q10 2 24 2.5t28 0.5q36 0 65.5 -10t50.5 -28t32.5 -42.5t11.5 -53.5q0 -31 -15.5 -59.5t-35.5 -55.5t-35.5 -53t-15.5 -53q0 -22 15.5 -41.5
t46.5 -32.5l38 -16v-60l-38 -16q-31 -13 -46.5 -32.5t-15.5 -41.5q0 -27 15.5 -53t35.5 -53t35.5 -55.5t15.5 -59.5q0 -29 -11.5 -53.5t-32.5 -42.5t-50.5 -28t-65.5 -10q-14 0 -28 0.5t-24 2.5v84h41q29 0 50.5 13.5t21.5 47.5q0 25 -15 51t-35 53t-35 55t-15 57
q0 35 20.5 64t51.5 46.5t63 17.5z" />
    <glyph glyph-name="asciitilde" unicode="~" horiz-adv-x="670" 
d="M139 203l-73 41q19 33 42 60t55 43t76 16q35 0 60 -10t46 -23.5t41.5 -23.5t45.5 -10q35 0 57 21.5t43 55.5l73 -41q-28 -49 -67 -84t-106 -35q-34 0 -59.5 10t-46.5 23.5t-41.5 23.5t-45.5 10q-34 0 -56.5 -21t-43.5 -56z" />
    <glyph glyph-name="uni00A0" unicode="&#xa0;" horiz-adv-x="260" 
 />
    <glyph glyph-name="exclamdown" unicode="&#xa1;" horiz-adv-x="291" 
d="M210 -176h-128l10 336l12 156h84l12 -155zM146 539q32 0 54.5 -22.5t22.5 -54.5t-22.5 -55t-54.5 -23t-55 23t-23 55t23 54.5t55 22.5z" />
    <glyph glyph-name="cent" unicode="&#xa2;" horiz-adv-x="534" 
d="M234 566v140h100v-140h-100zM234 0v140h100v-140h-100zM286 93q-74 0 -128 34t-82.5 91.5t-28.5 128.5t31 128.5t85 91.5t123 34q81 0 139.5 -32.5t91.5 -109.5l-83 -41q-16 30 -34 51.5t-43.5 33.5t-66.5 12q-68 0 -104.5 -45.5t-36.5 -121.5t37.5 -122.5t104.5 -46.5
q58 0 88.5 27.5t54.5 69.5l83 -41q-33 -75 -91.5 -108.5t-139.5 -33.5z" />
    <glyph glyph-name="sterling" unicode="&#xa3;" horiz-adv-x="495" 
d="M78 483q0 49 23 89t67 64t106 24q56 0 104 -25.5t87 -81.5l-71 -60q-27 40 -56.5 55.5t-63.5 15.5q-40 0 -68.5 -25.5t-28.5 -69.5q0 -27 12 -59t27.5 -66t27.5 -67t12 -62q0 -44 -16.5 -81.5t-42 -62.5t-52.5 -34l-1 59h325v-96h-401l-21 62l40 26q38 22 54.5 59.5
t16.5 71.5q0 35 -12 64t-28 58t-28 63t-12 79zM387 248h-344v90h344v-90z" />
    <glyph glyph-name="currency" unicode="&#xa4;" horiz-adv-x="600" 
d="M300 123q-55 0 -102 27.5t-75.5 74.5t-28.5 105t28.5 105t75.5 74.5t102 27.5q58 0 104.5 -27.5t74 -74.5t27.5 -105t-27.5 -105t-74 -74.5t-104.5 -27.5zM115 83l-68 68l106 106l68 -68zM153 403l-106 106l68 68l106 -106zM300 219q48 0 79 31.5t31 79.5t-31 79.5
t-79 31.5t-79 -31.5t-31 -79.5t31 -79.5t79 -31.5zM485 83l-106 106l68 68l106 -106zM447 403l-68 68l106 106l68 -68z" />
    <glyph glyph-name="yen" unicode="&#xa5;" horiz-adv-x="520" 
d="M210 0v108h-171v90h171v64h-171v90h126l-152 298h97l150 -305l150 305h97l-152 -298h127v-90h-172v-64h172v-90h-172v-108h-100z" />
    <glyph glyph-name="brokenbar" unicode="&#xa6;" horiz-adv-x="264" 
d="M179 414h-94v406h94v-406zM179 -120h-94v406h94v-406z" />
    <glyph glyph-name="section" unicode="&#xa7;" horiz-adv-x="508" 
d="M250 454l-13 -54q-31 0 -52.5 -21t-21.5 -59q0 -18 9.5 -37t36.5 -36t78 -31q89 -22 134 -60t45 -103q0 -52 -27.5 -93.5t-74.5 -65t-108 -23.5q-69 0 -126 33.5t-92 114.5l79 47q32 -57 66 -80t83 -23q44 0 72 23t28 58q0 20 -11 38t-40.5 34t-86.5 29
q-94 22 -129.5 64.5t-35.5 94.5q0 44 22 78t64 53t101 19zM265 138l24 67q35 0 57.5 23.5t22.5 60.5q0 20 -9.5 37.5t-37.5 33.5t-85 29q-94 22 -132 68.5t-38 104.5q0 49 23.5 88t66.5 62t102 23q72 0 120.5 -26t83.5 -78l-80 -54q-31 41 -61 53.5t-65 12.5
q-40 0 -65.5 -20.5t-25.5 -55.5q0 -31 26.5 -59t103.5 -48q59 -15 97.5 -38t57.5 -55.5t19 -76.5q0 -43 -26 -77.5t-72 -54.5t-107 -20z" />
    <glyph glyph-name="dieresis" unicode="&#xa8;" horiz-adv-x="540" 
d="M110 631q0 29 17.5 47.5t47.5 18.5q29 0 47 -18.5t18 -47.5q0 -28 -18 -46.5t-47 -18.5q-30 0 -47.5 18.5t-17.5 46.5zM300 631q0 29 17.5 47.5t47.5 18.5q29 0 47 -18.5t18 -47.5q0 -28 -18 -46.5t-47 -18.5q-30 0 -47.5 18.5t-17.5 46.5z" />
    <glyph glyph-name="copyright" unicode="&#xa9;" horiz-adv-x="670" 
d="M335 214q-58 0 -109 22t-89.5 61t-60 89.5t-21.5 107.5q0 59 22 110t60.5 89.5t89 60.5t108.5 22q57 0 108 -22t89.5 -60.5t60.5 -89.5t22 -110q0 -57 -21.5 -107.5t-60 -89.5t-89.5 -61t-109 -22zM335 285q57 0 103.5 27.5t74 75t27.5 106.5q0 60 -27.5 107.5t-74 75
t-103.5 27.5t-103.5 -27.5t-74.5 -75t-28 -107.5q0 -59 28 -106.5t74.5 -75t103.5 -27.5zM340 352q-58 0 -97.5 38.5t-39.5 101.5q0 62 38 100.5t99 38.5q40 0 71.5 -16.5t50.5 -51.5l-62 -34q-13 21 -29 27.5t-31 6.5q-28 0 -44.5 -19.5t-16.5 -51.5q0 -33 16.5 -52
t44.5 -19q15 0 31 6t29 28l62 -34q-19 -36 -50.5 -52.5t-71.5 -16.5z" />
    <glyph glyph-name="ordfeminine" unicode="&#xaa;" horiz-adv-x="380" 
d="M172 302q-38 0 -69.5 17t-50 45.5t-18.5 64.5q0 39 19.5 67t51.5 43.5t70 15.5q43 0 68 -14.5t37.5 -33.5t16 -33.5l3.5 -14.5l-40 9v93q0 23 -17 41t-54 18q-21 0 -46.5 -5t-53.5 -18l-24 62q36 16 66 24t73 8q68 0 103 -40t35 -111v-227h-61l-16 74l46 48
q0 -33 -19 -63.5t-50.5 -50t-69.5 -19.5zM188 373q31 0 51.5 16t20.5 40q0 23 -20 39.5t-52 16.5q-31 0 -51 -16.5t-20 -39.5q0 -24 20 -40t51 -16z" />
    <glyph glyph-name="guillemotleft" unicode="&#xab;" horiz-adv-x="526" 
d="M184 91l-141 198l142 199h102l-140 -200l140 -197h-103zM385 91l-141 198l142 199h102l-140 -200l140 -197h-103z" />
    <glyph glyph-name="logicalnot" unicode="&#xac;" horiz-adv-x="670" 
d="M563 90h-90v260h90v-260zM563 260h-455v90h455v-90z" />
    <glyph glyph-name="registered" unicode="&#xae;" horiz-adv-x="670" 
d="M282 436v63h53q49 0 49 38t-49 38h-57l23 24v-237h-67v276h97q56 0 89 -25.5t33 -75.5q0 -49 -33 -75t-89 -26h-49zM448 362h-72l-62 110h74zM335 776q-58 0 -108.5 -22t-89 -60.5t-60.5 -89.5t-22 -110q0 -57 21.5 -107.5t60 -89.5t89.5 -61t109 -22t109 22t89.5 61
t60 89.5t21.5 107.5q0 59 -22 110t-60.5 89.5t-89.5 60.5t-108 22zM335 285q-57 0 -103.5 27.5t-74.5 75t-28 106.5q0 60 28 107.5t74.5 75t103.5 27.5t103.5 -27.5t74 -75t27.5 -107.5q0 -59 -27.5 -106.5t-74 -75t-103.5 -27.5z" />
    <glyph glyph-name="macron" unicode="&#xaf;" horiz-adv-x="540" 
d="M405 584h-271v70h271v-70z" />
    <glyph glyph-name="degree" unicode="&#xb0;" horiz-adv-x="413" 
d="M206 346q-48 0 -88 23.5t-64 62.5t-24 87q0 49 24 88.5t64.5 62.5t87.5 23q48 0 88 -23t64.5 -62.5t24.5 -88.5t-24 -88.5t-64.5 -62t-88.5 -22.5zM206 429q37 0 61.5 25t24.5 65t-24 64.5t-62 24.5q-36 0 -61 -24.5t-25 -64.5t25 -65t61 -25z" />
    <glyph glyph-name="plusminus" unicode="&#xb1;" horiz-adv-x="670" 
d="M100 370v90h471v-90h-471zM100 20v90h471v-90h-471zM284 200v440h90v-440h-90z" />
    <glyph glyph-name="uni00B2" unicode="&#xb2;" horiz-adv-x="341" 
d="M306 657q0 -29 -18.5 -60.5t-56.5 -72.5l-80 -85l-11 19h171v-85h-282v53l116 118q34 35 54 61.5t20 48.5t-15 33t-33 11q-19 0 -37.5 -9.5t-39.5 -37.5l-68 46q26 38 59.5 60t85.5 22q37 0 67.5 -15.5t49 -42.5t18.5 -64z" />
    <glyph glyph-name="uni00B3" unicode="&#xb3;" horiz-adv-x="325" 
d="M156 364q-44 0 -80 18.5t-57 52.5l55 56q15 -18 27 -28t25 -14.5t32 -4.5q23 0 40.5 11.5t17.5 32.5q0 17 -15 34t-62 17q-10 0 -22.5 -0.5t-20.5 -1.5v68q17 -1 22.5 -1.5t16.5 -0.5q29 0 46.5 15t17.5 40q0 19 -15 30.5t-39 11.5q-20 0 -40.5 -12.5t-37.5 -35.5l-54 56
q32 38 64.5 54.5t76.5 16.5q57 0 93.5 -29.5t36.5 -75.5q0 -53 -35 -82t-103 -29l21 37q39 0 71 -13.5t51 -37t19 -52.5q0 -38 -20 -68.5t-54.5 -47.5t-77.5 -17z" />
    <glyph glyph-name="acute" unicode="&#xb4;" horiz-adv-x="540" 
d="M226 557l-50 52l152 140l51 -51z" />
    <glyph glyph-name="uni00B5" unicode="&#xb5;" horiz-adv-x="551" 
d="M60 488h100v-312q0 -52 23.5 -70t55.5 -18q33 0 65.5 13t59 35.5t39.5 48.5v-56h-16v359h100v-488h-76l-21 86l25 3q-26 -31 -58 -53.5t-67 -34t-72 -11.5q-55 0 -87 17.5t-47 47t-19.5 66.5t-4.5 76v291zM60 227l100 21v-438h-100v417z" />
    <glyph glyph-name="paragraph" unicode="&#xb6;" horiz-adv-x="680" 
d="M338 654v-461h-35q-67 0 -122 33.5t-88 90.5t-33 129q0 85 37 144t98.5 89.5t134.5 30.5h320v-56l-81 -40h-265zM471 86v580h100v-567q0 -75 -25 -129t-74.5 -83t-123.5 -29q-38 0 -77 13.5t-74.5 45.5t-63.5 89l-4 8l80 41q35 -64 66 -84.5t71 -20.5q52 0 88.5 34.5
t36.5 101.5z" />
    <glyph glyph-name="periodcentered" unicode="&#xb7;" horiz-adv-x="269" 
d="M134 200q-21 0 -39 11t-29 29t-11 39q0 22 11 39.5t29 28.5t39 11q22 0 40 -11t29 -28.5t11 -39.5q0 -21 -11 -39t-29 -29t-40 -11z" />
    <glyph glyph-name="cedilla" unicode="&#xb8;" horiz-adv-x="540" 
d="M266 -203q-33 0 -59 8t-46 21l27 48q13 -8 31 -14.5t39 -6.5q26 0 38 9t12 23q0 12 -11.5 19.5t-42.5 7.5h-48l19 88h62l-13 -69l-19 31q60 0 87.5 -20t27.5 -56q0 -42 -27 -65.5t-77 -23.5z" />
    <glyph glyph-name="uni00B9" unicode="&#xb9;" horiz-adv-x="232" 
d="M104 691l31 -9q-9 -26 -42 -41.5t-84 -15.5v86q36 0 62.5 7.5t42.5 21t22 31.5h58v-398h-90v318z" />
    <glyph glyph-name="ordmasculine" unicode="&#xba;" horiz-adv-x="451" 
d="M225 301q-57 0 -100 24.5t-67 68.5t-24 101t24 100.5t67 68.5t100 25t100.5 -25t67.5 -68.5t24 -100.5t-24 -101t-67.5 -68.5t-100.5 -24.5zM225 384q45 0 71.5 31t26.5 80q0 50 -26.5 80.5t-71.5 30.5t-71 -30.5t-26 -80.5q0 -49 26 -80t71 -31z" />
    <glyph glyph-name="guillemotright" unicode="&#xbb;" horiz-adv-x="526" 
d="M38 91l140 197l-140 200h102l142 -199l-141 -198h-103zM239 91l140 197l-140 200h102l142 -199l-141 -198h-103z" />
    <glyph glyph-name="onequarter" unicode="&#xbc;" horiz-adv-x="818" 
d="M104 601l31 -9q-9 -26 -42 -41.5t-84 -15.5v86q36 0 62.5 7.5t42.5 21t22 31.5h58v-398h-90v318zM133 -42l-60 42l494 700l63 -38zM748 274v-274h-89v138l1 27l23 109h65zM470 86v37l92 275h88l-95 -285l-10 58h256v-85h-331z" />
    <glyph glyph-name="onehalf" unicode="&#xbd;" horiz-adv-x="812" 
d="M104 601l31 -9q-9 -26 -42 -41.5t-84 -15.5v86q36 0 62.5 7.5t42.5 21t22 31.5h58v-398h-90v318zM133 -42l-60 42l494 700l63 -38zM777 284q0 -29 -18.5 -60.5t-56.5 -72.5l-80 -85l-11 19h171v-85h-282v53l116 118q34 35 54 61.5t20 48.5t-15 33t-33 11
q-19 0 -37.5 -9.5t-39.5 -37.5l-68 46q26 38 59.5 60t85.5 22q37 0 67.5 -15.5t49 -42.5t18.5 -64z" />
    <glyph glyph-name="threequarters" unicode="&#xbe;" horiz-adv-x="911" 
d="M156 274q-44 0 -80 18.5t-57 52.5l55 56q15 -18 27 -28t25 -14.5t32 -4.5q23 0 40.5 11.5t17.5 32.5q0 17 -15 34t-62 17q-10 0 -22.5 -0.5t-20.5 -1.5v68q17 -1 22.5 -1.5t16.5 -0.5q29 0 46.5 15t17.5 40q0 19 -15 30.5t-39 11.5q-20 0 -40.5 -12.5t-37.5 -35.5l-54 56
q32 38 64.5 54.5t76.5 16.5q57 0 93.5 -29.5t36.5 -75.5q0 -53 -35 -82t-103 -29l21 37q39 0 71 -13.5t51 -37t19 -52.5q0 -38 -20 -68.5t-54.5 -47.5t-77.5 -17zM226 -42l-60 42l494 700l63 -38zM841 274v-274h-89v138l1 27l23 109h65zM563 86v37l92 275h88l-95 -285
l-10 58h256v-85h-331z" />
    <glyph glyph-name="questiondown" unicode="&#xbf;" horiz-adv-x="487" 
d="M304 335l52 -86l-66 -41q-49 -30 -80 -56.5t-45.5 -54.5t-14.5 -64q0 -55 37 -88.5t89 -33.5q26 0 52.5 7t52 23t48.5 41l13 14l62 -67l-11 -12q-40 -43 -94 -73t-130 -30q-63 0 -113 29.5t-79.5 79.5t-29.5 113q0 39 14 79t51.5 82t109.5 87zM278 539q32 0 54.5 -22.5
t22.5 -54.5t-22.5 -55t-54.5 -23t-55 23t-23 55t23 54.5t55 22.5z" />
    <glyph glyph-name="Agrave" unicode="&#xc0;" horiz-adv-x="662" 
d="M148 253h367v-94h-367v94zM20 0l243 681h136l243 -681h-102l-218 611h18l-218 -611h-102zM335 750l-153 141l51 51l152 -140z" />
    <glyph glyph-name="Aacute" unicode="&#xc1;" horiz-adv-x="662" 
d="M148 253h367v-94h-367v94zM20 0l243 681h136l243 -681h-102l-218 611h18l-218 -611h-102zM321 750l-50 52l152 140l51 -51z" />
    <glyph glyph-name="Acircumflex" unicode="&#xc2;" horiz-adv-x="662" 
d="M148 253h367v-94h-367v94zM20 0l243 681h136l243 -681h-102l-218 611h18l-218 -611h-102zM238 751l-51 51l142 140l143 -140l-51 -51l-123 125l64 -1z" />
    <glyph glyph-name="Atilde" unicode="&#xc3;" horiz-adv-x="662" 
d="M148 253h367v-94h-367v94zM20 0l243 681h136l243 -681h-102l-218 611h18l-218 -611h-102zM396 768q-37 0 -77 28q-17 12 -28 17.5t-23 5.5q-30 0 -50 -45l-67 33q20 42 47 65t66 23q24 0 45.5 -7.5t44.5 -24.5q12 -8 22.5 -13.5t20.5 -5.5q17 0 26 11t21 40l67 -33
q-16 -43 -43 -68.5t-72 -25.5z" />
    <glyph glyph-name="Adieresis" unicode="&#xc4;" horiz-adv-x="662" 
d="M148 253h367v-94h-367v94zM20 0l243 681h136l243 -681h-102l-218 611h18l-218 -611h-102zM171 824q0 29 17.5 47.5t47.5 18.5q29 0 47 -18.5t18 -47.5q0 -28 -18 -46.5t-47 -18.5q-30 0 -47.5 18.5t-17.5 46.5zM361 824q0 29 17.5 47.5t47.5 18.5q29 0 47 -18.5t18 -47.5
q0 -28 -18 -46.5t-47 -18.5q-30 0 -47.5 18.5t-17.5 46.5z" />
    <glyph glyph-name="Aring" unicode="&#xc5;" horiz-adv-x="662" 
d="M148 253h367v-94h-367v94zM20 0l243 681h136l243 -681h-102l-218 611h18l-218 -611h-102zM331 752q-29 0 -53.5 13.5t-39 37t-14.5 52.5q0 30 14.5 54t39 37.5t53.5 13.5q30 0 54 -13.5t38.5 -37.5t14.5 -54q0 -29 -14.5 -52.5t-38.5 -37t-54 -13.5zM330 817q17 0 28 11
t11 27q0 17 -11 28t-28 11q-16 0 -27 -11t-11 -28q0 -16 11 -27t27 -11z" />
    <glyph glyph-name="AE" unicode="&#xc6;" horiz-adv-x="833" 
d="M422 0l-62 681h397v-94h-320l30 32l49 -541l-22 16h284v-94h-356zM131 173v94h327v-94h-327zM20 0l271 681h107l-279 -681h-99zM462 289v94h254v-94h-254z" />
    <glyph glyph-name="Ccedilla" unicode="&#xc7;" horiz-adv-x="710" 
d="M374 -10q-103 0 -180.5 45.5t-120.5 125t-43 179.5q0 76 26 140t72.5 111t109 73t136.5 26q116 0 190 -47.5t121 -127.5l-98 -29q-46 63 -98.5 85.5t-114.5 22.5q-69 0 -123.5 -33t-86.5 -90t-32 -131q0 -73 32 -130.5t86.5 -90.5t123.5 -33q62 0 114.5 22.5t98.5 85.5
l98 -29q-47 -80 -121 -127.5t-190 -47.5zM371 -203q-33 0 -59 8t-46 21l27 48q13 -8 31 -14.5t39 -6.5q26 0 38 9t12 23q0 12 -11.5 19.5t-42.5 7.5h-48l19 88h62l-13 -69l-19 31q60 0 87.5 -20t27.5 -56q0 -42 -27 -65.5t-77 -23.5z" />
    <glyph glyph-name="Egrave" unicode="&#xc8;" horiz-adv-x="554" 
d="M165 295v94h275v-94h-275zM162 587l23 32v-540l-28 16h342v-95h-414v681h414v-94h-337zM296 750l-153 141l51 51l152 -140z" />
    <glyph glyph-name="Eacute" unicode="&#xc9;" horiz-adv-x="554" 
d="M165 295v94h275v-94h-275zM162 587l23 32v-540l-28 16h342v-95h-414v681h414v-94h-337zM282 750l-50 52l152 140l51 -51z" />
    <glyph glyph-name="Ecircumflex" unicode="&#xca;" horiz-adv-x="554" 
d="M165 295v94h275v-94h-275zM162 587l23 32v-540l-28 16h342v-95h-414v681h414v-94h-337zM199 751l-51 51l142 140l143 -140l-51 -51l-123 125l64 -1z" />
    <glyph glyph-name="Edieresis" unicode="&#xcb;" horiz-adv-x="554" 
d="M165 295v94h275v-94h-275zM162 587l23 32v-540l-28 16h342v-95h-414v681h414v-94h-337zM132 824q0 29 17.5 47.5t47.5 18.5q29 0 47 -18.5t18 -47.5q0 -28 -18 -46.5t-47 -18.5q-30 0 -47.5 18.5t-17.5 46.5zM322 824q0 29 17.5 47.5t47.5 18.5q29 0 47 -18.5t18 -47.5
q0 -28 -18 -46.5t-47 -18.5q-30 0 -47.5 18.5t-17.5 46.5z" />
    <glyph glyph-name="Igrave" unicode="&#xcc;" horiz-adv-x="270" 
d="M185 0h-100v681h100v-681zM139 750l-153 141l51 51l152 -140z" />
    <glyph glyph-name="Iacute" unicode="&#xcd;" horiz-adv-x="270" 
d="M185 0h-100v681h100v-681zM125 750l-50 52l152 140l51 -51z" />
    <glyph glyph-name="Icircumflex" unicode="&#xce;" horiz-adv-x="270" 
d="M185 0h-100v681h100v-681zM64 751l-59 49l128 143l128 -143l-59 -49l-99 117h60z" />
    <glyph glyph-name="Idieresis" unicode="&#xcf;" horiz-adv-x="270" 
d="M185 0h-100v681h100v-681zM207 759q-30 0 -47.5 18.5t-17.5 46.5q0 29 17.5 47.5t47.5 18.5q29 0 47 -18.5t18 -47.5q0 -28 -18 -46.5t-47 -18.5zM63 759q-30 0 -47.5 18.5t-17.5 46.5q0 29 17.5 47.5t47.5 18.5q29 0 47 -18.5t18 -47.5q0 -28 -18 -46.5t-47 -18.5z" />
    <glyph glyph-name="Eth" unicode="&#xd0;" horiz-adv-x="721" 
d="M106 0v681h224q98 0 175 -41t121 -117.5t44 -183.5q0 -109 -44.5 -184.5t-121.5 -115t-175 -39.5h-223zM26 294v92h335v-92h-335zM206 72l-30 22h148q67 0 121.5 26.5t87.5 80.5t33 138q0 81 -32.5 136.5t-87 83.5t-121.5 28h-156l37 36v-551z" />
    <glyph glyph-name="Ntilde" unicode="&#xd1;" horiz-adv-x="739" 
d="M569 0l-440 571l56 16v-587h-100v681h85l425 -551h-41v551h100v-681h-85zM437 768q-37 0 -77 28q-17 12 -28 17.5t-23 5.5q-30 0 -50 -45l-67 33q20 42 47 65t66 23q24 0 45.5 -7.5t44.5 -24.5q12 -8 22.5 -13.5t20.5 -5.5q17 0 26 11t21 40l67 -33q-16 -43 -43 -68.5
t-72 -25.5z" />
    <glyph glyph-name="Ograve" unicode="&#xd2;" horiz-adv-x="765" 
d="M30 340q0 76 26.5 140t74.5 111t112.5 73t140.5 26q75 0 139 -26t111.5 -73t74 -111t26.5 -140q0 -75 -26.5 -139t-74 -111.5t-111.5 -73.5t-139 -26q-76 0 -140.5 26t-112.5 73.5t-74.5 111.5t-26.5 139zM132 340q0 -73 33 -130.5t90 -90.5t129 -33t128 33t88.5 90.5
t32.5 130.5q0 74 -32.5 131t-88.5 90t-128 33t-129 -33t-90 -90t-33 -131zM386 750l-153 141l51 51l152 -140z" />
    <glyph glyph-name="Oacute" unicode="&#xd3;" horiz-adv-x="765" 
d="M30 340q0 76 26.5 140t74.5 111t112.5 73t140.5 26q75 0 139 -26t111.5 -73t74 -111t26.5 -140q0 -75 -26.5 -139t-74 -111.5t-111.5 -73.5t-139 -26q-76 0 -140.5 26t-112.5 73.5t-74.5 111.5t-26.5 139zM132 340q0 -73 33 -130.5t90 -90.5t129 -33t128 33t88.5 90.5
t32.5 130.5q0 74 -32.5 131t-88.5 90t-128 33t-129 -33t-90 -90t-33 -131zM372 750l-50 52l152 140l51 -51z" />
    <glyph glyph-name="Ocircumflex" unicode="&#xd4;" horiz-adv-x="765" 
d="M30 340q0 76 26.5 140t74.5 111t112.5 73t140.5 26q75 0 139 -26t111.5 -73t74 -111t26.5 -140q0 -75 -26.5 -139t-74 -111.5t-111.5 -73.5t-139 -26q-76 0 -140.5 26t-112.5 73.5t-74.5 111.5t-26.5 139zM132 340q0 -73 33 -130.5t90 -90.5t129 -33t128 33t88.5 90.5
t32.5 130.5q0 74 -32.5 131t-88.5 90t-128 33t-129 -33t-90 -90t-33 -131zM289 751l-51 51l142 140l143 -140l-51 -51l-123 125l64 -1z" />
    <glyph glyph-name="Otilde" unicode="&#xd5;" horiz-adv-x="765" 
d="M30 340q0 76 26.5 140t74.5 111t112.5 73t140.5 26q75 0 139 -26t111.5 -73t74 -111t26.5 -140q0 -75 -26.5 -139t-74 -111.5t-111.5 -73.5t-139 -26q-76 0 -140.5 26t-112.5 73.5t-74.5 111.5t-26.5 139zM132 340q0 -73 33 -130.5t90 -90.5t129 -33t128 33t88.5 90.5
t32.5 130.5q0 74 -32.5 131t-88.5 90t-128 33t-129 -33t-90 -90t-33 -131zM447 768q-37 0 -77 28q-17 12 -28 17.5t-23 5.5q-30 0 -50 -45l-67 33q20 42 47 65t66 23q24 0 45.5 -7.5t44.5 -24.5q12 -8 22.5 -13.5t20.5 -5.5q17 0 26 11t21 40l67 -33q-16 -43 -43 -68.5
t-72 -25.5z" />
    <glyph glyph-name="Odieresis" unicode="&#xd6;" horiz-adv-x="765" 
d="M30 340q0 76 26.5 140t74.5 111t112.5 73t140.5 26q75 0 139 -26t111.5 -73t74 -111t26.5 -140q0 -75 -26.5 -139t-74 -111.5t-111.5 -73.5t-139 -26q-76 0 -140.5 26t-112.5 73.5t-74.5 111.5t-26.5 139zM132 340q0 -73 33 -130.5t90 -90.5t129 -33t128 33t88.5 90.5
t32.5 130.5q0 74 -32.5 131t-88.5 90t-128 33t-129 -33t-90 -90t-33 -131zM222 824q0 29 17.5 47.5t47.5 18.5q29 0 47 -18.5t18 -47.5q0 -28 -18 -46.5t-47 -18.5q-30 0 -47.5 18.5t-17.5 46.5zM412 824q0 29 17.5 47.5t47.5 18.5q29 0 47 -18.5t18 -47.5q0 -28 -18 -46.5
t-47 -18.5q-30 0 -47.5 18.5t-17.5 46.5z" />
    <glyph glyph-name="multiply" unicode="&#xd7;" horiz-adv-x="670" 
d="M552 185l-61 -61l-372 372l61 61zM119 185l372 372l61 -61l-372 -372z" />
    <glyph glyph-name="Oslash" unicode="&#xd8;" horiz-adv-x="765" 
d="M696 672l-571 -715l-70 51l573 716zM30 340q0 76 26.5 140t74.5 111t112.5 73t140.5 26q75 0 139 -26t111.5 -73t74 -111t26.5 -140q0 -75 -26.5 -139t-74 -111.5t-111.5 -73.5t-139 -26q-76 0 -140.5 26t-112.5 73.5t-74.5 111.5t-26.5 139zM132 340q0 -73 33 -130.5
t90 -90.5t129 -33t128 33t88.5 90.5t32.5 130.5q0 74 -32.5 131t-88.5 90t-128 33t-129 -33t-90 -90t-33 -131z" />
    <glyph glyph-name="Ugrave" unicode="&#xd9;" horiz-adv-x="688" 
d="M344 -10q-77 0 -136.5 30t-93.5 89.5t-34 146.5v425h100v-410q0 -88 42.5 -136.5t121.5 -48.5q80 0 122 48.5t42 136.5v410h100v-425q0 -87 -34 -146.5t-93.5 -89.5t-136.5 -30zM348 750l-153 141l51 51l152 -140z" />
    <glyph glyph-name="Uacute" unicode="&#xda;" horiz-adv-x="688" 
d="M344 -10q-77 0 -136.5 30t-93.5 89.5t-34 146.5v425h100v-410q0 -88 42.5 -136.5t121.5 -48.5q80 0 122 48.5t42 136.5v410h100v-425q0 -87 -34 -146.5t-93.5 -89.5t-136.5 -30zM334 750l-50 52l152 140l51 -51z" />
    <glyph glyph-name="Ucircumflex" unicode="&#xdb;" horiz-adv-x="688" 
d="M344 -10q-77 0 -136.5 30t-93.5 89.5t-34 146.5v425h100v-410q0 -88 42.5 -136.5t121.5 -48.5q80 0 122 48.5t42 136.5v410h100v-425q0 -87 -34 -146.5t-93.5 -89.5t-136.5 -30zM251 751l-51 51l142 140l143 -140l-51 -51l-123 125l64 -1z" />
    <glyph glyph-name="Udieresis" unicode="&#xdc;" horiz-adv-x="688" 
d="M344 -10q-77 0 -136.5 30t-93.5 89.5t-34 146.5v425h100v-410q0 -88 42.5 -136.5t121.5 -48.5q80 0 122 48.5t42 136.5v410h100v-425q0 -87 -34 -146.5t-93.5 -89.5t-136.5 -30zM184 824q0 29 17.5 47.5t47.5 18.5q29 0 47 -18.5t18 -47.5q0 -28 -18 -46.5t-47 -18.5
q-30 0 -47.5 18.5t-17.5 46.5zM374 824q0 29 17.5 47.5t47.5 18.5q29 0 47 -18.5t18 -47.5q0 -28 -18 -46.5t-47 -18.5q-30 0 -47.5 18.5t-17.5 46.5z" />
    <glyph glyph-name="Yacute" unicode="&#xdd;" horiz-adv-x="553" 
d="M307 288h-64l198 393h112l-242 -458l15 86v-309h-100v309l14 -86l-240 458h111zM266 750l-50 52l152 140l51 -51z" />
    <glyph glyph-name="Thorn" unicode="&#xde;" horiz-adv-x="588" 
d="M85 0v681h100v-681h-100zM167 110v94h141q66 0 106 36t40 100q0 68 -40 102t-106 34h-142v94h159q70 0 122.5 -31t81.5 -83t29 -116t-29 -116.5t-81.5 -83t-122.5 -30.5h-158z" />
    <glyph glyph-name="germandbls" unicode="&#xdf;" horiz-adv-x="551" 
d="M367 -15q-48 0 -94.5 23t-77.5 77l72 56q20 -37 43 -53.5t57 -16.5q28 0 45 14.5t17 38.5q0 20 -17 42.5t-70 59.5q-40 29 -62.5 58.5t-22.5 63.5q0 39 17.5 63t43.5 47q18 16 32 32t14 38q0 28 -23 47t-67 19q-49 0 -79.5 -32.5t-30.5 -93.5v-468h-100v468q0 65 25 115
t72 78.5t114 28.5q59 0 102.5 -22.5t67 -59t23.5 -79.5q0 -48 -22.5 -75.5t-46.5 -47.5q-17 -14 -29 -28t-12 -32q0 -16 13 -30t47 -39q52 -36 77.5 -73.5t25.5 -81.5q0 -61 -43.5 -99t-110.5 -38z" />
    <glyph glyph-name="agrave" unicode="&#xe0;" horiz-adv-x="492" 
d="M216 -14q-57 0 -98 20t-62.5 57.5t-21.5 89.5q0 48 22 85.5t63 59.5t97 22q70 0 112.5 -31.5t59.5 -86.5h-56v125q0 31 -21 57t-74 26q-28 0 -61.5 -6.5t-69.5 -22.5l-30 77q41 20 85 30t86 10q63 0 104 -23t61 -61.5t20 -86.5v-327h-72l-25 89l53 15q-18 -59 -64 -88.5
t-108 -29.5zM234 75q44 0 71 20.5t27 57.5q0 38 -27 58t-71 20t-71 -20t-27 -58q0 -37 27 -57.5t71 -20.5zM247 557l-153 141l51 51l152 -140z" />
    <glyph glyph-name="aacute" unicode="&#xe1;" horiz-adv-x="492" 
d="M216 -14q-57 0 -98 20t-62.5 57.5t-21.5 89.5q0 48 22 85.5t63 59.5t97 22q70 0 112.5 -31.5t59.5 -86.5h-56v125q0 31 -21 57t-74 26q-28 0 -61.5 -6.5t-69.5 -22.5l-30 77q41 20 85 30t86 10q63 0 104 -23t61 -61.5t20 -86.5v-327h-72l-25 89l53 15q-18 -59 -64 -88.5
t-108 -29.5zM234 75q44 0 71 20.5t27 57.5q0 38 -27 58t-71 20t-71 -20t-27 -58q0 -37 27 -57.5t71 -20.5zM233 557l-50 52l152 140l51 -51z" />
    <glyph glyph-name="acircumflex" unicode="&#xe2;" horiz-adv-x="492" 
d="M216 -14q-57 0 -98 20t-62.5 57.5t-21.5 89.5q0 48 22 85.5t63 59.5t97 22q70 0 112.5 -31.5t59.5 -86.5h-56v125q0 31 -21 57t-74 26q-28 0 -61.5 -6.5t-69.5 -22.5l-30 77q41 20 85 30t86 10q63 0 104 -23t61 -61.5t20 -86.5v-327h-72l-25 89l53 15q-18 -59 -64 -88.5
t-108 -29.5zM234 75q44 0 71 20.5t27 57.5q0 38 -27 58t-71 20t-71 -20t-27 -58q0 -37 27 -57.5t71 -20.5zM150 558l-51 51l142 140l143 -140l-51 -51l-123 125l64 -1z" />
    <glyph glyph-name="atilde" unicode="&#xe3;" horiz-adv-x="492" 
d="M216 -14q-57 0 -98 20t-62.5 57.5t-21.5 89.5q0 48 22 85.5t63 59.5t97 22q70 0 112.5 -31.5t59.5 -86.5h-56v125q0 31 -21 57t-74 26q-28 0 -61.5 -6.5t-69.5 -22.5l-30 77q41 20 85 30t86 10q63 0 104 -23t61 -61.5t20 -86.5v-327h-72l-25 89l53 15q-18 -59 -64 -88.5
t-108 -29.5zM234 75q44 0 71 20.5t27 57.5q0 38 -27 58t-71 20t-71 -20t-27 -58q0 -37 27 -57.5t71 -20.5zM308 575q-37 0 -77 28q-17 12 -28 17.5t-23 5.5q-30 0 -50 -45l-67 33q20 42 47 65t66 23q24 0 45.5 -7.5t44.5 -24.5q12 -8 22.5 -13.5t20.5 -5.5q17 0 26 11t21 40
l67 -33q-16 -43 -43 -68.5t-72 -25.5z" />
    <glyph glyph-name="adieresis" unicode="&#xe4;" horiz-adv-x="492" 
d="M216 -14q-57 0 -98 20t-62.5 57.5t-21.5 89.5q0 48 22 85.5t63 59.5t97 22q70 0 112.5 -31.5t59.5 -86.5h-56v125q0 31 -21 57t-74 26q-28 0 -61.5 -6.5t-69.5 -22.5l-30 77q41 20 85 30t86 10q63 0 104 -23t61 -61.5t20 -86.5v-327h-72l-25 89l53 15q-18 -59 -64 -88.5
t-108 -29.5zM234 75q44 0 71 20.5t27 57.5q0 38 -27 58t-71 20t-71 -20t-27 -58q0 -37 27 -57.5t71 -20.5zM83 631q0 29 17.5 47.5t47.5 18.5q29 0 47 -18.5t18 -47.5q0 -28 -18 -46.5t-47 -18.5q-30 0 -47.5 18.5t-17.5 46.5zM273 631q0 29 17.5 47.5t47.5 18.5
q29 0 47 -18.5t18 -47.5q0 -28 -18 -46.5t-47 -18.5q-30 0 -47.5 18.5t-17.5 46.5z" />
    <glyph glyph-name="aring" unicode="&#xe5;" horiz-adv-x="492" 
d="M216 -14q-57 0 -98 20t-62.5 57.5t-21.5 89.5q0 48 22 85.5t63 59.5t97 22q70 0 112.5 -31.5t59.5 -86.5h-56v125q0 31 -21 57t-74 26q-28 0 -61.5 -6.5t-69.5 -22.5l-30 77q41 20 85 30t86 10q63 0 104 -23t61 -61.5t20 -86.5v-327h-72l-25 89l53 15q-18 -59 -64 -88.5
t-108 -29.5zM234 75q44 0 71 20.5t27 57.5q0 38 -27 58t-71 20t-71 -20t-27 -58q0 -37 27 -57.5t71 -20.5zM243 559q-29 0 -53.5 13.5t-39 37t-14.5 52.5q0 30 14.5 54t39 37.5t53.5 13.5q30 0 54 -13.5t38.5 -37.5t14.5 -54q0 -29 -14.5 -52.5t-38.5 -37t-54 -13.5z
M242 624q17 0 28 11t11 27q0 17 -11 28t-28 11q-16 0 -27 -11t-11 -28q0 -16 11 -27t27 -11z" />
    <glyph glyph-name="ae" unicode="&#xe6;" horiz-adv-x="769" 
d="M216 -14q-86 0 -134 44t-48 123q0 48 22 85.5t63 59.5t97 22q64 0 102.5 -31.5t54.5 -86.5h-46v125q0 31 -21 57t-74 26q-28 0 -61.5 -6.5t-69.5 -22.5l-30 77q41 20 85 30t86 10q61 0 101 -23t59.5 -61.5t19.5 -86.5v-238h-92l63 15q-18 -59 -65 -88.5t-112 -29.5z
M234 75q44 0 71 20.5t27 57.5q0 38 -27 58t-71 20t-71 -20t-27 -58q0 -37 27 -57.5t71 -20.5zM546 -10q-68 0 -118 31.5t-76.5 88.5t-26.5 133q0 77 26.5 134t74.5 89t111 32q66 0 111 -27.5t68 -80t23 -127.5q0 -13 -0.5 -25t-1.5 -23h-322v76h250l-28 -18q4 69 -23 106.5
t-77 37.5q-52 0 -83 -36t-31 -107v-52q0 -67 31.5 -106.5t91.5 -39.5q44 0 71.5 21.5t43.5 65.5l75 -47q-23 -63 -74 -94.5t-116 -31.5z" />
    <glyph glyph-name="ccedilla" unicode="&#xe7;" horiz-adv-x="509" 
d="M279 -10q-75 0 -130 32.5t-85 89.5t-30 132t30 132t85 89.5t130 32.5q71 0 129 -38.5t84 -102.5l-95 -40q-16 42 -48 63.5t-73 21.5q-60 0 -100 -41.5t-40 -116.5t40 -116.5t100 -41.5q41 0 73 21.5t48 63.5l95 -40q-27 -64 -84.5 -102.5t-128.5 -38.5zM270 -203
q-33 0 -59 8t-46 21l27 48q13 -8 31 -14.5t39 -6.5q26 0 38 9t12 23q0 12 -11.5 19.5t-42.5 7.5h-48l19 88h62l-13 -69l-19 31q60 0 87.5 -20t27.5 -56q0 -42 -27 -65.5t-77 -23.5z" />
    <glyph glyph-name="egrave" unicode="&#xe8;" horiz-adv-x="543" 
d="M273 -10q-71 0 -125 31.5t-84 88.5t-30 133q0 77 30 134t84 89t125 32q72 0 126 -32t84 -89t30 -134q0 -7 -0.5 -14.5t-1.5 -13.5h-382v86h310l-28 -58q0 76 -34 125t-104 49q-62 0 -99 -39.5t-37 -103.5v-52q0 -67 36 -106.5t100 -39.5q59 0 91 25t56 62l75 -47
q-34 -63 -87.5 -94.5t-134.5 -31.5zM278 557l-153 141l51 51l152 -140z" />
    <glyph glyph-name="eacute" unicode="&#xe9;" horiz-adv-x="543" 
d="M273 -10q-71 0 -125 31.5t-84 88.5t-30 133q0 77 30 134t84 89t125 32q72 0 126 -32t84 -89t30 -134q0 -7 -0.5 -14.5t-1.5 -13.5h-382v86h310l-28 -58q0 76 -34 125t-104 49q-62 0 -99 -39.5t-37 -103.5v-52q0 -67 36 -106.5t100 -39.5q59 0 91 25t56 62l75 -47
q-34 -63 -87.5 -94.5t-134.5 -31.5zM264 557l-50 52l152 140l51 -51z" />
    <glyph glyph-name="ecircumflex" unicode="&#xea;" horiz-adv-x="543" 
d="M273 -10q-71 0 -125 31.5t-84 88.5t-30 133q0 77 30 134t84 89t125 32q72 0 126 -32t84 -89t30 -134q0 -7 -0.5 -14.5t-1.5 -13.5h-382v86h310l-28 -58q0 76 -34 125t-104 49q-62 0 -99 -39.5t-37 -103.5v-52q0 -67 36 -106.5t100 -39.5q59 0 91 25t56 62l75 -47
q-34 -63 -87.5 -94.5t-134.5 -31.5zM181 558l-51 51l142 140l143 -140l-51 -51l-123 125l64 -1z" />
    <glyph glyph-name="edieresis" unicode="&#xeb;" horiz-adv-x="543" 
d="M273 -10q-71 0 -125 31.5t-84 88.5t-30 133q0 77 30 134t84 89t125 32q72 0 126 -32t84 -89t30 -134q0 -7 -0.5 -14.5t-1.5 -13.5h-382v86h310l-28 -58q0 76 -34 125t-104 49q-62 0 -99 -39.5t-37 -103.5v-52q0 -67 36 -106.5t100 -39.5q59 0 91 25t56 62l75 -47
q-34 -63 -87.5 -94.5t-134.5 -31.5zM114 631q0 29 17.5 47.5t47.5 18.5q29 0 47 -18.5t18 -47.5q0 -28 -18 -46.5t-47 -18.5q-30 0 -47.5 18.5t-17.5 46.5zM304 631q0 29 17.5 47.5t47.5 18.5q29 0 47 -18.5t18 -47.5q0 -28 -18 -46.5t-47 -18.5q-30 0 -47.5 18.5
t-17.5 46.5z" />
    <glyph glyph-name="igrave" unicode="&#xec;" horiz-adv-x="232" 
d="M166 0h-100v488h100v-488zM120 557l-153 141l51 51l152 -140z" />
    <glyph glyph-name="iacute" unicode="&#xed;" horiz-adv-x="232" 
d="M166 0h-100v488h100v-488zM106 557l-50 52l152 140l51 -51z" />
    <glyph glyph-name="icircumflex" unicode="&#xee;" horiz-adv-x="232" 
d="M166 0h-100v488h100v-488zM45 558l-59 49l128 143l128 -143l-59 -49l-99 117h60z" />
    <glyph glyph-name="idieresis" unicode="&#xef;" horiz-adv-x="232" 
d="M166 0h-100v488h100v-488zM188 566q-30 0 -47.5 18.5t-17.5 46.5q0 29 17.5 47.5t47.5 18.5q29 0 47 -18.5t18 -47.5q0 -28 -18 -46.5t-47 -18.5zM44 566q-30 0 -47.5 18.5t-17.5 46.5q0 29 17.5 47.5t47.5 18.5q29 0 47 -18.5t18 -47.5q0 -28 -18 -46.5t-47 -18.5z" />
    <glyph glyph-name="eth" unicode="&#xf0;" horiz-adv-x="553" 
d="M274 -10q-68 0 -120.5 30.5t-81.5 83t-29 118.5q0 71 29 123t78 80.5t109 28.5t102 -28.5t61 -74.5h1q-10 59 -47 114t-103 98.5t-162 65.5l35 81l25 -7q68 -19 122.5 -49t96 -70.5t69 -89.5t41.5 -105.5t14 -118.5q0 -88 -29.5 -151t-83.5 -96t-127 -33zM279 84
q58 0 96 39t38 99t-38 99t-96 39t-96 -39t-38 -99t38 -99t96 -39zM218 479l-45 57l92 72l31 32l93 73l43 -58l-79 -62l-42 -40z" />
    <glyph glyph-name="ntilde" unicode="&#xf1;" horiz-adv-x="551" 
d="M343 498q52 0 82 -17.5t44 -47t18 -66.5t4 -76v-291h-100v312q0 52 -23.5 70t-55.5 18t-65 -13t-59 -35t-40 -49v56h16v-359h-100v488h76l21 -86l-25 -3q28 32 61 54t70 33.5t76 11.5zM342 575q-37 0 -77 28q-17 12 -28 17.5t-23 5.5q-30 0 -50 -45l-67 33q20 42 47 65
t66 23q24 0 45.5 -7.5t44.5 -24.5q12 -8 22.5 -13.5t20.5 -5.5q17 0 26 11t21 40l67 -33q-16 -43 -43 -68.5t-72 -25.5z" />
    <glyph glyph-name="ograve" unicode="&#xf2;" horiz-adv-x="569" 
d="M284 -10q-74 0 -130.5 31.5t-87.5 88.5t-31 133q0 77 31 134t87.5 89t130.5 32q75 0 131 -32t87.5 -89t31.5 -134q0 -76 -31.5 -133t-87.5 -88.5t-131 -31.5zM284 86q67 0 107.5 43.5t40.5 113.5q0 71 -40.5 115t-107.5 44q-66 0 -106.5 -43.5t-40.5 -114.5t40.5 -114.5
t106.5 -43.5zM288 557l-153 141l51 51l152 -140z" />
    <glyph glyph-name="oacute" unicode="&#xf3;" horiz-adv-x="569" 
d="M284 -10q-74 0 -130.5 31.5t-87.5 88.5t-31 133q0 77 31 134t87.5 89t130.5 32q75 0 131 -32t87.5 -89t31.5 -134q0 -76 -31.5 -133t-87.5 -88.5t-131 -31.5zM284 86q67 0 107.5 43.5t40.5 113.5q0 71 -40.5 115t-107.5 44q-66 0 -106.5 -43.5t-40.5 -114.5t40.5 -114.5
t106.5 -43.5zM274 557l-50 52l152 140l51 -51z" />
    <glyph glyph-name="ocircumflex" unicode="&#xf4;" horiz-adv-x="569" 
d="M284 -10q-74 0 -130.5 31.5t-87.5 88.5t-31 133q0 77 31 134t87.5 89t130.5 32q75 0 131 -32t87.5 -89t31.5 -134q0 -76 -31.5 -133t-87.5 -88.5t-131 -31.5zM284 86q67 0 107.5 43.5t40.5 113.5q0 71 -40.5 115t-107.5 44q-66 0 -106.5 -43.5t-40.5 -114.5t40.5 -114.5
t106.5 -43.5zM191 558l-51 51l142 140l143 -140l-51 -51l-123 125l64 -1z" />
    <glyph glyph-name="otilde" unicode="&#xf5;" horiz-adv-x="569" 
d="M284 -10q-74 0 -130.5 31.5t-87.5 88.5t-31 133q0 77 31 134t87.5 89t130.5 32q75 0 131 -32t87.5 -89t31.5 -134q0 -76 -31.5 -133t-87.5 -88.5t-131 -31.5zM284 86q67 0 107.5 43.5t40.5 113.5q0 71 -40.5 115t-107.5 44q-66 0 -106.5 -43.5t-40.5 -114.5t40.5 -114.5
t106.5 -43.5zM349 575q-37 0 -77 28q-17 12 -28 17.5t-23 5.5q-30 0 -50 -45l-67 33q20 42 47 65t66 23q24 0 45.5 -7.5t44.5 -24.5q12 -8 22.5 -13.5t20.5 -5.5q17 0 26 11t21 40l67 -33q-16 -43 -43 -68.5t-72 -25.5z" />
    <glyph glyph-name="odieresis" unicode="&#xf6;" horiz-adv-x="569" 
d="M284 -10q-74 0 -130.5 31.5t-87.5 88.5t-31 133q0 77 31 134t87.5 89t130.5 32q75 0 131 -32t87.5 -89t31.5 -134q0 -76 -31.5 -133t-87.5 -88.5t-131 -31.5zM284 86q67 0 107.5 43.5t40.5 113.5q0 71 -40.5 115t-107.5 44q-66 0 -106.5 -43.5t-40.5 -114.5t40.5 -114.5
t106.5 -43.5zM124 631q0 29 17.5 47.5t47.5 18.5q29 0 47 -18.5t18 -47.5q0 -28 -18 -46.5t-47 -18.5q-30 0 -47.5 18.5t-17.5 46.5zM314 631q0 29 17.5 47.5t47.5 18.5q29 0 47 -18.5t18 -47.5q0 -28 -18 -46.5t-47 -18.5q-30 0 -47.5 18.5t-17.5 46.5z" />
    <glyph glyph-name="divide" unicode="&#xf7;" horiz-adv-x="670" 
d="M333 85q-31 0 -52 22t-21 51t21 50.5t52 21.5t52 -21.5t21 -50.5t-21 -51t-52 -22zM333 451q-31 0 -52 22t-21 51t21 50.5t52 21.5t52 -21.5t21 -50.5t-21 -51t-52 -22zM580 296h-489v90h489v-90z" />
    <glyph glyph-name="oslash" unicode="&#xf8;" horiz-adv-x="593" 
d="M296 -10q-74 0 -130.5 31.5t-87.5 88.5t-31 133q0 77 31 134t87.5 89t130.5 32q75 0 131 -32t87.5 -89t31.5 -134q0 -76 -31.5 -133t-87.5 -88.5t-131 -31.5zM296 81q69 0 111 44.5t42 117.5q0 74 -42 119t-111 45q-68 0 -110 -44.5t-42 -118.5q0 -73 42 -118t110 -45z
M131 -28l-64 46l396 511l62 -47z" />
    <glyph glyph-name="ugrave" unicode="&#xf9;" horiz-adv-x="551" 
d="M218 -10q-55 0 -87 17.5t-47 47t-19.5 66.5t-4.5 76v291h100v-312q0 -52 23.5 -70t55.5 -18q33 0 65.5 13t59 35.5t39.5 48.5v-56h-16v359h100v-488h-76l-21 86l25 3q-26 -31 -58 -53.5t-67 -34t-72 -11.5zM278 557l-153 141l51 51l152 -140z" />
    <glyph glyph-name="uacute" unicode="&#xfa;" horiz-adv-x="551" 
d="M218 -10q-55 0 -87 17.5t-47 47t-19.5 66.5t-4.5 76v291h100v-312q0 -52 23.5 -70t55.5 -18q33 0 65.5 13t59 35.5t39.5 48.5v-56h-16v359h100v-488h-76l-21 86l25 3q-26 -31 -58 -53.5t-67 -34t-72 -11.5zM264 557l-50 52l152 140l51 -51z" />
    <glyph glyph-name="ucircumflex" unicode="&#xfb;" horiz-adv-x="551" 
d="M218 -10q-55 0 -87 17.5t-47 47t-19.5 66.5t-4.5 76v291h100v-312q0 -52 23.5 -70t55.5 -18q33 0 65.5 13t59 35.5t39.5 48.5v-56h-16v359h100v-488h-76l-21 86l25 3q-26 -31 -58 -53.5t-67 -34t-72 -11.5zM181 558l-51 51l142 140l143 -140l-51 -51l-123 125l64 -1z" />
    <glyph glyph-name="udieresis" unicode="&#xfc;" horiz-adv-x="551" 
d="M218 -10q-55 0 -87 17.5t-47 47t-19.5 66.5t-4.5 76v291h100v-312q0 -52 23.5 -70t55.5 -18q33 0 65.5 13t59 35.5t39.5 48.5v-56h-16v359h100v-488h-76l-21 86l25 3q-26 -31 -58 -53.5t-67 -34t-72 -11.5zM114 631q0 29 17.5 47.5t47.5 18.5q29 0 47 -18.5t18 -47.5
q0 -28 -18 -46.5t-47 -18.5q-30 0 -47.5 18.5t-17.5 46.5zM304 631q0 29 17.5 47.5t47.5 18.5q29 0 47 -18.5t18 -47.5q0 -28 -18 -46.5t-47 -18.5q-30 0 -47.5 18.5t-17.5 46.5z" />
    <glyph glyph-name="yacute" unicode="&#xfd;" horiz-adv-x="502" 
d="M208 62l-193 426h105l171 -377zM80 -190l308 678h105l-308 -678h-105zM244 557l-50 52l152 140l51 -51z" />
    <glyph glyph-name="thorn" unicode="&#xfe;" horiz-adv-x="570" 
d="M311 -10q-66 0 -115 31.5t-76.5 88.5t-27.5 133q0 77 27.5 134t76.5 89t115 32q68 0 118.5 -32t78.5 -89t28 -134q0 -76 -28 -133t-78.5 -88.5t-118.5 -31.5zM64 -190v871h100v-291h-10v-278h10v-302h-100zM296 76q62 0 100 46t38 121q0 76 -38 122.5t-100 46.5
q-61 0 -99 -46t-38 -122t38 -122t99 -46z" />
    <glyph glyph-name="ydieresis" unicode="&#xff;" horiz-adv-x="502" 
d="M208 62l-193 426h105l171 -377zM80 -190l308 678h105l-308 -678h-105zM94 631q0 29 17.5 47.5t47.5 18.5q29 0 47 -18.5t18 -47.5q0 -28 -18 -46.5t-47 -18.5q-30 0 -47.5 18.5t-17.5 46.5zM284 631q0 29 17.5 47.5t47.5 18.5q29 0 47 -18.5t18 -47.5q0 -28 -18 -46.5
t-47 -18.5q-30 0 -47.5 18.5t-17.5 46.5z" />
    <glyph glyph-name="Amacron" unicode="&#x100;" horiz-adv-x="662" 
d="M148 253h367v-94h-367v94zM20 0l243 681h136l243 -681h-102l-218 611h18l-218 -611h-102zM467 777h-271v70h271v-70z" />
    <glyph glyph-name="amacron" unicode="&#x101;" horiz-adv-x="492" 
d="M216 -14q-57 0 -98 20t-62.5 57.5t-21.5 89.5q0 48 22 85.5t63 59.5t97 22q70 0 112.5 -31.5t59.5 -86.5h-56v125q0 31 -21 57t-74 26q-28 0 -61.5 -6.5t-69.5 -22.5l-30 77q41 20 85 30t86 10q63 0 104 -23t61 -61.5t20 -86.5v-327h-72l-25 89l53 15q-18 -59 -64 -88.5
t-108 -29.5zM234 75q44 0 71 20.5t27 57.5q0 38 -27 58t-71 20t-71 -20t-27 -58q0 -37 27 -57.5t71 -20.5zM379 584h-271v70h271v-70z" />
    <glyph glyph-name="Abreve" unicode="&#x102;" horiz-adv-x="662" 
d="M148 253h367v-94h-367v94zM20 0l243 681h136l243 -681h-102l-218 611h18l-218 -611h-102zM331 773q-58 0 -93.5 34t-40.5 94h69q2 -28 16.5 -49t48.5 -21t49 21t17 49h69q-4 -60 -40 -94t-95 -34z" />
    <glyph glyph-name="abreve" unicode="&#x103;" horiz-adv-x="492" 
d="M216 -14q-57 0 -98 20t-62.5 57.5t-21.5 89.5q0 48 22 85.5t63 59.5t97 22q70 0 112.5 -31.5t59.5 -86.5h-56v125q0 31 -21 57t-74 26q-28 0 -61.5 -6.5t-69.5 -22.5l-30 77q41 20 85 30t86 10q63 0 104 -23t61 -61.5t20 -86.5v-327h-72l-25 89l53 15q-18 -59 -64 -88.5
t-108 -29.5zM234 75q44 0 71 20.5t27 57.5q0 38 -27 58t-71 20t-71 -20t-27 -58q0 -37 27 -57.5t71 -20.5zM243 580q-58 0 -93.5 34t-40.5 94h69q2 -28 16.5 -49t48.5 -21t49 21t17 49h69q-4 -60 -40 -94t-95 -34z" />
    <glyph glyph-name="Aogonek" unicode="&#x104;" horiz-adv-x="662" 
d="M148 253h367v-94h-367v94zM20 0l243 681h136l243 -681h-102l-218 611h18l-218 -611h-102zM587 -227q-43 0 -72 20.5t-29 69.5q0 38 24.5 77.5t62.5 64.5l69 -5q-39 -25 -62 -56.5t-23 -61.5q0 -41 44 -41q10 0 21.5 3t18.5 6l9 -63q-9 -5 -26 -9.5t-37 -4.5z" />
    <glyph glyph-name="aogonek" unicode="&#x105;" horiz-adv-x="492" 
d="M216 -14q-57 0 -98 20t-62.5 57.5t-21.5 89.5q0 48 22 85.5t63 59.5t97 22q70 0 112.5 -31.5t59.5 -86.5h-56v125q0 31 -21 57t-74 26q-28 0 -61.5 -6.5t-69.5 -22.5l-30 77q41 20 85 30t86 10q63 0 104 -23t61 -61.5t20 -86.5v-327q-39 -25 -62 -56.5t-23 -61.5
q0 -41 44 -41q10 0 21.5 3t18.5 6l9 -63q-9 -5 -26 -9.5t-37 -4.5q-43 0 -72 20.5t-29 69.5q0 38 24 77t62 64l5 -4h-7l-25 89l53 15q-18 -59 -64 -88.5t-108 -29.5zM234 75q44 0 71 20.5t27 57.5q0 38 -27 58t-71 20t-71 -20t-27 -58q0 -37 27 -57.5t71 -20.5z" />
    <glyph glyph-name="Cacute" unicode="&#x106;" horiz-adv-x="710" 
d="M374 -10q-103 0 -180.5 45.5t-120.5 125t-43 179.5q0 76 26 140t72.5 111t109 73t136.5 26q116 0 190 -47.5t121 -127.5l-98 -29q-46 63 -98.5 85.5t-114.5 22.5q-69 0 -123.5 -33t-86.5 -90t-32 -131q0 -73 32 -130.5t86.5 -90.5t123.5 -33q62 0 114.5 22.5t98.5 85.5
l98 -29q-47 -80 -121 -127.5t-190 -47.5zM362 750l-50 52l152 140l51 -51z" />
    <glyph glyph-name="cacute" unicode="&#x107;" horiz-adv-x="509" 
d="M279 -10q-75 0 -130 32.5t-85 89.5t-30 132t30 132t85 89.5t130 32.5q71 0 129 -38.5t84 -102.5l-95 -40q-16 42 -48 63.5t-73 21.5q-60 0 -100 -41.5t-40 -116.5t40 -116.5t100 -41.5q41 0 73 21.5t48 63.5l95 -40q-27 -64 -84.5 -102.5t-128.5 -38.5zM261 557l-50 52
l152 140l51 -51z" />
    <glyph glyph-name="Cdotaccent" unicode="&#x10a;" horiz-adv-x="710" 
d="M374 -10q-103 0 -180.5 45.5t-120.5 125t-43 179.5q0 76 26 140t72.5 111t109 73t136.5 26q116 0 190 -47.5t121 -127.5l-98 -29q-46 63 -98.5 85.5t-114.5 22.5q-69 0 -123.5 -33t-86.5 -90t-32 -131q0 -73 32 -130.5t86.5 -90.5t123.5 -33q62 0 114.5 22.5t98.5 85.5
l98 -29q-47 -80 -121 -127.5t-190 -47.5zM307 831q0 29 17.5 47.5t47.5 18.5q29 0 47 -18.5t18 -47.5q0 -28 -18 -46.5t-47 -18.5q-30 0 -47.5 18.5t-17.5 46.5z" />
    <glyph glyph-name="cdotaccent" unicode="&#x10b;" horiz-adv-x="509" 
d="M279 -10q-75 0 -130 32.5t-85 89.5t-30 132t30 132t85 89.5t130 32.5q71 0 129 -38.5t84 -102.5l-95 -40q-16 42 -48 63.5t-73 21.5q-60 0 -100 -41.5t-40 -116.5t40 -116.5t100 -41.5q41 0 73 21.5t48 63.5l95 -40q-27 -64 -84.5 -102.5t-128.5 -38.5zM206 638
q0 29 17.5 47.5t47.5 18.5q29 0 47 -18.5t18 -47.5q0 -28 -18 -46.5t-47 -18.5q-30 0 -47.5 18.5t-17.5 46.5z" />
    <glyph glyph-name="Ccaron" unicode="&#x10c;" horiz-adv-x="710" 
d="M374 -10q-103 0 -180.5 45.5t-120.5 125t-43 179.5q0 76 26 140t72.5 111t109 73t136.5 26q116 0 190 -47.5t121 -127.5l-98 -29q-46 63 -98.5 85.5t-114.5 22.5q-69 0 -123.5 -33t-86.5 -90t-32 -131q0 -73 32 -130.5t86.5 -90.5t123.5 -33q62 0 114.5 22.5t98.5 85.5
l98 -29q-47 -80 -121 -127.5t-190 -47.5zM372 751l-143 140l51 51l123 -125l-64 1l124 124l51 -51z" />
    <glyph glyph-name="ccaron" unicode="&#x10d;" horiz-adv-x="509" 
d="M279 -10q-75 0 -130 32.5t-85 89.5t-30 132t30 132t85 89.5t130 32.5q71 0 129 -38.5t84 -102.5l-95 -40q-16 42 -48 63.5t-73 21.5q-60 0 -100 -41.5t-40 -116.5t40 -116.5t100 -41.5q41 0 73 21.5t48 63.5l95 -40q-27 -64 -84.5 -102.5t-128.5 -38.5zM271 558l-143 140
l51 51l123 -125l-64 1l124 124l51 -51z" />
    <glyph glyph-name="Dcaron" unicode="&#x10e;" horiz-adv-x="679" 
d="M85 0v681h224q98 0 175 -41t121 -117.5t44 -183.5q0 -109 -44.5 -184.5t-121.5 -115t-175 -39.5h-223zM185 72l-30 22h148q67 0 121.5 26.5t87.5 80.5t33 138q0 81 -32.5 136.5t-87 83.5t-121.5 28h-156l37 36v-551zM332 751l-143 140l51 51l123 -125l-64 1l124 124
l51 -51z" />
    <glyph glyph-name="dcaron" unicode="&#x10f;" horiz-adv-x="641" 
d="M259 -10q-67 0 -118 32t-79 89.5t-28 133.5t28 133t79 88.5t118 31.5q66 0 115 -31.5t76.5 -88.5t27.5 -133t-27.5 -133.5t-76.5 -89.5t-115 -32zM274 76q62 0 99.5 46t37.5 122t-37.5 122t-99.5 46t-100 -46t-38 -121q0 -76 38 -122.5t100 -46.5zM430 0l-24 98h10v278
h-10v305h100v-681h-76zM641 681v-56l-22 -142h-60v198h82z" />
    <glyph glyph-name="Dcroat" unicode="&#x110;" horiz-adv-x="721" 
d="M106 0v681h224q98 0 175 -41t121 -117.5t44 -183.5q0 -109 -44.5 -184.5t-121.5 -115t-175 -39.5h-223zM26 294v92h335v-92h-335zM206 72l-30 22h148q67 0 121.5 26.5t87.5 80.5t33 138q0 81 -32.5 136.5t-87 83.5t-121.5 28h-156l37 36v-551z" />
    <glyph glyph-name="dcroat" unicode="&#x111;" horiz-adv-x="570" 
d="M259 -10q-67 0 -118 32t-79 89.5t-28 133.5t28 133t79 88.5t118 31.5q44 0 81.5 -15t65.5 -42v99h-112v78h112v63h100v-63h80v-78h-80v-540h-76l-14 58q-28 -32 -68.5 -50t-88.5 -18zM136 245q0 -76 38 -122.5t100 -46.5t99.5 46t37.5 122t-37.5 122t-99.5 46t-100 -46
t-38 -121z" />
    <glyph glyph-name="Emacron" unicode="&#x112;" horiz-adv-x="554" 
d="M165 295v94h275v-94h-275zM162 587l23 32v-540l-28 16h342v-95h-414v681h414v-94h-337zM428 777h-271v70h271v-70z" />
    <glyph glyph-name="emacron" unicode="&#x113;" horiz-adv-x="543" 
d="M273 -10q-71 0 -125 31.5t-84 88.5t-30 133q0 77 30 134t84 89t125 32q72 0 126 -32t84 -89t30 -134q0 -7 -0.5 -14.5t-1.5 -13.5h-382v86h310l-28 -58q0 76 -34 125t-104 49q-62 0 -99 -39.5t-37 -103.5v-52q0 -67 36 -106.5t100 -39.5q59 0 91 25t56 62l75 -47
q-34 -63 -87.5 -94.5t-134.5 -31.5zM410 584h-271v70h271v-70z" />
    <glyph glyph-name="Edotaccent" unicode="&#x116;" horiz-adv-x="554" 
d="M165 295v94h275v-94h-275zM162 587l23 32v-540l-28 16h342v-95h-414v681h414v-94h-337zM227 831q0 29 17.5 47.5t47.5 18.5q29 0 47 -18.5t18 -47.5q0 -28 -18 -46.5t-47 -18.5q-30 0 -47.5 18.5t-17.5 46.5z" />
    <glyph glyph-name="edotaccent" unicode="&#x117;" horiz-adv-x="543" 
d="M273 -10q-71 0 -125 31.5t-84 88.5t-30 133q0 77 30 134t84 89t125 32q72 0 126 -32t84 -89t30 -134q0 -7 -0.5 -14.5t-1.5 -13.5h-382v86h310l-28 -58q0 76 -34 125t-104 49q-62 0 -99 -39.5t-37 -103.5v-52q0 -67 36 -106.5t100 -39.5q59 0 91 25t56 62l75 -47
q-34 -63 -87.5 -94.5t-134.5 -31.5zM209 638q0 29 17.5 47.5t47.5 18.5q29 0 47 -18.5t18 -47.5q0 -28 -18 -46.5t-47 -18.5q-30 0 -47.5 18.5t-17.5 46.5z" />
    <glyph glyph-name="Eogonek" unicode="&#x118;" horiz-adv-x="554" 
d="M165 295v94h275v-94h-275zM162 587l23 32v-540l-28 16h342v-95h-414v681h414v-94h-337zM444 -227q-43 0 -72 20.5t-29 69.5q0 38 24.5 77.5t62.5 64.5l69 -5q-39 -25 -62 -56.5t-23 -61.5q0 -41 44 -41q10 0 21.5 3t18.5 6l9 -63q-9 -5 -26 -9.5t-37 -4.5z" />
    <glyph glyph-name="eogonek" unicode="&#x119;" horiz-adv-x="543" 
d="M260 -10q-68 3 -119 35t-79 88t-28 130q0 77 30 134t84 89t125 32q72 0 126 -32t84 -89t30 -134q0 -7 -0.5 -14.5t-1.5 -13.5h-374q2 -64 38 -101.5t98 -37.5q59 0 91 25t56 62l75 -47q-51 -96 -150 -119q-37 -24 -59 -55t-22 -60q0 -41 44 -41q10 0 21.5 3t18.5 6l9 -63
q-9 -5 -26 -9.5t-37 -4.5q-43 0 -72 20.5t-29 69.5q0 33 18.5 67.5t48.5 59.5zM139 301h266q-10 53 -43 84.5t-89 31.5q-55 0 -90.5 -31.5t-43.5 -84.5z" />
    <glyph glyph-name="Ecaron" unicode="&#x11a;" horiz-adv-x="554" 
d="M165 295v94h275v-94h-275zM162 587l23 32v-540l-28 16h342v-95h-414v681h414v-94h-337zM292 751l-143 140l51 51l123 -125l-64 1l124 124l51 -51z" />
    <glyph glyph-name="ecaron" unicode="&#x11b;" horiz-adv-x="543" 
d="M273 -10q-71 0 -125 31.5t-84 88.5t-30 133q0 77 30 134t84 89t125 32q72 0 126 -32t84 -89t30 -134q0 -7 -0.5 -14.5t-1.5 -13.5h-382v86h310l-28 -58q0 76 -34 125t-104 49q-62 0 -99 -39.5t-37 -103.5v-52q0 -67 36 -106.5t100 -39.5q59 0 91 25t56 62l75 -47
q-34 -63 -87.5 -94.5t-134.5 -31.5zM274 558l-143 140l51 51l123 -125l-64 1l124 124l51 -51z" />
    <glyph glyph-name="Gbreve" unicode="&#x11e;" horiz-adv-x="728" 
d="M374 -10q-103 0 -180.5 45.5t-120.5 125t-43 179.5q0 76 26 140t72.5 111t109 73t136.5 26q116 0 190 -47.5t121 -127.5l-98 -29q-46 63 -98.5 85.5t-114.5 22.5q-69 0 -123.5 -33t-86.5 -90t-32 -131q0 -73 32 -130.5t86.5 -90.5t123.5 -33q66 0 120.5 29.5t86.5 80.5
t32 116l15 -58h-260v94h334q3 -10 4.5 -23t1.5 -25q0 -64 -25 -120t-70.5 -99t-106 -67t-132.5 -24zM376 773q-58 0 -93.5 34t-40.5 94h69q2 -28 16.5 -49t48.5 -21t49 21t17 49h69q-4 -60 -40 -94t-95 -34z" />
    <glyph glyph-name="gbreve" unicode="&#x11f;" horiz-adv-x="575" 
d="M279 -198q-42 0 -79.5 11.5t-68 37.5t-54.5 69l-7 13l79 43q26 -43 55.5 -64.5t74.5 -21.5q61 0 96.5 38t35.5 117v104h10v241h-10l24 98h76v-427q0 -86 -30.5 -144t-82.5 -86.5t-119 -28.5zM267 30q-68 0 -119.5 29t-80 81.5t-28.5 122.5q0 71 28.5 123.5t80 82
t119.5 29.5q65 0 113.5 -29.5t75.5 -82t27 -123.5q0 -70 -27 -122.5t-75.5 -81.5t-113.5 -29zM279 116q62 0 99.5 40.5t37.5 107.5t-37.5 107.5t-99.5 40.5t-100 -41t-38 -108q0 -66 38 -106.5t100 -40.5zM283 580q-58 0 -93.5 34t-40.5 94h69q2 -28 16.5 -49t48.5 -21
t49 21t17 49h69q-4 -60 -40 -94t-95 -34z" />
    <glyph glyph-name="Gdotaccent" unicode="&#x120;" horiz-adv-x="728" 
d="M374 -10q-103 0 -180.5 45.5t-120.5 125t-43 179.5q0 76 26 140t72.5 111t109 73t136.5 26q116 0 190 -47.5t121 -127.5l-98 -29q-46 63 -98.5 85.5t-114.5 22.5q-69 0 -123.5 -33t-86.5 -90t-32 -131q0 -73 32 -130.5t86.5 -90.5t123.5 -33q66 0 120.5 29.5t86.5 80.5
t32 116l15 -58h-260v94h334q3 -10 4.5 -23t1.5 -25q0 -64 -25 -120t-70.5 -99t-106 -67t-132.5 -24zM311 831q0 29 17.5 47.5t47.5 18.5q29 0 47 -18.5t18 -47.5q0 -28 -18 -46.5t-47 -18.5q-30 0 -47.5 18.5t-17.5 46.5z" />
    <glyph glyph-name="gdotaccent" unicode="&#x121;" horiz-adv-x="575" 
d="M279 -198q-42 0 -79.5 11.5t-68 37.5t-54.5 69l-7 13l79 43q26 -43 55.5 -64.5t74.5 -21.5q61 0 96.5 38t35.5 117v104h10v241h-10l24 98h76v-427q0 -86 -30.5 -144t-82.5 -86.5t-119 -28.5zM267 30q-68 0 -119.5 29t-80 81.5t-28.5 122.5q0 71 28.5 123.5t80 82
t119.5 29.5q65 0 113.5 -29.5t75.5 -82t27 -123.5q0 -70 -27 -122.5t-75.5 -81.5t-113.5 -29zM279 116q62 0 99.5 40.5t37.5 107.5t-37.5 107.5t-99.5 40.5t-100 -41t-38 -108q0 -66 38 -106.5t100 -40.5zM218 638q0 29 17.5 47.5t47.5 18.5q29 0 47 -18.5t18 -47.5
q0 -28 -18 -46.5t-47 -18.5q-30 0 -47.5 18.5t-17.5 46.5z" />
    <glyph glyph-name="uni0122" unicode="&#x122;" horiz-adv-x="728" 
d="M374 -10q-103 0 -180.5 45.5t-120.5 125t-43 179.5q0 76 26 140t72.5 111t109 73t136.5 26q116 0 190 -47.5t121 -127.5l-98 -29q-46 63 -98.5 85.5t-114.5 22.5q-69 0 -123.5 -33t-86.5 -90t-32 -131q0 -73 32 -130.5t86.5 -90.5t123.5 -33q66 0 120.5 29.5t86.5 80.5
t32 116l15 -58h-260v94h334q3 -10 4.5 -23t1.5 -25q0 -64 -25 -120t-70.5 -99t-106 -67t-132.5 -24zM309 -292l-6 26q35 11 49 33t14 48q0 39 -23 63t-44 36q14 20 28.5 29t37.5 9q29 0 55 -24t26 -69q0 -40 -20 -72.5t-51.5 -53t-65.5 -25.5z" />
    <glyph glyph-name="uni0123" unicode="&#x123;" horiz-adv-x="575" 
d="M279 -198q-42 0 -79.5 11.5t-68 37.5t-54.5 69l-7 13l79 43q26 -43 55.5 -64.5t74.5 -21.5q61 0 96.5 38t35.5 117v104h10v241h-10l24 98h76v-427q0 -86 -30.5 -144t-82.5 -86.5t-119 -28.5zM267 30q-68 0 -119.5 29t-80 81.5t-28.5 122.5q0 71 28.5 123.5t80 82
t119.5 29.5q65 0 113.5 -29.5t75.5 -82t27 -123.5q0 -70 -27 -122.5t-75.5 -81.5t-113.5 -29zM279 116q62 0 99.5 40.5t37.5 107.5t-37.5 107.5t-99.5 40.5t-100 -41t-38 -108q0 -66 38 -106.5t100 -40.5zM290 547q-29 0 -55 24t-26 69q0 40 20 72.5t51.5 53t65.5 25.5
l6 -26q-35 -11 -49 -33t-14 -48q0 -39 23 -63t44 -36q-13 -20 -28 -29t-38 -9z" />
    <glyph glyph-name="Hbar" unicode="&#x126;" horiz-adv-x="698" 
d="M513 0v681h100v-681h-100zM85 0v681h100v-681h-100zM151 286v94h392v-94h-392zM693 503h-688v78h688v-78z" />
    <glyph glyph-name="hbar" unicode="&#x127;" horiz-adv-x="551" 
d="M64 0v540h-80v78h80v63h100v-63h112v-78h-112v-113q38 35 84 53t95 18q52 0 82 -17.5t44 -47t18 -66.5t4 -76v-291h-100v312q0 52 -23.5 70t-55.5 18q-41 0 -81.5 -20.5t-66.5 -52.5v-327h-100z" />
    <glyph glyph-name="Imacron" unicode="&#x12a;" horiz-adv-x="270" 
d="M185 0h-100v681h100v-681zM241 777h-211v70h211v-70z" />
    <glyph glyph-name="imacron" unicode="&#x12b;" horiz-adv-x="232" 
d="M166 0h-100v488h100v-488zM222 584h-211v70h211v-70z" />
    <glyph glyph-name="Iogonek" unicode="&#x12e;" horiz-adv-x="270" 
d="M185 0h-100v681h100v-681zM130 -227q-43 0 -72 20.5t-29 69.5q0 38 24.5 77.5t62.5 64.5l69 -5q-39 -25 -62 -56.5t-23 -61.5q0 -41 44 -41q10 0 21.5 3t18.5 6l9 -63q-9 -5 -26 -9.5t-37 -4.5z" />
    <glyph glyph-name="iogonek" unicode="&#x12f;" horiz-adv-x="232" 
d="M166 0h-100v488h100v-488zM51 638q0 29 17.5 47.5t47.5 18.5q29 0 47 -18.5t18 -47.5q0 -28 -18 -46.5t-47 -18.5q-30 0 -47.5 18.5t-17.5 46.5zM111 -227q-43 0 -72 20.5t-29 69.5q0 38 24.5 77.5t62.5 64.5l69 -5q-39 -25 -62 -56.5t-23 -61.5q0 -41 44 -41
q10 0 21.5 3t18.5 6l9 -63q-9 -5 -26 -9.5t-37 -4.5z" />
    <glyph glyph-name="Idotaccent" unicode="&#x130;" horiz-adv-x="270" 
d="M185 0h-100v681h100v-681zM70 831q0 29 17.5 47.5t47.5 18.5q29 0 47 -18.5t18 -47.5q0 -28 -18 -46.5t-47 -18.5q-30 0 -47.5 18.5t-17.5 46.5z" />
    <glyph glyph-name="dotlessi" unicode="&#x131;" horiz-adv-x="232" 
d="M166 0h-100v488h100v-488z" />
    <glyph glyph-name="IJ" unicode="&#x132;" horiz-adv-x="800" 
d="M185 0h-100v681h100v-681zM518 79q49 0 74.5 29.5t25.5 80.5v492h102v-492q0 -61 -25 -107t-70.5 -71.5t-105.5 -25.5q-61 0 -106.5 23t-70.5 68t-25 110v41h102v-35q0 -59 26 -86t73 -27z" />
    <glyph glyph-name="ij" unicode="&#x133;" horiz-adv-x="468" 
d="M166 0h-100v488h100v-488zM51 638q0 29 17.5 47.5t47.5 18.5q29 0 47 -18.5t18 -47.5q0 -28 -18 -46.5t-47 -18.5q-30 0 -47.5 18.5t-17.5 46.5zM292 -194q-25 0 -40 4.5t-20 6.5v84q5 -1 13 -3t18 -2q20 0 30 13t10 35v544h100v-541q0 -38 -11.5 -70.5t-36 -51.5
t-63.5 -19zM288 638q0 29 17.5 47.5t47.5 18.5q29 0 47 -18.5t18 -47.5q0 -28 -18 -46.5t-47 -18.5q-30 0 -47.5 18.5t-17.5 46.5z" />
    <glyph glyph-name="uni0136" unicode="&#x136;" horiz-adv-x="611" 
d="M85 0v681h100v-681h-100zM471 0l-323 334v11l327 336h125l-361 -371l10 59l357 -369h-135zM264 -292l-6 26q35 11 49 33t14 48q0 39 -23 63t-44 36q14 20 28.5 29t37.5 9q29 0 55 -24t26 -69q0 -40 -20 -72.5t-51.5 -53t-65.5 -25.5z" />
    <glyph glyph-name="uni0137" unicode="&#x137;" horiz-adv-x="460" 
d="M138 246v14l212 228h118l-238 -261l-9 66l249 -293h-120zM64 681h98v-681h-98v681zM197 -292l-6 26q35 11 49 33t14 48q0 39 -23 63t-44 36q14 20 28.5 29t37.5 9q29 0 55 -24t26 -69q0 -40 -20 -72.5t-51.5 -53t-65.5 -25.5z" />
    <glyph glyph-name="Lacute" unicode="&#x139;" horiz-adv-x="504" 
d="M479 0h-394v681h100v-601l-12 14h306v-94zM125 750l-50 52l152 140l51 -51z" />
    <glyph glyph-name="lacute" unicode="&#x13a;" horiz-adv-x="247" 
d="M153 -5q-26 0 -46 12.5t-31.5 36.5t-11.5 59v578h98v-543q0 -31 15.5 -42t35.5 -11v-80q-13 -5 -28 -7.5t-32 -2.5zM103 750l-50 52l152 140l51 -51z" />
    <glyph glyph-name="uni013B" unicode="&#x13b;" horiz-adv-x="504" 
d="M479 0h-394v681h100v-601l-12 14h306v-94zM225 -292l-6 26q35 11 49 33t14 48q0 39 -23 63t-44 36q14 20 28.5 29t37.5 9q29 0 55 -24t26 -69q0 -40 -20 -72.5t-51.5 -53t-65.5 -25.5z" />
    <glyph glyph-name="uni013C" unicode="&#x13c;" horiz-adv-x="247" 
d="M153 -5q-26 0 -46 12.5t-31.5 36.5t-11.5 59v578h98v-543q0 -31 15.5 -42t35.5 -11v-80q-13 -5 -28 -7.5t-32 -2.5zM75 -292l-6 26q35 11 49 33t14 48q0 39 -23 63t-44 36q14 20 28.5 29t37.5 9q29 0 55 -24t26 -69q0 -40 -20 -72.5t-51.5 -53t-65.5 -25.5z" />
    <glyph glyph-name="Lcaron" unicode="&#x13d;" horiz-adv-x="504" 
d="M479 0h-394v681h100v-601l-12 14h306v-94zM362 681v-56l-22 -142h-60v198h82z" />
    <glyph glyph-name="lcaron" unicode="&#x13e;" horiz-adv-x="297" 
d="M153 -5q-26 0 -46 12.5t-31.5 36.5t-11.5 59v578h98v-543q0 -31 15.5 -42t35.5 -11v-80q-13 -5 -28 -7.5t-32 -2.5zM297 681v-56l-22 -142h-60v198h82z" />
    <glyph glyph-name="Lslash" unicode="&#x141;" horiz-adv-x="503" 
d="M39 252l-35 61l387 185l35 -61zM478 0h-394v681h100v-601l-12 14h306v-94z" />
    <glyph glyph-name="lslash" unicode="&#x142;" horiz-adv-x="263" 
d="M153 -5q-26 0 -46 12.5t-31.5 36.5t-11.5 59v173l-24 -14l-35 61l59 35v323h98v-264l63 38l35 -61l-98 -59v-197q0 -31 15.5 -42t35.5 -11v-80q-13 -5 -28 -7.5t-32 -2.5z" />
    <glyph glyph-name="Nacute" unicode="&#x143;" horiz-adv-x="739" 
d="M569 0l-440 571l56 16v-587h-100v681h85l425 -551h-41v551h100v-681h-85zM362 750l-50 52l152 140l51 -51z" />
    <glyph glyph-name="nacute" unicode="&#x144;" horiz-adv-x="551" 
d="M343 498q52 0 82 -17.5t44 -47t18 -66.5t4 -76v-291h-100v312q0 52 -23.5 70t-55.5 18t-65 -13t-59 -35t-40 -49v56h16v-359h-100v488h76l21 -86l-25 -3q28 32 61 54t70 33.5t76 11.5zM267 557l-50 52l152 140l51 -51z" />
    <glyph glyph-name="uni0145" unicode="&#x145;" horiz-adv-x="739" 
d="M569 0l-440 571l56 16v-587h-100v681h85l425 -551h-41v551h100v-681h-85zM307 -292l-6 26q35 11 49 33t14 48q0 39 -23 63t-44 36q14 20 28.5 29t37.5 9q29 0 55 -24t26 -69q0 -40 -20 -72.5t-51.5 -53t-65.5 -25.5z" />
    <glyph glyph-name="uni0146" unicode="&#x146;" horiz-adv-x="551" 
d="M343 498q52 0 82 -17.5t44 -47t18 -66.5t4 -76v-291h-100v312q0 52 -23.5 70t-55.5 18t-65 -13t-59 -35t-40 -49v56h16v-359h-100v488h76l21 -86l-25 -3q28 32 61 54t70 33.5t76 11.5zM213 -292l-6 26q35 11 49 33t14 48q0 39 -23 63t-44 36q14 20 28.5 29t37.5 9
q29 0 55 -24t26 -69q0 -40 -20 -72.5t-51.5 -53t-65.5 -25.5z" />
    <glyph glyph-name="Ncaron" unicode="&#x147;" horiz-adv-x="739" 
d="M569 0l-440 571l56 16v-587h-100v681h85l425 -551h-41v551h100v-681h-85zM372 751l-143 140l51 51l123 -125l-64 1l124 124l51 -51z" />
    <glyph glyph-name="ncaron" unicode="&#x148;" horiz-adv-x="551" 
d="M343 498q52 0 82 -17.5t44 -47t18 -66.5t4 -76v-291h-100v312q0 52 -23.5 70t-55.5 18t-65 -13t-59 -35t-40 -49v56h16v-359h-100v488h76l21 -86l-25 -3q28 32 61 54t70 33.5t76 11.5zM277 558l-143 140l51 51l123 -125l-64 1l124 124l51 -51z" />
    <glyph glyph-name="Eng" unicode="&#x14a;" horiz-adv-x="739" 
d="M85 0v681h85l384 -498v498h100v-718q0 -38 -11.5 -70.5t-36 -51.5t-63.5 -19q-25 0 -40 4.5t-20 6.5v84q5 -1 13 -3t18 -2q20 0 30 13t10 35v59l-369 479v-498h-100z" />
    <glyph glyph-name="eng" unicode="&#x14b;" horiz-adv-x="551" 
d="M380 -194q-25 0 -40 4.5t-20 6.5v84q5 -1 13 -3t18 -2q20 0 30 13t10 35v368q0 52 -23.5 70t-55.5 18t-65 -13t-59 -35t-40 -49v56h16v-359h-100v488h76l21 -86l-25 -3q28 32 61 54t70 33.5t76 11.5q52 0 82 -17.5t44 -47t18 -66.5t4 -76v-344q0 -38 -11.5 -70.5
t-36 -51.5t-63.5 -19z" />
    <glyph glyph-name="Omacron" unicode="&#x14c;" horiz-adv-x="765" 
d="M30 340q0 76 26.5 140t74.5 111t112.5 73t140.5 26q75 0 139 -26t111.5 -73t74 -111t26.5 -140q0 -75 -26.5 -139t-74 -111.5t-111.5 -73.5t-139 -26q-76 0 -140.5 26t-112.5 73.5t-74.5 111.5t-26.5 139zM132 340q0 -73 33 -130.5t90 -90.5t129 -33t128 33t88.5 90.5
t32.5 130.5q0 74 -32.5 131t-88.5 90t-128 33t-129 -33t-90 -90t-33 -131zM518 777h-271v70h271v-70z" />
    <glyph glyph-name="omacron" unicode="&#x14d;" horiz-adv-x="569" 
d="M284 -10q-74 0 -130.5 31.5t-87.5 88.5t-31 133q0 77 31 134t87.5 89t130.5 32q75 0 131 -32t87.5 -89t31.5 -134q0 -76 -31.5 -133t-87.5 -88.5t-131 -31.5zM284 86q67 0 107.5 43.5t40.5 113.5q0 71 -40.5 115t-107.5 44q-66 0 -106.5 -43.5t-40.5 -114.5t40.5 -114.5
t106.5 -43.5zM420 584h-271v70h271v-70z" />
    <glyph glyph-name="Ohungarumlaut" unicode="&#x150;" horiz-adv-x="765" 
d="M30 340q0 76 26.5 140t74.5 111t112.5 73t140.5 26q75 0 139 -26t111.5 -73t74 -111t26.5 -140q0 -75 -26.5 -139t-74 -111.5t-111.5 -73.5t-139 -26q-76 0 -140.5 26t-112.5 73.5t-74.5 111.5t-26.5 139zM132 340q0 -73 33 -130.5t90 -90.5t129 -33t128 33t88.5 90.5
t32.5 130.5q0 74 -32.5 131t-88.5 90t-128 33t-129 -33t-90 -90t-33 -131zM330 744l-65 28l81 178l67 -26zM469 744l-65 28l81 178l67 -26z" />
    <glyph glyph-name="ohungarumlaut" unicode="&#x151;" horiz-adv-x="569" 
d="M284 -10q-74 0 -130.5 31.5t-87.5 88.5t-31 133q0 77 31 134t87.5 89t130.5 32q75 0 131 -32t87.5 -89t31.5 -134q0 -76 -31.5 -133t-87.5 -88.5t-131 -31.5zM284 86q67 0 107.5 43.5t40.5 113.5q0 71 -40.5 115t-107.5 44q-66 0 -106.5 -43.5t-40.5 -114.5t40.5 -114.5
t106.5 -43.5zM232 551l-65 28l81 178l67 -26zM371 551l-65 28l81 178l67 -26z" />
    <glyph glyph-name="OE" unicode="&#x152;" horiz-adv-x="1042" 
d="M344 -10q-67 0 -124.5 26t-100 73.5t-66 111.5t-23.5 139q0 76 23.5 140t66 111.5t100 73.5t124.5 26t123.5 -26t98.5 -73.5t65.5 -111.5t23.5 -140q0 -75 -23.5 -139t-65.5 -111.5t-98.5 -73.5t-123.5 -26zM354 86q66 0 117.5 33t81.5 90.5t30 130.5q0 74 -30 131.5
t-81.5 90.5t-117.5 33q-63 0 -113.5 -33t-79.5 -90.5t-29 -131.5q0 -73 29 -130.5t79.5 -90.5t113.5 -33zM587 0v681h400v-94h-327l23 32v-541l-28 16h332v-94h-400zM663 295v94h265v-94h-265z" />
    <glyph glyph-name="oe" unicode="&#x153;" horiz-adv-x="903" 
d="M281 -10q-70 0 -122.5 31.5t-82 88.5t-29.5 133q0 77 29.5 134t82 89t122.5 32q71 0 123.5 -32t82 -89t29.5 -134q0 -76 -29.5 -133t-82 -88.5t-123.5 -31.5zM286 86q62 0 100 43.5t38 113.5q0 71 -38 115t-100 44q-61 0 -99 -43.5t-38 -114.5t38 -114.5t99 -43.5z
M648 -10q-65 0 -116 31.5t-79.5 88.5t-28.5 133q0 77 28.5 134t79.5 89t116 32q69 0 119.5 -32t78 -89t27.5 -134q0 -7 -0.5 -15t-1.5 -13h-362v86h290l-28 -58q0 76 -29 125t-94 49q-45 0 -74.5 -24t-43.5 -63.5t-14 -85.5q0 -43 14.5 -81.5t46 -62.5t81.5 -24q51 0 81 25
t51 62l75 -47q-32 -63 -86 -94.5t-131 -31.5z" />
    <glyph glyph-name="Racute" unicode="&#x154;" horiz-adv-x="620" 
d="M85 0v681h250q70 0 122.5 -29.5t81.5 -79.5t29 -112t-29 -112t-81.5 -79t-122.5 -29h-168v94h151q66 0 106 33.5t40 92.5q0 63 -40 95t-106 32h-152l19 23v-610h-100zM465 0l-159 283h110l159 -283h-110zM299 750l-50 52l152 140l51 -51z" />
    <glyph glyph-name="racute" unicode="&#x155;" horiz-adv-x="345" 
d="M140 488l24 -132v-356h-100v488h76zM149 315l-24 11v73l9 11q10 18 31.5 38.5t50.5 35t59 14.5q15 0 28.5 -2t20.5 -7v-90h-31q-68 0 -99 -20.5t-45 -63.5zM188 557l-50 52l152 140l51 -51z" />
    <glyph glyph-name="uni0156" unicode="&#x156;" horiz-adv-x="620" 
d="M85 0v681h250q70 0 122.5 -29.5t81.5 -79.5t29 -112t-29 -112t-81.5 -79t-122.5 -29h-168v94h151q66 0 106 33.5t40 92.5q0 63 -40 95t-106 32h-152l19 23v-610h-100zM465 0l-159 283h110l159 -283h-110zM256 -292l-6 26q35 11 49 33t14 48q0 39 -23 63t-44 36
q14 20 28.5 29t37.5 9q29 0 55 -24t26 -69q0 -40 -20 -72.5t-51.5 -53t-65.5 -25.5z" />
    <glyph glyph-name="uni0157" unicode="&#x157;" horiz-adv-x="345" 
d="M140 488l24 -132v-356h-100v488h76zM149 315l-24 11v73l9 11q10 18 31.5 38.5t50.5 35t59 14.5q15 0 28.5 -2t20.5 -7v-90h-31q-68 0 -99 -20.5t-45 -63.5zM49 -292l-6 26q35 11 49 33t14 48q0 39 -23 63t-44 36q14 20 28.5 29t37.5 9q29 0 55 -24t26 -69
q0 -40 -20 -72.5t-51.5 -53t-65.5 -25.5z" />
    <glyph glyph-name="Rcaron" unicode="&#x158;" horiz-adv-x="620" 
d="M85 0v681h250q70 0 122.5 -29.5t81.5 -79.5t29 -112t-29 -112t-81.5 -79t-122.5 -29h-168v94h151q66 0 106 33.5t40 92.5q0 63 -40 95t-106 32h-152l19 23v-610h-100zM465 0l-159 283h110l159 -283h-110zM309 751l-143 140l51 51l123 -125l-64 1l124 124l51 -51z" />
    <glyph glyph-name="rcaron" unicode="&#x159;" horiz-adv-x="345" 
d="M140 488l24 -132v-356h-100v488h76zM149 315l-24 11v73l9 11q10 18 31.5 38.5t50.5 35t59 14.5q15 0 28.5 -2t20.5 -7v-90h-31q-68 0 -99 -20.5t-45 -63.5zM198 558l-143 140l51 51l123 -125l-64 1l124 124l51 -51z" />
    <glyph glyph-name="Sacute" unicode="&#x15a;" horiz-adv-x="555" 
d="M295 -15q-53 0 -102.5 16t-90.5 52.5t-69 99.5l83 47q35 -63 77 -91t105 -28q61 0 92.5 27t31.5 74q0 28 -13.5 49t-47.5 39t-96 33q-78 20 -121.5 49.5t-60.5 68t-17 83.5q0 56 26 97.5t75 65t116 23.5q80 0 132 -30.5t88 -83.5l-84 -54q-31 38 -64.5 54.5t-71.5 16.5
q-58 0 -88.5 -23t-30.5 -66q0 -37 28.5 -64t111.5 -47q84 -21 131.5 -49.5t67 -68t19.5 -94.5t-28 -99t-79 -70.5t-120 -26.5zM276 750l-50 52l152 140l51 -51z" />
    <glyph glyph-name="sacute" unicode="&#x15b;" horiz-adv-x="432" 
d="M220 -10q-51 0 -100.5 24t-81.5 82l76 50q28 -37 53 -53.5t65 -16.5q32 0 49.5 16.5t17.5 40.5q0 16 -8.5 28t-29.5 22.5t-60 20.5q-72 19 -111 50t-39 98q0 40 20 73t58 53t90 20q62 0 106 -25.5t69 -60.5l-77 -57q-14 18 -41 35.5t-68 17.5q-25 0 -46 -14t-21 -39
t19.5 -40.5t71.5 -27.5q88 -21 125 -54.5t37 -88.5q0 -48 -24.5 -82.5t-64 -53t-85.5 -18.5zM210 557l-50 52l152 140l51 -51z" />
    <glyph glyph-name="Scedilla" unicode="&#x15e;" horiz-adv-x="555" 
d="M295 -15q-53 0 -102.5 16t-90.5 52.5t-69 99.5l83 47q35 -63 77 -91t105 -28q61 0 92.5 27t31.5 74q0 28 -13.5 49t-47.5 39t-96 33q-78 20 -121.5 49.5t-60.5 68t-17 83.5q0 56 26 97.5t75 65t116 23.5q80 0 132 -30.5t88 -83.5l-84 -54q-31 38 -64.5 54.5t-71.5 16.5
q-58 0 -88.5 -23t-30.5 -66q0 -37 28.5 -64t111.5 -47q84 -21 131.5 -49.5t67 -68t19.5 -94.5t-28 -99t-79 -70.5t-120 -26.5zM293 -203q-33 0 -59 8t-46 21l27 48q13 -8 31 -14.5t39 -6.5q26 0 38 9t12 23q0 12 -11.5 19.5t-42.5 7.5h-48l19 88h62l-13 -69l-19 31
q60 0 87.5 -20t27.5 -56q0 -42 -27 -65.5t-77 -23.5z" />
    <glyph glyph-name="scedilla" unicode="&#x15f;" horiz-adv-x="432" 
d="M220 -10q-51 0 -100.5 24t-81.5 82l76 50q28 -37 53 -53.5t65 -16.5q32 0 49.5 16.5t17.5 40.5q0 16 -8.5 28t-29.5 22.5t-60 20.5q-72 19 -111 50t-39 98q0 40 20 73t58 53t90 20q62 0 106 -25.5t69 -60.5l-77 -57q-14 18 -41 35.5t-68 17.5q-25 0 -46 -14t-21 -39
t19.5 -40.5t71.5 -27.5q88 -21 125 -54.5t37 -88.5q0 -48 -24.5 -82.5t-64 -53t-85.5 -18.5zM227 -203q-33 0 -59 8t-46 21l27 48q13 -8 31 -14.5t39 -6.5q26 0 38 9t12 23q0 12 -11.5 19.5t-42.5 7.5h-48l19 88h62l-13 -69l-19 31q60 0 87.5 -20t27.5 -56q0 -42 -27 -65.5
t-77 -23.5z" />
    <glyph glyph-name="Scaron" unicode="&#x160;" horiz-adv-x="555" 
d="M295 -15q-53 0 -102.5 16t-90.5 52.5t-69 99.5l83 47q35 -63 77 -91t105 -28q61 0 92.5 27t31.5 74q0 28 -13.5 49t-47.5 39t-96 33q-78 20 -121.5 49.5t-60.5 68t-17 83.5q0 56 26 97.5t75 65t116 23.5q80 0 132 -30.5t88 -83.5l-84 -54q-31 38 -64.5 54.5t-71.5 16.5
q-58 0 -88.5 -23t-30.5 -66q0 -37 28.5 -64t111.5 -47q84 -21 131.5 -49.5t67 -68t19.5 -94.5t-28 -99t-79 -70.5t-120 -26.5zM286 751l-143 140l51 51l123 -125l-64 1l124 124l51 -51z" />
    <glyph glyph-name="scaron" unicode="&#x161;" horiz-adv-x="432" 
d="M220 -10q-51 0 -100.5 24t-81.5 82l76 50q28 -37 53 -53.5t65 -16.5q32 0 49.5 16.5t17.5 40.5q0 16 -8.5 28t-29.5 22.5t-60 20.5q-72 19 -111 50t-39 98q0 40 20 73t58 53t90 20q62 0 106 -25.5t69 -60.5l-77 -57q-14 18 -41 35.5t-68 17.5q-25 0 -46 -14t-21 -39
t19.5 -40.5t71.5 -27.5q88 -21 125 -54.5t37 -88.5q0 -48 -24.5 -82.5t-64 -53t-85.5 -18.5zM220 558l-143 140l51 51l123 -125l-64 1l124 124l51 -51z" />
    <glyph glyph-name="Tcaron" unicode="&#x164;" horiz-adv-x="556" 
d="M223 0v606h100v-606h-100zM10 587v94h536v-94h-536zM273 751l-143 140l51 51l123 -125l-64 1l124 124l51 -51z" />
    <glyph glyph-name="tcaron" unicode="&#x165;" horiz-adv-x="359" 
d="M244 -9q-64 0 -101.5 37.5t-37.5 116.5v337v6l19 110h81v-455q0 -28 14.5 -42t36.5 -14q17 0 30 2t23 5v-93q-13 -4 -28.5 -7t-36.5 -3zM30 396v92h279v-92h-279zM340 739v-56l-22 -142h-60v198h82z" />
    <glyph glyph-name="Umacron" unicode="&#x16a;" horiz-adv-x="688" 
d="M344 -10q-77 0 -136.5 30t-93.5 89.5t-34 146.5v425h100v-410q0 -88 42.5 -136.5t121.5 -48.5q80 0 122 48.5t42 136.5v410h100v-425q0 -87 -34 -146.5t-93.5 -89.5t-136.5 -30zM480 777h-271v70h271v-70z" />
    <glyph glyph-name="umacron" unicode="&#x16b;" horiz-adv-x="551" 
d="M218 -10q-55 0 -87 17.5t-47 47t-19.5 66.5t-4.5 76v291h100v-312q0 -52 23.5 -70t55.5 -18q33 0 65.5 13t59 35.5t39.5 48.5v-56h-16v359h100v-488h-76l-21 86l25 3q-26 -31 -58 -53.5t-67 -34t-72 -11.5zM410 584h-271v70h271v-70z" />
    <glyph glyph-name="Ubreve" unicode="&#x16c;" horiz-adv-x="688" 
d="M344 -10q-77 0 -136.5 30t-93.5 89.5t-34 146.5v425h100v-410q0 -88 42.5 -136.5t121.5 -48.5q80 0 122 48.5t42 136.5v410h100v-425q0 -87 -34 -146.5t-93.5 -89.5t-136.5 -30zM344 773q-58 0 -93.5 34t-40.5 94h69q2 -28 16.5 -49t48.5 -21t49 21t17 49h69
q-4 -60 -40 -94t-95 -34z" />
    <glyph glyph-name="ubreve" unicode="&#x16d;" horiz-adv-x="551" 
d="M218 -10q-55 0 -87 17.5t-47 47t-19.5 66.5t-4.5 76v291h100v-312q0 -52 23.5 -70t55.5 -18q33 0 65.5 13t59 35.5t39.5 48.5v-56h-16v359h100v-488h-76l-21 86l25 3q-26 -31 -58 -53.5t-67 -34t-72 -11.5zM274 580q-58 0 -93.5 34t-40.5 94h69q2 -28 16.5 -49t48.5 -21
t49 21t17 49h69q-4 -60 -40 -94t-95 -34z" />
    <glyph glyph-name="Uring" unicode="&#x16e;" horiz-adv-x="688" 
d="M344 -10q-77 0 -136.5 30t-93.5 89.5t-34 146.5v425h100v-410q0 -88 42.5 -136.5t121.5 -48.5q80 0 122 48.5t42 136.5v410h100v-425q0 -87 -34 -146.5t-93.5 -89.5t-136.5 -30zM344 752q-29 0 -53.5 13.5t-39 37t-14.5 52.5q0 30 14.5 54t39 37.5t53.5 13.5
q30 0 54 -13.5t38.5 -37.5t14.5 -54q0 -29 -14.5 -52.5t-38.5 -37t-54 -13.5zM343 817q17 0 28 11t11 27q0 17 -11 28t-28 11q-16 0 -27 -11t-11 -28q0 -16 11 -27t27 -11z" />
    <glyph glyph-name="uring" unicode="&#x16f;" horiz-adv-x="551" 
d="M218 -10q-55 0 -87 17.5t-47 47t-19.5 66.5t-4.5 76v291h100v-312q0 -52 23.5 -70t55.5 -18q33 0 65.5 13t59 35.5t39.5 48.5v-56h-16v359h100v-488h-76l-21 86l25 3q-26 -31 -58 -53.5t-67 -34t-72 -11.5zM274 559q-29 0 -53.5 13.5t-39 37t-14.5 52.5q0 30 14.5 54
t39 37.5t53.5 13.5q30 0 54 -13.5t38.5 -37.5t14.5 -54q0 -29 -14.5 -52.5t-38.5 -37t-54 -13.5zM273 624q17 0 28 11t11 27q0 17 -11 28t-28 11q-16 0 -27 -11t-11 -28q0 -16 11 -27t27 -11z" />
    <glyph glyph-name="Uhungarumlaut" unicode="&#x170;" horiz-adv-x="688" 
d="M344 -10q-77 0 -136.5 30t-93.5 89.5t-34 146.5v425h100v-410q0 -88 42.5 -136.5t121.5 -48.5q80 0 122 48.5t42 136.5v410h100v-425q0 -87 -34 -146.5t-93.5 -89.5t-136.5 -30zM292 744l-65 28l81 178l67 -26zM431 744l-65 28l81 178l67 -26z" />
    <glyph glyph-name="uhungarumlaut" unicode="&#x171;" horiz-adv-x="551" 
d="M218 -10q-55 0 -87 17.5t-47 47t-19.5 66.5t-4.5 76v291h100v-312q0 -52 23.5 -70t55.5 -18q33 0 65.5 13t59 35.5t39.5 48.5v-56h-16v359h100v-488h-76l-21 86l25 3q-26 -31 -58 -53.5t-67 -34t-72 -11.5zM222 551l-65 28l81 178l67 -26zM361 551l-65 28l81 178l67 -26z
" />
    <glyph glyph-name="Uogonek" unicode="&#x172;" horiz-adv-x="688" 
d="M334 -10q-74 2 -131.5 32.5t-90 89.5t-32.5 144v425h100v-410q0 -88 42.5 -136.5t121.5 -48.5q80 0 122 48.5t42 136.5v410h100v-425q0 -108 -51.5 -173t-136.5 -85q-37 -25 -59.5 -56t-22.5 -60q0 -41 44 -41q10 0 21.5 3t18.5 6l9 -63q-9 -5 -26 -9.5t-37 -4.5
q-43 0 -72 20.5t-29 69.5q0 33 18.5 67.5t48.5 59.5z" />
    <glyph glyph-name="uogonek" unicode="&#x173;" horiz-adv-x="551" 
d="M218 -10q-55 0 -87 17.5t-47 47t-19.5 66.5t-4.5 76v291h100v-312q0 -52 23.5 -70t55.5 -18q41 0 82 21t66 52v327h100v-488q-39 -25 -62 -56.5t-23 -61.5q0 -41 44 -41q10 0 21.5 3t18.5 6l9 -63q-9 -5 -26 -9.5t-37 -4.5q-43 0 -72 20.5t-29 69.5q0 37 22.5 74.5
t57.5 62.5l-16 67q-37 -37 -82.5 -57t-94.5 -20z" />
    <glyph glyph-name="Wcircumflex" unicode="&#x174;" horiz-adv-x="966" 
d="M644 0l-187 607l-23 74h98l191 -631l-44 10l166 621h101l-185 -681h-117zM205 0l-185 681h101l166 -621l-44 -10l191 631h98l-23 -74l-187 -607h-117zM390 751l-51 51l142 140l143 -140l-51 -51l-123 125l64 -1z" />
    <glyph glyph-name="wcircumflex" unicode="&#x175;" horiz-adv-x="729" 
d="M167 0l-154 488h100l101 -359h-9l114 359h91l114 -359h-9l101 359h100l-154 -488h-85l-121 381h17l-121 -381h-85zM272 558l-51 51l142 140l143 -140l-51 -51l-123 125l64 -1z" />
    <glyph glyph-name="Ycircumflex" unicode="&#x176;" horiz-adv-x="553" 
d="M307 288h-64l198 393h112l-242 -458l15 86v-309h-100v309l14 -86l-240 458h111zM183 751l-51 51l142 140l143 -140l-51 -51l-123 125l64 -1z" />
    <glyph glyph-name="ycircumflex" unicode="&#x177;" horiz-adv-x="502" 
d="M208 62l-193 426h105l171 -377zM80 -190l308 678h105l-308 -678h-105zM161 558l-51 51l142 140l143 -140l-51 -51l-123 125l64 -1z" />
    <glyph glyph-name="Ydieresis" unicode="&#x178;" horiz-adv-x="553" 
d="M307 288h-64l198 393h112l-242 -458l15 86v-309h-100v309l14 -86l-240 458h111zM116 824q0 29 17.5 47.5t47.5 18.5q29 0 47 -18.5t18 -47.5q0 -28 -18 -46.5t-47 -18.5q-30 0 -47.5 18.5t-17.5 46.5zM306 824q0 29 17.5 47.5t47.5 18.5q29 0 47 -18.5t18 -47.5
q0 -28 -18 -46.5t-47 -18.5q-30 0 -47.5 18.5t-17.5 46.5z" />
    <glyph glyph-name="Zacute" unicode="&#x179;" horiz-adv-x="557" 
d="M415 615v-28h-357v94h454v-86l-363 -531l-3 30h371v-94h-467v87zM281 750l-50 52l152 140l51 -51z" />
    <glyph glyph-name="zacute" unicode="&#x17a;" horiz-adv-x="453" 
d="M415 92v-92h-377v78l282 361l33 -43h-309v92h367v-78l-283 -361l-61 43h348zM218 557l-50 52l152 140l51 -51z" />
    <glyph glyph-name="Zdotaccent" unicode="&#x17b;" horiz-adv-x="557" 
d="M415 615v-28h-357v94h454v-86l-363 -531l-3 30h371v-94h-467v87zM226 831q0 29 17.5 47.5t47.5 18.5q29 0 47 -18.5t18 -47.5q0 -28 -18 -46.5t-47 -18.5q-30 0 -47.5 18.5t-17.5 46.5z" />
    <glyph glyph-name="zdotaccent" unicode="&#x17c;" horiz-adv-x="453" 
d="M415 92v-92h-377v78l282 361l33 -43h-309v92h367v-78l-283 -361l-61 43h348zM163 638q0 29 17.5 47.5t47.5 18.5q29 0 47 -18.5t18 -47.5q0 -28 -18 -46.5t-47 -18.5q-30 0 -47.5 18.5t-17.5 46.5z" />
    <glyph glyph-name="Zcaron" unicode="&#x17d;" horiz-adv-x="557" 
d="M415 615v-28h-357v94h454v-86l-363 -531l-3 30h371v-94h-467v87zM291 751l-143 140l51 51l123 -125l-64 1l124 124l51 -51z" />
    <glyph glyph-name="zcaron" unicode="&#x17e;" horiz-adv-x="453" 
d="M415 92v-92h-377v78l282 361l33 -43h-309v92h367v-78l-283 -361l-61 43h348zM228 558l-143 140l51 51l123 -125l-64 1l124 124l51 -51z" />
    <glyph glyph-name="uni01CD" unicode="&#x1cd;" horiz-adv-x="662" 
d="M148 253h367v-94h-367v94zM20 0l243 681h136l243 -681h-102l-218 611h18l-218 -611h-102zM331 751l-143 140l51 51l123 -125l-64 1l124 124l51 -51z" />
    <glyph glyph-name="uni01CE" unicode="&#x1ce;" horiz-adv-x="492" 
d="M216 -14q-57 0 -98 20t-62.5 57.5t-21.5 89.5q0 48 22 85.5t63 59.5t97 22q70 0 112.5 -31.5t59.5 -86.5h-56v125q0 31 -21 57t-74 26q-28 0 -61.5 -6.5t-69.5 -22.5l-30 77q41 20 85 30t86 10q63 0 104 -23t61 -61.5t20 -86.5v-327h-72l-25 89l53 15q-18 -59 -64 -88.5
t-108 -29.5zM234 75q44 0 71 20.5t27 57.5q0 38 -27 58t-71 20t-71 -20t-27 -58q0 -37 27 -57.5t71 -20.5zM243 558l-143 140l51 51l123 -125l-64 1l124 124l51 -51z" />
    <glyph glyph-name="uni0218" unicode="&#x218;" horiz-adv-x="555" 
d="M295 -15q-53 0 -102.5 16t-90.5 52.5t-69 99.5l83 47q35 -63 77 -91t105 -28q61 0 92.5 27t31.5 74q0 28 -13.5 49t-47.5 39t-96 33q-78 20 -121.5 49.5t-60.5 68t-17 83.5q0 56 26 97.5t75 65t116 23.5q80 0 132 -30.5t88 -83.5l-84 -54q-31 38 -64.5 54.5t-71.5 16.5
q-58 0 -88.5 -23t-30.5 -66q0 -37 28.5 -64t111.5 -47q84 -21 131.5 -49.5t67 -68t19.5 -94.5t-28 -99t-79 -70.5t-120 -26.5zM229 -292l-6 26q35 11 49 33t14 48q0 39 -23 63t-44 36q14 20 28.5 29t37.5 9q29 0 55 -24t26 -69q0 -40 -20 -72.5t-51.5 -53t-65.5 -25.5z" />
    <glyph glyph-name="uni0219" unicode="&#x219;" horiz-adv-x="432" 
d="M220 -10q-51 0 -100.5 24t-81.5 82l76 50q28 -37 53 -53.5t65 -16.5q32 0 49.5 16.5t17.5 40.5q0 16 -8.5 28t-29.5 22.5t-60 20.5q-72 19 -111 50t-39 98q0 40 20 73t58 53t90 20q62 0 106 -25.5t69 -60.5l-77 -57q-14 18 -41 35.5t-68 17.5q-25 0 -46 -14t-21 -39
t19.5 -40.5t71.5 -27.5q88 -21 125 -54.5t37 -88.5q0 -48 -24.5 -82.5t-64 -53t-85.5 -18.5zM163 -292l-6 26q35 11 49 33t14 48q0 39 -23 63t-44 36q14 20 28.5 29t37.5 9q29 0 55 -24t26 -69q0 -40 -20 -72.5t-51.5 -53t-65.5 -25.5z" />
    <glyph glyph-name="uni021A" unicode="&#x21a;" horiz-adv-x="556" 
d="M223 0v606h100v-606h-100zM10 587v94h536v-94h-536zM208 -292l-6 26q35 11 49 33t14 48q0 39 -23 63t-44 36q14 20 28.5 29t37.5 9q29 0 55 -24t26 -69q0 -40 -20 -72.5t-51.5 -53t-65.5 -25.5z" />
    <glyph glyph-name="uni021B" unicode="&#x21b;" horiz-adv-x="359" 
d="M244 -9q-64 0 -101.5 37.5t-37.5 116.5v337v6l19 110h81v-455q0 -28 14.5 -42t36.5 -14q17 0 30 2t23 5v-93q-13 -4 -28.5 -7t-36.5 -3zM30 396v92h279v-92h-279zM146 -292l-6 26q35 11 49 33t14 48q0 39 -23 63t-44 36q14 20 28.5 29t37.5 9q29 0 55 -24t26 -69
q0 -40 -20 -72.5t-51.5 -53t-65.5 -25.5z" />
    <glyph glyph-name="uni0237" unicode="&#x237;" horiz-adv-x="236" 
d="M60 -194q-25 0 -40 4.5t-20 6.5v84q5 -1 13 -3t18 -2q20 0 30 13t10 35v544h100v-541q0 -38 -11.5 -70.5t-36 -51.5t-63.5 -19z" />
    <glyph glyph-name="circumflex" unicode="&#x2c6;" horiz-adv-x="540" 
d="M179 558l-51 51l142 140l143 -140l-51 -51l-123 125l64 -1z" />
    <glyph glyph-name="caron" unicode="&#x2c7;" horiz-adv-x="540" 
d="M270 558l-143 140l51 51l123 -125l-64 1l124 124l51 -51z" />
    <glyph glyph-name="breve" unicode="&#x2d8;" horiz-adv-x="540" 
d="M269 580q-58 0 -93.5 34t-40.5 94h69q2 -28 16.5 -49t48.5 -21t49 21t17 49h69q-4 -60 -40 -94t-95 -34z" />
    <glyph glyph-name="dotaccent" unicode="&#x2d9;" horiz-adv-x="540" 
d="M205 638q0 29 17.5 47.5t47.5 18.5q29 0 47 -18.5t18 -47.5q0 -28 -18 -46.5t-47 -18.5q-30 0 -47.5 18.5t-17.5 46.5z" />
    <glyph glyph-name="ring" unicode="&#x2da;" horiz-adv-x="540" 
d="M270 559q-29 0 -53.5 13.5t-39 37t-14.5 52.5q0 30 14.5 54t39 37.5t53.5 13.5q30 0 54 -13.5t38.5 -37.5t14.5 -54q0 -29 -14.5 -52.5t-38.5 -37t-54 -13.5zM269 624q17 0 28 11t11 27q0 17 -11 28t-28 11q-16 0 -27 -11t-11 -28q0 -16 11 -27t27 -11z" />
    <glyph glyph-name="ogonek" unicode="&#x2db;" horiz-adv-x="540" 
d="M271 -227q-43 0 -72 20.5t-29 69.5q0 38 24.5 77.5t62.5 64.5l69 -5q-39 -25 -62 -56.5t-23 -61.5q0 -41 44 -41q10 0 21.5 3t18.5 6l9 -63q-9 -5 -26 -9.5t-37 -4.5z" />
    <glyph glyph-name="tilde" unicode="&#x2dc;" horiz-adv-x="540" 
d="M335 575q-37 0 -77 28q-17 12 -28 17.5t-23 5.5q-30 0 -50 -45l-67 33q20 42 47 65t66 23q24 0 45.5 -7.5t44.5 -24.5q12 -8 22.5 -13.5t20.5 -5.5q17 0 26 11t21 40l67 -33q-16 -43 -43 -68.5t-72 -25.5z" />
    <glyph glyph-name="hungarumlaut" unicode="&#x2dd;" horiz-adv-x="540" 
d="M216 551l-65 28l81 178l67 -26zM355 551l-65 28l81 178l67 -26z" />
    <glyph glyph-name="gravecomb" unicode="&#x300;" 
d="M314 557l-153 141l51 51l152 -140z" />
    <glyph glyph-name="acutecomb" unicode="&#x301;" 
d="M226 557l-50 52l152 140l51 -51z" />
    <glyph glyph-name="uni0302" unicode="&#x302;" 
d="M179 558l-51 51l142 140l143 -140l-51 -51l-123 125l64 -1z" />
    <glyph glyph-name="tildecomb" unicode="&#x303;" 
d="M335 575q-37 0 -77 28q-17 12 -28 17.5t-23 5.5q-30 0 -50 -45l-67 33q20 42 47 65t66 23q24 0 45.5 -7.5t44.5 -24.5q12 -8 22.5 -13.5t20.5 -5.5q17 0 26 11t21 40l67 -33q-16 -43 -43 -68.5t-72 -25.5z" />
    <glyph glyph-name="uni0304" unicode="&#x304;" 
d="M405 584h-271v70h271v-70z" />
    <glyph glyph-name="uni0305" unicode="&#x305;" 
d="M575 820h-584v96h584v-96z" />
    <glyph glyph-name="uni0306" unicode="&#x306;" 
d="M269 580q-58 0 -93.5 34t-40.5 94h69q2 -28 16.5 -49t48.5 -21t49 21t17 49h69q-4 -60 -40 -94t-95 -34z" />
    <glyph glyph-name="uni0307" unicode="&#x307;" 
d="M205 638q0 29 17.5 47.5t47.5 18.5q29 0 47 -18.5t18 -47.5q0 -28 -18 -46.5t-47 -18.5q-30 0 -47.5 18.5t-17.5 46.5z" />
    <glyph glyph-name="uni0308" unicode="&#x308;" 
d="M110 631q0 29 17.5 47.5t47.5 18.5q29 0 47 -18.5t18 -47.5q0 -28 -18 -46.5t-47 -18.5q-30 0 -47.5 18.5t-17.5 46.5zM300 631q0 29 17.5 47.5t47.5 18.5q29 0 47 -18.5t18 -47.5q0 -28 -18 -46.5t-47 -18.5q-30 0 -47.5 18.5t-17.5 46.5z" />
    <glyph glyph-name="uni030A" unicode="&#x30a;" 
d="M270 559q-29 0 -53.5 13.5t-39 37t-14.5 52.5q0 30 14.5 54t39 37.5t53.5 13.5q30 0 54 -13.5t38.5 -37.5t14.5 -54q0 -29 -14.5 -52.5t-38.5 -37t-54 -13.5zM269 624q17 0 28 11t11 27q0 17 -11 28t-28 11q-16 0 -27 -11t-11 -28q0 -16 11 -27t27 -11z" />
    <glyph glyph-name="uni030B" unicode="&#x30b;" 
d="M216 551l-65 28l81 178l67 -26zM355 551l-65 28l81 178l67 -26z" />
    <glyph glyph-name="uni030C" unicode="&#x30c;" 
d="M270 558l-143 140l51 51l123 -125l-64 1l124 124l51 -51z" />
    <glyph glyph-name="uni0312" unicode="&#x312;" 
d="M279 547q-29 0 -55 24t-26 69q0 40 20 72.5t51.5 53t65.5 25.5l6 -26q-35 -11 -49 -33t-14 -48q0 -39 23 -63t44 -36q-13 -20 -28 -29t-38 -9z" />
    <glyph glyph-name="dotbelowcomb" unicode="&#x323;" 
d="M200 -140q0 29 21 50t49 21q29 0 49.5 -21t20.5 -50q0 -28 -20.5 -48.5t-49.5 -20.5q-28 0 -49 20.5t-21 48.5z" />
    <glyph glyph-name="uni0326" unicode="&#x326;" 
d="M205 -292l-6 26q35 11 49 33t14 48q0 39 -23 63t-44 36q14 20 28.5 29t37.5 9q29 0 55 -24t26 -69q0 -40 -20 -72.5t-51.5 -53t-65.5 -25.5z" />
    <glyph glyph-name="uni0327" unicode="&#x327;" 
d="M266 -203q-33 0 -59 8t-46 21l27 48q13 -8 31 -14.5t39 -6.5q26 0 38 9t12 23q0 12 -11.5 19.5t-42.5 7.5h-48l19 88h62l-13 -69l-19 31q60 0 87.5 -20t27.5 -56q0 -42 -27 -65.5t-77 -23.5z" />
    <glyph glyph-name="uni0328" unicode="&#x328;" 
d="M271 -227q-43 0 -72 20.5t-29 69.5q0 38 24.5 77.5t62.5 64.5l69 -5q-39 -25 -62 -56.5t-23 -61.5q0 -41 44 -41q10 0 21.5 3t18.5 6l9 -63q-9 -5 -26 -9.5t-37 -4.5z" />
    <glyph glyph-name="uni0335" unicode="&#x335;" 
d="M416 540h-292v78h292v-78z" />
    <glyph glyph-name="uni0336" unicode="&#x336;" 
d="M708 503h-688v78h688v-78z" />
    <glyph glyph-name="uni0337" unicode="&#x337;" 
d="M39 262l-35 61l220 132l35 -61z" />
    <glyph glyph-name="pi" unicode="&#x3c0;" horiz-adv-x="634" 
d="M604 94v-93q-13 -4 -29 -7t-36 -3q-64 0 -101.5 37.5t-37.5 116.5v328l100 -25v-305q0 -28 14.5 -42t36.5 -14q17 0 30 2t23 5zM220 0h-100v473l100 -25v-448zM26 396v92h569v-92h-569z" />
    <glyph glyph-name="Wgrave" unicode="&#x1e80;" horiz-adv-x="966" 
d="M644 0l-187 607l-23 74h98l191 -631l-44 10l166 621h101l-185 -681h-117zM205 0l-185 681h101l166 -621l-44 -10l191 631h98l-23 -74l-187 -607h-117zM487 750l-153 141l51 51l152 -140z" />
    <glyph glyph-name="wgrave" unicode="&#x1e81;" horiz-adv-x="729" 
d="M167 0l-154 488h100l101 -359h-9l114 359h91l114 -359h-9l101 359h100l-154 -488h-85l-121 381h17l-121 -381h-85zM369 557l-153 141l51 51l152 -140z" />
    <glyph glyph-name="Wacute" unicode="&#x1e82;" horiz-adv-x="966" 
d="M644 0l-187 607l-23 74h98l191 -631l-44 10l166 621h101l-185 -681h-117zM205 0l-185 681h101l166 -621l-44 -10l191 631h98l-23 -74l-187 -607h-117zM473 750l-50 52l152 140l51 -51z" />
    <glyph glyph-name="wacute" unicode="&#x1e83;" horiz-adv-x="729" 
d="M167 0l-154 488h100l101 -359h-9l114 359h91l114 -359h-9l101 359h100l-154 -488h-85l-121 381h17l-121 -381h-85zM355 557l-50 52l152 140l51 -51z" />
    <glyph glyph-name="Wdieresis" unicode="&#x1e84;" horiz-adv-x="966" 
d="M644 0l-187 607l-23 74h98l191 -631l-44 10l166 621h101l-185 -681h-117zM205 0l-185 681h101l166 -621l-44 -10l191 631h98l-23 -74l-187 -607h-117zM323 824q0 29 17.5 47.5t47.5 18.5q29 0 47 -18.5t18 -47.5q0 -28 -18 -46.5t-47 -18.5q-30 0 -47.5 18.5t-17.5 46.5z
M513 824q0 29 17.5 47.5t47.5 18.5q29 0 47 -18.5t18 -47.5q0 -28 -18 -46.5t-47 -18.5q-30 0 -47.5 18.5t-17.5 46.5z" />
    <glyph glyph-name="wdieresis" unicode="&#x1e85;" horiz-adv-x="729" 
d="M167 0l-154 488h100l101 -359h-9l114 359h91l114 -359h-9l101 359h100l-154 -488h-85l-121 381h17l-121 -381h-85zM205 631q0 29 17.5 47.5t47.5 18.5q29 0 47 -18.5t18 -47.5q0 -28 -18 -46.5t-47 -18.5q-30 0 -47.5 18.5t-17.5 46.5zM395 631q0 29 17.5 47.5t47.5 18.5
q29 0 47 -18.5t18 -47.5q0 -28 -18 -46.5t-47 -18.5q-30 0 -47.5 18.5t-17.5 46.5z" />
    <glyph glyph-name="uni1E9E" unicode="&#x1e9e;" horiz-adv-x="697" 
d="M303 142q29 -30 63 -45.5t70 -15.5q52 0 81 27t29 65q0 47 -39 80t-123 65l-53 20l192 254l4 -88q-21 35 -68.5 63t-103.5 28q-46 0 -84 -16.5t-60 -55.5t-22 -106v-417h-100v439q0 115 68 183t198 68q78 0 146 -34t122 -99l-173 -227l-3 67q113 -40 160 -97t47 -127
q0 -56 -26 -98.5t-75 -66t-117 -23.5q-61 0 -117 27.5t-87 67.5z" />
    <glyph glyph-name="uni1EBC" unicode="&#x1ebc;" horiz-adv-x="554" 
d="M165 295v94h275v-94h-275zM162 587l23 32v-540l-28 16h342v-95h-414v681h414v-94h-337zM357 768q-37 0 -77 28q-17 12 -28 17.5t-23 5.5q-30 0 -50 -45l-67 33q20 42 47 65t66 23q24 0 45.5 -7.5t44.5 -24.5q12 -8 22.5 -13.5t20.5 -5.5q17 0 26 11t21 40l67 -33
q-16 -43 -43 -68.5t-72 -25.5z" />
    <glyph glyph-name="uni1EBD" unicode="&#x1ebd;" horiz-adv-x="543" 
d="M273 -10q-71 0 -125 31.5t-84 88.5t-30 133q0 77 30 134t84 89t125 32q72 0 126 -32t84 -89t30 -134q0 -7 -0.5 -14.5t-1.5 -13.5h-382v86h310l-28 -58q0 76 -34 125t-104 49q-62 0 -99 -39.5t-37 -103.5v-52q0 -67 36 -106.5t100 -39.5q59 0 91 25t56 62l75 -47
q-34 -63 -87.5 -94.5t-134.5 -31.5zM339 575q-37 0 -77 28q-17 12 -28 17.5t-23 5.5q-30 0 -50 -45l-67 33q20 42 47 65t66 23q24 0 45.5 -7.5t44.5 -24.5q12 -8 22.5 -13.5t20.5 -5.5q17 0 26 11t21 40l67 -33q-16 -43 -43 -68.5t-72 -25.5z" />
    <glyph glyph-name="Ygrave" unicode="&#x1ef2;" horiz-adv-x="553" 
d="M307 288h-64l198 393h112l-242 -458l15 86v-309h-100v309l14 -86l-240 458h111zM280 750l-153 141l51 51l152 -140z" />
    <glyph glyph-name="ygrave" unicode="&#x1ef3;" horiz-adv-x="502" 
d="M208 62l-193 426h105l171 -377zM80 -190l308 678h105l-308 -678h-105zM258 557l-153 141l51 51l152 -140z" />
    <glyph glyph-name="uni2000" unicode="&#x2000;" horiz-adv-x="500" 
 />
    <glyph glyph-name="uni2001" unicode="&#x2001;" horiz-adv-x="1000" 
 />
    <glyph glyph-name="uni2002" unicode="&#x2002;" horiz-adv-x="500" 
 />
    <glyph glyph-name="uni2003" unicode="&#x2003;" horiz-adv-x="1000" 
 />
    <glyph glyph-name="uni2004" unicode="&#x2004;" horiz-adv-x="333" 
 />
    <glyph glyph-name="uni2005" unicode="&#x2005;" horiz-adv-x="250" 
 />
    <glyph glyph-name="uni2006" unicode="&#x2006;" horiz-adv-x="167" 
 />
    <glyph glyph-name="uni2007" unicode="&#x2007;" horiz-adv-x="540" 
 />
    <glyph glyph-name="uni2008" unicode="&#x2008;" horiz-adv-x="269" 
 />
    <glyph glyph-name="uni2009" unicode="&#x2009;" horiz-adv-x="200" 
 />
    <glyph glyph-name="uni200A" unicode="&#x200a;" horiz-adv-x="143" 
 />
    <glyph glyph-name="uni200B" unicode="&#x200b;" 
 />
    <glyph glyph-name="uni200C" unicode="&#x200c;" 
 />
    <glyph glyph-name="endash" unicode="&#x2013;" horiz-adv-x="568" 
d="M547 242h-526v92h526v-92z" />
    <glyph glyph-name="emdash" unicode="&#x2014;" horiz-adv-x="994" 
d="M975 242h-956v92h956v-92z" />
    <glyph glyph-name="quoteleft" unicode="&#x2018;" horiz-adv-x="183" 
d="M103 415q-21 0 -39.5 11.5t-30.5 32.5t-12 48q0 33 14.5 67.5t42.5 68t70 62.5l26 -27q-28 -32 -44.5 -67.5t-16.5 -67.5q0 -34 18 -54.5t41 -34.5q-9 -22 -30 -30.5t-39 -8.5z" />
    <glyph glyph-name="quoteright" unicode="&#x2019;" horiz-adv-x="183" 
d="M35 406l-26 27q28 32 44.5 68t16.5 67q0 34 -18 54.5t-41 34.5q9 22 30 30.5t39 8.5q21 0 40 -11.5t30.5 -32t11.5 -48.5q0 -49 -32 -101.5t-95 -96.5z" />
    <glyph glyph-name="quotesinglbase" unicode="&#x201a;" horiz-adv-x="183" 
d="M39 -169l-26 27q28 32 44.5 68t16.5 67q0 34 -18 54.5t-41 34.5q9 22 30 30.5t39 8.5q21 0 40 -11.5t30.5 -32t11.5 -48.5q0 -49 -32 -101.5t-95 -96.5z" />
    <glyph glyph-name="quotedblleft" unicode="&#x201c;" horiz-adv-x="382" 
d="M103 415q-21 0 -39.5 11.5t-30.5 32.5t-12 48q0 33 14.5 67.5t42.5 68t70 62.5l26 -27q-28 -32 -44.5 -67.5t-16.5 -67.5q0 -34 18 -54.5t41 -34.5q-9 -22 -30 -30.5t-39 -8.5zM302 415q-21 0 -39.5 11.5t-30.5 32.5t-12 48q0 33 14.5 67.5t42.5 68t70 62.5l26 -27
q-28 -32 -44.5 -67.5t-16.5 -67.5q0 -34 18 -54.5t41 -34.5q-9 -22 -30 -30.5t-39 -8.5z" />
    <glyph glyph-name="quotedblright" unicode="&#x201d;" horiz-adv-x="382" 
d="M35 406l-26 27q28 32 44.5 68t16.5 67q0 34 -18 54.5t-41 34.5q9 22 30 30.5t39 8.5q21 0 40 -11.5t30.5 -32t11.5 -48.5q0 -49 -32 -101.5t-95 -96.5zM234 406l-26 27q28 32 44.5 68t16.5 67q0 34 -18 54.5t-41 34.5q9 22 30 30.5t39 8.5q21 0 40 -11.5t30.5 -32
t11.5 -48.5q0 -49 -32 -101.5t-95 -96.5z" />
    <glyph glyph-name="quotedblbase" unicode="&#x201e;" horiz-adv-x="382" 
d="M39 -168l-26 27q28 32 44.5 68t16.5 67q0 34 -18 54.5t-41 34.5q9 22 30 30.5t39 8.5q21 0 40 -11.5t30.5 -32t11.5 -48.5q0 -49 -32 -101.5t-95 -96.5zM238 -168l-26 27q28 32 44.5 68t16.5 67q0 34 -18 54.5t-41 34.5q9 22 30 30.5t39 8.5q21 0 40 -11.5t30.5 -32
t11.5 -48.5q0 -49 -32 -101.5t-95 -96.5z" />
    <glyph glyph-name="bullet" unicode="&#x2022;" horiz-adv-x="384" 
d="M192 155q-34 0 -62 17t-45 45.5t-17 62.5t17 62.5t45 45.5t62 17t62 -17t45 -45.5t17 -62.5t-17 -62.5t-45 -45.5t-62 -17z" />
    <glyph glyph-name="ellipsis" unicode="&#x2026;" horiz-adv-x="757" 
d="M134 -5q-21 0 -39 11t-29 29t-11 39q0 22 11 39.5t29 28.5t39 11q22 0 40 -11t29 -28.5t11 -39.5q0 -21 -11 -39t-29 -29t-40 -11zM377 -5q-21 0 -39 11t-29 29t-11 39q0 22 11 39.5t29 28.5t39 11q22 0 40 -11t29 -28.5t11 -39.5q0 -21 -11 -39t-29 -29t-40 -11zM622 -5
q-21 0 -39 11t-29 29t-11 39q0 22 11 39.5t29 28.5t39 11q22 0 40 -11t29 -28.5t11 -39.5q0 -21 -11 -39t-29 -29t-40 -11z" />
    <glyph glyph-name="uni202F" unicode="&#x202f;" horiz-adv-x="208" 
 />
    <glyph glyph-name="perthousand" unicode="&#x2030;" horiz-adv-x="1013" 
d="M119 -10l-63 48l545 626l63 -48zM179 363q-41 0 -76 20t-56 54t-21 76q0 43 21 77t56 54t76 20q42 0 77 -20.5t55.5 -54.5t20.5 -76t-21 -76t-56 -54t-76 -20zM179 442q29 0 49 20t20 51q0 32 -20 52.5t-49 20.5q-30 0 -49 -20.5t-19 -52.5q0 -31 19 -51t49 -20zM521 -10
q-41 0 -76 20t-56 54t-21 76q0 43 21 77t56 54t76 20q42 0 77 -20t55.5 -54.5t20.5 -76.5t-21 -76t-56 -54t-76 -20zM521 69q29 0 49 20t20 51q0 32 -20 52.5t-49 20.5q-30 0 -49 -20.5t-19 -52.5q0 -31 19 -51t49 -20zM851 -10q-41 0 -76 20t-56 54t-21 76q0 43 21 77
t56 54t76 20q42 0 77 -20t55.5 -54.5t20.5 -76.5t-21 -76t-56 -54t-76 -20zM851 69q29 0 49 20t20 51q0 32 -20 52.5t-49 20.5q-30 0 -49 -20.5t-19 -52.5q0 -31 19 -51t49 -20z" />
    <glyph glyph-name="guilsinglleft" unicode="&#x2039;" horiz-adv-x="325" 
d="M184 91l-141 198l142 199h102l-140 -200l140 -197h-103z" />
    <glyph glyph-name="guilsinglright" unicode="&#x203a;" horiz-adv-x="325" 
d="M38 91l140 197l-140 200h102l142 -199l-141 -198h-103z" />
    <glyph glyph-name="fraction" unicode="&#x2044;" horiz-adv-x="239" 
d="M-99 -42l-60 42l494 700l63 -38z" />
    <glyph glyph-name="uni205F" unicode="&#x205f;" horiz-adv-x="222" 
 />
    <glyph glyph-name="uni2070" unicode="&#x2070;" horiz-adv-x="369" 
d="M185 365q-73 0 -116 56t-43 151t43 151t116 56q74 0 116 -56t42 -151t-42 -151t-116 -56zM185 695q-25 0 -40.5 -16t-22.5 -43.5t-7 -63.5q0 -49 16.5 -86.5t53.5 -37.5t53 37.5t16 86.5q0 36 -7 63.5t-22 43.5t-40 16z" />
    <glyph glyph-name="uni2074" unicode="&#x2074;" horiz-adv-x="357" 
d="M287 647v-274h-89v138l1 27l23 109h65zM9 459v37l92 275h88l-95 -285l-10 58h256v-85h-331z" />
    <glyph glyph-name="uni2075" unicode="&#x2075;" horiz-adv-x="333" 
d="M98 517l-60 15v239h253v-85h-212l38 17v-153l-34 9q0 15 13 31t35.5 27.5t49.5 11.5q59 0 95 -35t36 -92q0 -40 -19.5 -71t-53 -48.5t-75.5 -17.5q-28 0 -52 8t-42.5 22.5t-30.5 34.5l55 50q11 -16 29.5 -27.5t43.5 -11.5q24 0 43 15.5t19 42.5q0 23 -16.5 39t-42.5 16
q-23 0 -41.5 -10.5t-30.5 -26.5z" />
    <glyph glyph-name="uni2076" unicode="&#x2076;" horiz-adv-x="343" 
d="M17 547q0 110 48 171t134 61q38 0 72.5 -14.5t58.5 -41.5l-49 -58q-19 20 -39.5 28t-48.5 8q-35 0 -64.5 -31.5t-32.5 -99.5h-15q23 24 50.5 38t60.5 14q39 0 69.5 -15.5t47.5 -42.5t17 -62q0 -61 -41 -99t-112 -38q-45 0 -80 23.5t-55.5 64.5t-20.5 94zM113 496
q0 -26 18.5 -42.5t47.5 -16.5q30 0 48 16.5t18 42.5t-18 42t-48 16q-29 0 -47.5 -16t-18.5 -42z" />
    <glyph glyph-name="uni2077" unicode="&#x2077;" horiz-adv-x="325" 
d="M51 373l163 324l10 -11h-203v85h300v-50l-175 -348h-95z" />
    <glyph glyph-name="uni2078" unicode="&#x2078;" horiz-adv-x="343" 
d="M172 365q-49 0 -82.5 16.5t-51 44.5t-17.5 62q0 28 17 55.5t57 39.5l-1 -6q-37 15 -51.5 39t-14.5 47q0 31 17 57.5t49 42.5t78 16q45 0 77 -16.5t48.5 -42.5t16.5 -57q0 -24 -15.5 -48.5t-54.5 -38.5v9q41 -13 59.5 -41.5t18.5 -57.5q0 -32 -17.5 -60t-51 -44.5
t-81.5 -16.5zM172 437q27 0 42.5 17t15.5 37q0 19 -15.5 37.5t-42.5 18.5q-29 0 -45 -18t-16 -38q0 -21 16.5 -37.5t44.5 -16.5zM172 604q23 0 37 17.5t14 35.5t-14 34.5t-37 16.5q-25 0 -39 -16t-14 -35q0 -18 14 -35.5t39 -17.5z" />
    <glyph glyph-name="uni2079" unicode="&#x2079;" horiz-adv-x="343" 
d="M326 597q0 -110 -48 -171t-134 -61q-37 0 -72 14.5t-59 41.5l49 58q20 -19 40 -27.5t48 -8.5q35 0 64.5 31.5t32.5 99.5h15q-22 -24 -50 -38t-61 -14q-39 0 -69.5 15.5t-47.5 42.5t-17 62q0 61 41.5 99t111.5 38q45 0 80.5 -23.5t55.5 -64.5t20 -94zM230 648
q0 26 -18.5 42.5t-47.5 16.5q-30 0 -48 -16.5t-18 -42.5q0 -25 18 -41.5t48 -16.5q29 0 47.5 16.5t18.5 41.5z" />
    <glyph glyph-name="uni207A" unicode="&#x207a;" horiz-adv-x="314" 
d="M122 471v240h70v-240h-70zM42 556v70h230v-70h-230z" />
    <glyph glyph-name="uni207B" unicode="&#x207b;" horiz-adv-x="314" 
d="M42 556v70h230v-70h-230z" />
    <glyph glyph-name="uni2080" unicode="&#x2080;" horiz-adv-x="369" 
d="M185 -128q-73 0 -116 56t-43 151t43 151t116 56q74 0 116 -56t42 -151t-42 -151t-116 -56zM185 202q-25 0 -40.5 -16t-22.5 -43.5t-7 -63.5q0 -49 16.5 -86.5t53.5 -37.5t53 37.5t16 86.5q0 36 -7 63.5t-22 43.5t-40 16z" />
    <glyph glyph-name="uni2081" unicode="&#x2081;" horiz-adv-x="232" 
d="M104 198l31 -9q-9 -26 -42 -41.5t-84 -15.5v86q36 0 62.5 7.5t42.5 21t22 31.5h58v-398h-90v318z" />
    <glyph glyph-name="uni2082" unicode="&#x2082;" horiz-adv-x="341" 
d="M306 164q0 -29 -18.5 -60.5t-56.5 -72.5l-80 -85l-11 19h171v-85h-282v53l116 118q34 35 54 61.5t20 48.5t-15 33t-33 11q-19 0 -37.5 -9.5t-39.5 -37.5l-68 46q26 38 59.5 60t85.5 22q37 0 67.5 -15.5t49 -42.5t18.5 -64z" />
    <glyph glyph-name="uni2083" unicode="&#x2083;" horiz-adv-x="325" 
d="M156 -129q-44 0 -80 18.5t-57 52.5l55 56q15 -18 27 -28t25 -14.5t32 -4.5q23 0 40.5 11.5t17.5 32.5q0 17 -15 34t-62 17q-10 0 -22.5 -0.5t-20.5 -1.5v68q17 -1 22.5 -1.5t16.5 -0.5q29 0 46.5 15t17.5 40q0 19 -15 30.5t-39 11.5q-20 0 -40.5 -12.5t-37.5 -35.5
l-54 56q32 38 64.5 54.5t76.5 16.5q57 0 93.5 -29.5t36.5 -75.5q0 -53 -35 -82t-103 -29l21 37q39 0 71 -13.5t51 -37t19 -52.5q0 -38 -20 -68.5t-54.5 -47.5t-77.5 -17z" />
    <glyph glyph-name="uni2084" unicode="&#x2084;" horiz-adv-x="357" 
d="M287 154v-274h-89v138l1 27l23 109h65zM9 -34v37l92 275h88l-95 -285l-10 58h256v-85h-331z" />
    <glyph glyph-name="uni2085" unicode="&#x2085;" horiz-adv-x="333" 
d="M98 24l-60 15v239h253v-85h-212l38 17v-153l-34 9q0 15 13 31t35.5 27.5t49.5 11.5q59 0 95 -35t36 -92q0 -40 -19.5 -71t-53 -48.5t-75.5 -17.5q-28 0 -52 8t-42.5 22.5t-30.5 34.5l55 50q11 -16 29.5 -27.5t43.5 -11.5q24 0 43 15.5t19 42.5q0 23 -16.5 39t-42.5 16
q-23 0 -41.5 -10.5t-30.5 -26.5z" />
    <glyph glyph-name="uni2086" unicode="&#x2086;" horiz-adv-x="343" 
d="M17 54q0 110 48 171t134 61q38 0 72.5 -14.5t58.5 -41.5l-49 -58q-19 20 -39.5 28t-48.5 8q-35 0 -64.5 -31.5t-32.5 -99.5h-15q23 24 50.5 38t60.5 14q39 0 69.5 -15.5t47.5 -42.5t17 -62q0 -61 -41 -99t-112 -38q-45 0 -80 23.5t-55.5 64.5t-20.5 94zM113 3
q0 -26 18.5 -42.5t47.5 -16.5q30 0 48 16.5t18 42.5t-18 42t-48 16q-29 0 -47.5 -16t-18.5 -42z" />
    <glyph glyph-name="uni2087" unicode="&#x2087;" horiz-adv-x="325" 
d="M51 -120l163 324l10 -11h-203v85h300v-50l-175 -348h-95z" />
    <glyph glyph-name="uni2088" unicode="&#x2088;" horiz-adv-x="343" 
d="M172 -128q-49 0 -82.5 16.5t-51 44.5t-17.5 62q0 28 17 55.5t57 39.5l-1 -6q-37 15 -51.5 39t-14.5 47q0 31 17 57.5t49 42.5t78 16q45 0 77 -16.5t48.5 -42.5t16.5 -57q0 -24 -15.5 -48.5t-54.5 -38.5v9q41 -13 59.5 -41.5t18.5 -57.5q0 -32 -17.5 -60t-51 -44.5
t-81.5 -16.5zM172 -56q27 0 42.5 17t15.5 37q0 19 -15.5 37.5t-42.5 18.5q-29 0 -45 -18t-16 -38q0 -21 16.5 -37.5t44.5 -16.5zM172 111q23 0 37 17.5t14 35.5t-14 34.5t-37 16.5q-25 0 -39 -16t-14 -35q0 -18 14 -35.5t39 -17.5z" />
    <glyph glyph-name="uni2089" unicode="&#x2089;" horiz-adv-x="343" 
d="M326 104q0 -110 -48 -171t-134 -61q-37 0 -72 14.5t-59 41.5l49 58q20 -19 40 -27.5t48 -8.5q35 0 64.5 31.5t32.5 99.5h15q-22 -24 -50 -38t-61 -14q-39 0 -69.5 15.5t-47.5 42.5t-17 62q0 61 41.5 99t111.5 38q45 0 80.5 -23.5t55.5 -64.5t20 -94zM230 155
q0 26 -18.5 42.5t-47.5 16.5q-30 0 -48 -16.5t-18 -42.5q0 -25 18 -41.5t48 -16.5q29 0 47.5 16.5t18.5 41.5z" />
    <glyph glyph-name="uni208A" unicode="&#x208a;" horiz-adv-x="314" 
d="M122 -42v240h70v-240h-70zM42 43v70h230v-70h-230z" />
    <glyph glyph-name="uni208B" unicode="&#x208b;" horiz-adv-x="314" 
d="M42 43v70h230v-70h-230z" />
    <glyph glyph-name="Euro" unicode="&#x20ac;" horiz-adv-x="617" 
d="M217 335q0 -115 47.5 -182t137.5 -67q47 0 76.5 12.5t54.5 34.5l67 -73q-37 -34 -81.5 -52t-118.5 -18q-58 0 -109.5 25t-90.5 71t-61 109.5t-22 139.5q0 72 22 132t61 104t90.5 68t109.5 24q69 0 111.5 -17.5t78.5 -52.5l-67 -63q-23 17 -51.5 27t-69.5 10
q-60 0 -101.5 -28.5t-62.5 -80.5t-21 -123zM392 219h-349v86h374zM432 367h-389v86h414z" />
    <glyph glyph-name="trademark" unicode="&#x2122;" horiz-adv-x="806" 
d="M345 601h-319v80h319v-80zM229 611v-300h-85v300h85zM347 311l58 370h75l87 -221h2l87 221h75l58 -370h-82l-24 154l-7 93h6l-2.5 -8.5t-6.5 -20.5t-7.5 -23t-5.5 -16l-63 -173h-59l-62 173q-2 5 -5.5 16t-7.5 23t-6.5 20.5l-2.5 8.5h6l-7 -93l-24 -154h-82z" />
    <glyph glyph-name="uni2126" unicode="&#x2126;" horiz-adv-x="799" 
d="M470 35l30 55h248v-90h-288v109q56 13 99 47.5t67 86t24 113.5q0 68 -32.5 121.5t-88.5 85t-128 31.5t-129 -31.5t-90 -85t-33 -121.5q0 -62 24 -113.5t67 -86t99 -47.5v-109h-288v90h258l20 -55q-64 10 -116 37.5t-89 69.5t-57 96.5t-20 117.5q0 71 26.5 132t74.5 106.5
t112.5 70.5t140.5 25q75 0 139 -25t111.5 -70.5t74 -106.5t26.5 -132q0 -64 -20 -118.5t-57 -97t-89 -69.5t-116 -36z" />
    <glyph glyph-name="uni2160" unicode="&#x2160;" horiz-adv-x="448" 
d="M414 0h-380v96h380v-96zM174 650h100v-650h-100v650zM414 650v-96h-380v96h380z" />
    <glyph glyph-name="uni2161" unicode="&#x2161;" horiz-adv-x="748" 
d="M34 554v96h680v-96h-680zM34 0v96h680v-96h-680zM174 650h100v-650h-100v650zM474 650h100v-650h-100v650z" />
    <glyph glyph-name="uni2162" unicode="&#x2162;" horiz-adv-x="1038" 
d="M34 554v96h970v-96h-970zM34 0v96h970v-96h-970zM174 650h100v-650h-100v650zM474 650h100v-650h-100v650zM764 650h100v-650h-100v650z" />
    <glyph glyph-name="uni2163" unicode="&#x2163;" horiz-adv-x="970" 
d="M34 554v96h919v-96h-919zM34 0v96h919v-96h-919zM174 650h100v-650h-100v650zM354 640h100l200 -630h-100zM783 640h100l-200 -630h-100z" />
    <glyph glyph-name="uni2164" unicode="&#x2164;" horiz-adv-x="703" 
d="M17 554v96h669v-96h-669zM17 0v96h669v-96h-669zM87 640h100l200 -630h-100zM516 640h100l-200 -630h-100z" />
    <glyph glyph-name="uni2165" unicode="&#x2165;" horiz-adv-x="970" 
d="M936 554h-919v96h919v-96zM936 0h-919v96h919v-96zM796 650v-650h-100v650h100zM616 640l-200 -630h-100l200 630h100zM187 640l200 -630h-100l-200 630h100z" />
    <glyph glyph-name="uni2166" unicode="&#x2166;" horiz-adv-x="1270" 
d="M17 554v96h1219v-96h-1219zM17 0v96h1219v-96h-1219zM616 640l-200 -630h-100l200 630h100zM187 640l200 -630h-100l-200 630h100zM696 650h100v-650h-100v650zM996 650h100v-650h-100v650z" />
    <glyph glyph-name="uni2167" unicode="&#x2167;" horiz-adv-x="1560" 
d="M17 554v96h1509v-96h-1509zM17 0v96h1509v-96h-1509zM616 640l-200 -630h-100l200 630h100zM187 640l200 -630h-100l-200 630h100zM696 650h100v-650h-100v650zM996 650h100v-650h-100v650zM1286 650h100v-650h-100v650z" />
    <glyph glyph-name="uni2168" unicode="&#x2168;" horiz-adv-x="961" 
d="M34 554v96h897v-96h-897zM34 0v96h897v-96h-897zM174 650h100v-650h-100v650zM767 10l-176 263h34l-177 -263h-110l215 315l-215 315h110l177 -263h-34l176 263h110l-214 -315l214 -315h-110z" />
    <glyph glyph-name="uni2169" unicode="&#x2169;" horiz-adv-x="707" 
d="M30 554v96h647v-96h-647zM30 0v96h647v-96h-647zM522 10l-186 266h34l-187 -266h-110l225 315l-225 315h110l187 -266h-34l186 266h110l-224 -315l224 -315h-110z" />
    <glyph glyph-name="uni216C" unicode="&#x216c;" horiz-adv-x="605" 
d="M548 0h-514v96h514v-96zM144 650h100v-650h-100v650zM384 650v-96h-350v96h350zM484 250h100v-250h-100v250z" />
    <glyph glyph-name="uni216D" unicode="&#x216d;" horiz-adv-x="746" 
d="M357 -10q-70 0 -127 24.5t-98 69t-63 105t-22 131.5q0 98 39 175t108.5 121t162.5 44q66 0 124 -28t98.5 -77.5t53.5 -114.5l-55 -30q-22 69 -77.5 111.5t-129.5 42.5q-63 0 -113.5 -31.5t-79.5 -86.5t-29 -126q0 -67 29 -120t79.5 -83.5t113.5 -30.5q74 0 129.5 42.5
t77.5 111.5l55 -30q-13 -65 -53.5 -114.5t-98.5 -77.5t-124 -28zM578 0v159v81h100v-240h-100zM578 410v64v176h100v-240h-100z" />
    <glyph glyph-name="uni216E" unicode="&#x216e;" horiz-adv-x="735" 
d="M34 650h334q92 0 164.5 -40t114 -114t41.5 -177q0 -102 -41.5 -173.5t-114 -108.5t-165.5 -37h-333v95h328q61 0 111.5 24t80.5 73.5t30 126.5t-30 129.5t-80 79.5t-111 27h-329v95zM154 650h100v-650h-100v650z" />
    <glyph glyph-name="uni216F" unicode="&#x216f;" horiz-adv-x="965" 
d="M9 0v96h84l91 458h-120v96h251l168 -444l167 444h241v-96h-110l91 -458h84v-96h-260v96h71l-49 286l-26 127q-14 -45 -28.5 -90t-29.5 -90l-110 -318h-83l-110 318q-15 45 -29.5 90t-28.5 90l-26 -127l-49 -286h71v-96h-260z" />
    <glyph glyph-name="arrowleft" unicode="&#x2190;" horiz-adv-x="1038" 
d="M363 490v-360l-312 180zM247 260v100h753v-100h-753z" />
    <glyph glyph-name="arrowup" unicode="&#x2191;" horiz-adv-x="496" 
d="M428 557h-360l180 312zM198 673h100v-753h-100v753z" />
    <glyph glyph-name="arrowright" unicode="&#x2192;" horiz-adv-x="1038" 
d="M675 130v360l312 -180zM791 360v-100h-753v100h753z" />
    <glyph glyph-name="arrowdown" unicode="&#x2193;" horiz-adv-x="496" 
d="M68 24h360l-180 -312zM298 -92h-100v753h100v-753z" />
    <glyph glyph-name="arrowboth" unicode="&#x2194;" horiz-adv-x="1242" 
d="M879 130v360l312 -180zM363 130l-312 180l312 180v-360zM247 260v100h748v-100h-748z" />
    <glyph glyph-name="arrowupdn" unicode="&#x2195;" horiz-adv-x="496" 
d="M428 548h-360l180 312zM198 664h100v-782h-100v782zM68 32h360l-180 -312z" />
    <glyph glyph-name="uni2196" unicode="&#x2196;" horiz-adv-x="775" 
d="M390 541l-254 -255l-94 348zM146 460l70 71l533 -533l-71 -70z" />
    <glyph glyph-name="uni2197" unicode="&#x2197;" horiz-adv-x="775" 
d="M645 288l-255 254l348 94zM564 532l71 -70l-533 -533l-70 71z" />
    <glyph glyph-name="uni2198" unicode="&#x2198;" horiz-adv-x="776" 
d="M130 280l255 -254l-348 -94zM211 36l-71 70l533 533l70 -71z" />
    <glyph glyph-name="uni2199" unicode="&#x2199;" horiz-adv-x="775" 
d="M391 26l254 255l94 -348zM635 107l-70 -71l-533 533l71 70z" />
    <glyph glyph-name="uni21C4" unicode="&#x21c4;" horiz-adv-x="1242" 
d="M880 355v360l312 -180zM996 585v-100h-853v100h853zM364 305v-360l-312 180zM248 75v100h853v-100h-853z" />
    <glyph glyph-name="uni21C5" unicode="&#x21c5;" horiz-adv-x="906" 
d="M428 548h-360l180 312zM198 664h100v-853h-100v853zM478 32h360l-180 -312zM708 -84h-100v853h100v-853z" />
    <glyph glyph-name="uni21D4" unicode="&#x21d4;" horiz-adv-x="868" 
d="M623 0l-56 53l194 216v-50l-194 216l56 53l219 -244zM245 0l-219 244l219 244l56 -53l-194 -216v50l194 -216zM187 133l-40 70h574l-40 -70h-494zM147 285l40 70h494l40 -70h-574z" />
    <glyph glyph-name="forall" unicode="&#x2200;" horiz-adv-x="658" 
d="M271 0l-250 681h94l229 -626h-30l229 626h94l-250 -681h-116zM145 406v93h367v-93h-367z" />
    <glyph glyph-name="partialdiff" unicode="&#x2202;" horiz-adv-x="615" 
d="M472 229q0 34 -22.5 64t-61.5 48.5t-89 18.5q-58 0 -98.5 -36.5t-40.5 -99.5q0 -41 20.5 -70.5t52 -45t62.5 -15.5q62 0 100.5 29.5t56.5 80.5t18 115q0 100 -28 161t-72.5 89.5t-94.5 28.5q-55 0 -93 -12.5t-79 -38.5l-36 84q39 21 69.5 34t63.5 19t78 6
q52 0 103.5 -20.5t93.5 -64t67.5 -112t25.5 -163.5q0 -36 -8 -80.5t-27.5 -89.5t-52.5 -83.5t-82.5 -61.5t-118.5 -23q-39 0 -79 16t-74 46t-54.5 73.5t-20.5 97.5q0 70 31.5 122t84.5 81t117 29q57 0 98 -18t69 -46t45 -60.5t26 -62.5z" />
    <glyph glyph-name="thereexists" unicode="&#x2203;" horiz-adv-x="574" 
d="M77 0v95h352l-28 -16v540l23 -32h-347v94h424v-681h-424zM77 295v94h344v-94h-344z" />
    <glyph glyph-name="uni2204" unicode="&#x2204;" horiz-adv-x="574" 
d="M77 0v95h352l-28 -16v540l23 -32h-347v94h424v-681h-424zM77 295v94h344v-94h-344zM214 -130l-73 12l155 929l73 -12z" />
    <glyph glyph-name="emptyset" unicode="&#x2205;" horiz-adv-x="868" 
d="M105 14l-58 65l718 604l56 -65zM435 -10q-73 0 -137 27t-113 75.5t-76.5 112t-27.5 135.5t27.5 135.5t76.5 112t113 75.5t137 27t136.5 -27t112 -75.5t75.5 -112t27 -135.5t-27 -135.5t-75.5 -112t-112 -75.5t-136.5 -27zM435 86q69 0 125.5 34.5t90 92t33.5 127.5
t-33.5 127.5t-90 92t-125.5 34.5t-126.5 -34.5t-91.5 -92t-34 -127.5t34 -127.5t91.5 -92t126.5 -34.5z" />
    <glyph glyph-name="uni2206" unicode="&#x2206;" horiz-adv-x="710" 
d="M9 0l346 690l346 -690h-692zM153 94h402l-201 390z" />
    <glyph glyph-name="uni2208" unicode="&#x2208;" horiz-adv-x="670" 
d="M308 10q-75 0 -133 26t-91 80t-33 138q0 85 33 138.5t91 79.5t133 26h311v-80h-311q-87 0 -130.5 -45t-43.5 -119t43.5 -119t130.5 -45h311v-80h-311zM100 218v80h519v-80h-519z" />
    <glyph glyph-name="uni2209" unicode="&#x2209;" horiz-adv-x="670" 
d="M247 -120l-68 26l314 728l68 -26zM308 10q-75 0 -133 26t-91 80t-33 138q0 85 33 138.5t91 79.5t133 26h311v-80h-311q-87 0 -130.5 -45t-43.5 -119t43.5 -119t130.5 -45h311v-80h-311zM100 218v80h519v-80h-519z" />
    <glyph glyph-name="product" unicode="&#x220f;" horiz-adv-x="698" 
d="M513 0v681h100v-681h-100zM185 681v-681h-100v681h100zM151 587v94h392v-94h-392z" />
    <glyph glyph-name="summation" unicode="&#x2211;" horiz-adv-x="586" 
d="M320 303l-256 285v93h484v-95h-372l5 16l235 -262l-235 -261l-5 16h372v-95h-484v93l256 284v-74z" />
    <glyph glyph-name="minus" unicode="&#x2212;" horiz-adv-x="670" 
d="M543 295h-415v90h415v-90z" />
    <glyph glyph-name="radical" unicode="&#x221a;" horiz-adv-x="781" 
d="M245 -110l-236 660h102l216 -590h-50l343 956h104l-368 -1026h-111zM620 820v96h246v-96h-246z" />
    <glyph glyph-name="infinity" unicode="&#x221e;" horiz-adv-x="873" 
d="M632 120q-49 0 -88 18.5t-71.5 47.5t-60.5 61t-55 61t-55 47.5t-61 18.5q-37 0 -61 -22t-24 -57t24 -57.5t61 -22.5q33 0 61 18.5t55 47.5t55 61.5t60.5 61.5t71.5 47.5t88 18.5q55 0 97 -22.5t65.5 -61.5t23.5 -91q0 -51 -23.5 -90.5t-65.5 -62t-97 -22.5zM241 120
q-55 0 -97 22.5t-65.5 62t-23.5 90.5q0 52 23.5 91t65.5 61.5t97 22.5q49 0 88 -18.5t71.5 -47.5t61 -61.5t55.5 -61.5t55 -47.5t60 -18.5q38 0 61 22.5t23 57.5t-23 57t-61 22q-32 0 -60.5 -18.5t-55.5 -47.5t-55 -61t-60.5 -61t-71.5 -47.5t-88 -18.5z" />
    <glyph glyph-name="logicaland" unicode="&#x2227;" horiz-adv-x="649" 
d="M132 -12l-77 37l235 483h68l236 -484l-77 -37l-211 441h36z" />
    <glyph glyph-name="logicalor" unicode="&#x2228;" horiz-adv-x="649" 
d="M290 -10l-235 483l77 37l210 -440h-36l211 441l77 -37l-236 -484h-68z" />
    <glyph glyph-name="intersection" unicode="&#x2229;" horiz-adv-x="574" 
d="M68 10v281q0 57 21.5 109t69.5 85t128 33t128 -33t69.5 -85t21.5 -109v-281h-80v281q0 75 -38 112t-101 37t-101 -37t-38 -112v-281h-80z" />
    <glyph glyph-name="uni222A" unicode="&#x222a;" horiz-adv-x="574" 
d="M68 508h80v-281q0 -75 38 -112t101 -37t101 37t38 112v281h80v-281q0 -57 -21.5 -109t-69.5 -85t-128 -33t-128 33t-69.5 85t-21.5 109v281z" />
    <glyph glyph-name="integral" unicode="&#x222b;" horiz-adv-x="384" 
d="M242 -111q0 -79 -37 -116.5t-102 -37.5q-19 0 -35 3t-30 7v93q11 -2 21.5 -3.5t24.5 -1.5q22 0 40 14.5t18 49.5v789q0 80 37.5 117t101.5 37q20 0 36 -3t29 -7v-93q-11 2 -21.5 3.5t-24.5 1.5q-22 0 -40 -14.5t-18 -49.5v-789z" />
    <glyph glyph-name="congruent" unicode="&#x2245;" horiz-adv-x="559" 
d="M423 581l76 -37q-18 -39 -47 -68.5t-85 -29.5q-36 0 -62 13.5t-48.5 26.5t-49.5 13q-25 0 -41.5 -16t-31.5 -40l-74 38q20 41 49 70t82 29q38 0 63.5 -13.5t48 -27t48.5 -13.5t42 16.5t30 38.5zM56 257v80h425v-80h-425zM56 71v80h425v-80h-425z" />
    <glyph glyph-name="approxequal" unicode="&#x2248;" horiz-adv-x="670" 
d="M479 454l76 -37q-18 -39 -47 -68.5t-85 -29.5q-36 0 -62 13.5t-48.5 26.5t-49.5 13q-25 0 -41.5 -16t-31.5 -40l-74 38q20 41 49 70t82 29q38 0 63.5 -13.5t48 -27t48.5 -13.5t42 16.5t30 38.5zM555 227q-18 -39 -47 -69t-85 -30q-36 0 -62 13.5t-48.5 26.5t-49.5 13
q-25 0 -41.5 -16t-31.5 -39l-74 38q20 41 49 70t82 29q38 0 63.5 -13.5t48 -27t48.5 -13.5t42 16.5t30 38.5z" />
    <glyph glyph-name="notequal" unicode="&#x2260;" horiz-adv-x="670" 
d="M273 15l-72 26l192 518l72 -26zM123 343v80h425v-80h-425zM123 157v80h425v-80h-425z" />
    <glyph glyph-name="lessequal" unicode="&#x2264;" horiz-adv-x="670" 
d="M534 115v-90h-402v90h402zM132 351v74l369 153l37 -79l-322 -125v28l322 -125l-37 -79z" />
    <glyph glyph-name="greaterequal" unicode="&#x2265;" horiz-adv-x="670" 
d="M136 115h402v-90h-402v90zM538 351l-369 -153l-37 79l322 125v-28l-322 125l37 79l369 -153v-74z" />
    <glyph glyph-name="uni2282" unicode="&#x2282;" horiz-adv-x="670" 
d="M51 254q0 85 33 138.5t91 79.5t133 26h311v-80h-311q-87 0 -130.5 -45t-43.5 -119t43.5 -119t130.5 -45h311v-80h-311q-75 0 -133 26t-91 80t-33 138z" />
    <glyph glyph-name="uni2283" unicode="&#x2283;" horiz-adv-x="670" 
d="M51 10v80h311q87 0 130.5 45t43.5 119t-43.5 119t-130.5 45h-311v80h311q75 0 133 -26t91 -79.5t33 -138.5q0 -84 -33 -138t-91 -80t-133 -26h-311z" />
    <glyph glyph-name="uni2284" unicode="&#x2284;" horiz-adv-x="670" 
d="M247 -120l-68 26l314 728l68 -26zM51 254q0 85 33 138.5t91 79.5t133 26h311v-80h-311q-87 0 -130.5 -45t-43.5 -119t43.5 -119t130.5 -45h311v-80h-311q-75 0 -133 26t-91 80t-33 138z" />
    <glyph glyph-name="uni2285" unicode="&#x2285;" horiz-adv-x="670" 
d="M51 10v80h311q87 0 130.5 45t43.5 119t-43.5 119t-130.5 45h-311v80h311q75 0 133 -26t91 -79.5t33 -138.5q0 -84 -33 -138t-91 -80t-133 -26h-311zM177 -126l-68 26l314 728l68 -26z" />
    <glyph glyph-name="uni2286" unicode="&#x2286;" horiz-adv-x="679" 
d="M70 -60v70h558v-70h-558zM51 374q0 85 33 138.5t91 79.5t133 26h311v-80h-311q-87 0 -130.5 -45t-43.5 -119t43.5 -119t130.5 -45h311v-80h-311q-75 0 -133 26t-91 80t-33 138z" />
    <glyph glyph-name="uni2287" unicode="&#x2287;" horiz-adv-x="679" 
d="M60 130v80h311q87 0 130.5 45t43.5 119t-43.5 119t-130.5 45h-311v80h311q75 0 133 -26t91 -79.5t33 -138.5q0 -84 -33 -138t-91 -80t-133 -26h-311zM51 -60v70h558v-70h-558z" />
    <glyph glyph-name="uni2288" unicode="&#x2288;" horiz-adv-x="679" 
d="M278 -160l-75 20l240 884l75 -20zM70 -60v70h558v-70h-558zM51 374q0 85 33 138.5t91 79.5t133 26h311v-80h-311q-87 0 -130.5 -45t-43.5 -119t43.5 -119t130.5 -45h311v-80h-311q-75 0 -133 26t-91 80t-33 138z" />
    <glyph glyph-name="uni2289" unicode="&#x2289;" horiz-adv-x="679" 
d="M228 -160l-75 20l240 884l75 -20zM609 -60h-558v70h558v-70zM628 374q0 -84 -33 -138t-91 -80t-133 -26h-311v80h311q87 0 130.5 45t43.5 119t-43.5 119t-130.5 45h-311v80h311q75 0 133 -26t91 -79.5t33 -138.5z" />
    <glyph glyph-name="uni228A" unicode="&#x228a;" horiz-adv-x="679" 
d="M328 -160l-58 25l102 240l58 -25zM70 -60v70h558v-70h-558zM51 374q0 85 33 138.5t91 79.5t133 26h311v-80h-311q-87 0 -130.5 -45t-43.5 -119t43.5 -119t130.5 -45h311v-80h-311q-75 0 -133 26t-91 80t-33 138z" />
    <glyph glyph-name="uni228B" unicode="&#x228b;" horiz-adv-x="654" 
d="M318 -160l-58 25l102 240l58 -25zM609 -60h-558v70h558v-70zM628 374q0 -84 -33 -138t-91 -80t-133 -26h-311v80h311q87 0 130.5 45t43.5 119t-43.5 119t-130.5 45h-311v80h311q75 0 133 -26t91 -79.5t33 -138.5z" />
    <glyph glyph-name="lozenge" unicode="&#x25ca;" horiz-adv-x="595" 
d="M240 0l-193 335v11l193 335h115l193 -335v-11l-193 -335h-115zM298 99l139 242l-139 241l-140 -241z" />
    <glyph glyph-name="circle" unicode="&#x25cb;" horiz-adv-x="779" 
d="M390 -21q-74 0 -138 27.5t-112 77t-75 115.5t-27 142t27 142t75 115.5t112 77.5t138 28t137.5 -28t111.5 -77.5t75 -115.5t27 -142t-27 -142t-75 -115.5t-111.5 -77t-137.5 -27.5zM390 53q79 0 141.5 38.5t99 104t36.5 145.5q0 60 -21 112.5t-58.5 92t-88 62t-109.5 22.5
q-79 0 -142 -39t-99.5 -104.5t-36.5 -145.5t36.5 -145.5t99.5 -104t142 -38.5z" />
    <glyph glyph-name="uni25CC" unicode="&#x25cc;" horiz-adv-x="764" 
d="M382 -9q-14 0 -24.5 10.5t-10.5 24.5t10.5 24.5t24.5 10.5t24.5 -10.5t10.5 -24.5t-10.5 -24.5t-24.5 -10.5zM502 15q-14 0 -24.5 10.5t-10.5 24.5t10.5 24.5t24.5 10.5t24.5 -10.5t10.5 -24.5t-10.5 -24.5t-24.5 -10.5zM604 83q-14 0 -24.5 10.5t-10.5 24.5t10.5 24.5
t24.5 10.5t24.5 -10.5t10.5 -24.5t-10.5 -24.5t-24.5 -10.5zM672 185q-14 0 -24.5 10.5t-10.5 24.5t10.5 24.5t24.5 10.5t24.5 -10.5t10.5 -24.5t-10.5 -24.5t-24.5 -10.5zM696 305q-14 0 -24.5 10.5t-10.5 24.5t10.5 24.5t24.5 10.5t24.5 -10.5t10.5 -24.5t-10.5 -24.5
t-24.5 -10.5zM672 425q-14 0 -24.5 10.5t-10.5 24.5t10.5 24.5t24.5 10.5t24.5 -10.5t10.5 -24.5t-10.5 -24.5t-24.5 -10.5zM604 527q-14 0 -24.5 10.5t-10.5 24.5t10.5 24.5t24.5 10.5t24.5 -10.5t10.5 -24.5t-10.5 -24.5t-24.5 -10.5zM502 595q-14 0 -24.5 10.5
t-10.5 24.5t10.5 24.5t24.5 10.5t24.5 -10.5t10.5 -24.5t-10.5 -24.5t-24.5 -10.5zM382 619q-14 0 -24.5 10.5t-10.5 24.5t10.5 24.5t24.5 10.5t24.5 -10.5t10.5 -24.5t-10.5 -24.5t-24.5 -10.5zM262 595q-14 0 -24.5 10.5t-10.5 24.5t10.5 24.5t24.5 10.5t24.5 -10.5
t10.5 -24.5t-10.5 -24.5t-24.5 -10.5zM160 527q-14 0 -24.5 10.5t-10.5 24.5t10.5 24.5t24.5 10.5t24.5 -10.5t10.5 -24.5t-10.5 -24.5t-24.5 -10.5zM92 425q-14 0 -24.5 10.5t-10.5 24.5t10.5 24.5t24.5 10.5t24.5 -10.5t10.5 -24.5t-10.5 -24.5t-24.5 -10.5zM68 305
q-14 0 -24.5 10.5t-10.5 24.5t10.5 24.5t24.5 10.5t24.5 -10.5t10.5 -24.5t-10.5 -24.5t-24.5 -10.5zM92 185q-14 0 -24.5 10.5t-10.5 24.5t10.5 24.5t24.5 10.5t24.5 -10.5t10.5 -24.5t-10.5 -24.5t-24.5 -10.5zM160 83q-14 0 -24.5 10.5t-10.5 24.5t10.5 24.5t24.5 10.5
t24.5 -10.5t10.5 -24.5t-10.5 -24.5t-24.5 -10.5zM262 15q-14 0 -24.5 10.5t-10.5 24.5t10.5 24.5t24.5 10.5t24.5 -10.5t10.5 -24.5t-10.5 -24.5t-24.5 -10.5z" />
    <glyph glyph-name="uni25CF" unicode="&#x25cf;" horiz-adv-x="717" 
d="M359 23q-65 0 -121 24.5t-98 68t-65.5 101t-23.5 124.5t23.5 125t65.5 101.5t98 68t121 24.5t121 -24.5t97.5 -68t65 -101.5t23.5 -125t-23.5 -124.5t-65 -101t-97.5 -68t-121 -24.5z" />
    <glyph glyph-name="uni2780" unicode="&#x2780;" horiz-adv-x="779" 
d="M390 -21q-74 0 -138 27.5t-112 77t-75 115.5t-27 142t27 142t75 115.5t112 77.5t138 28t137.5 -28t111.5 -77.5t75 -115.5t27 -142t-27 -142t-75 -115.5t-111.5 -77t-137.5 -27.5zM353 141v273q-16 -10 -40.5 -15.5t-54.5 -5.5v86q36 0 62 7.5t42.5 21t22.5 31.5h58v-398
h-90zM390 53q79 0 141.5 38.5t99 104t36.5 145.5q0 60 -21 112.5t-58.5 92t-88 62t-109.5 22.5q-79 0 -142 -39t-99.5 -104.5t-36.5 -145.5t36.5 -145.5t99.5 -104t142 -38.5z" />
    <glyph glyph-name="uni2781" unicode="&#x2781;" horiz-adv-x="779" 
d="M390 -21q-74 0 -138 27.5t-112 77t-75 115.5t-27 142t27 142t75 115.5t112 77.5t138 28t137.5 -28t111.5 -77.5t75 -115.5t27 -142t-27 -142t-75 -115.5t-111.5 -77t-137.5 -27.5zM390 53q79 0 141.5 38.5t99 104t36.5 145.5q0 60 -21 112.5t-58.5 92t-88 62t-109.5 22.5
q-79 0 -142 -39t-99.5 -104.5t-36.5 -145.5t36.5 -145.5t99.5 -104t142 -38.5zM245 148v53l116 118q34 35 54 61.5t20 48.5t-15 33t-33 11q-19 0 -37.5 -9.5t-39.5 -37.5l-68 46q26 38 59.5 60t85.5 22q37 0 67.5 -15.5t49 -42.5t18.5 -64q0 -29 -18.5 -60.5t-56.5 -72.5
l-62 -66h142v-85h-282z" />
    <glyph glyph-name="uni2782" unicode="&#x2782;" horiz-adv-x="779" 
d="M390 -21q-74 0 -138 27.5t-112 77t-75 115.5t-27 142t27 142t75 115.5t112 77.5t138 28t137.5 -28t111.5 -77.5t75 -115.5t27 -142t-27 -142t-75 -115.5t-111.5 -77t-137.5 -27.5zM390 53q79 0 141.5 38.5t99 104t36.5 145.5q0 60 -21 112.5t-58.5 92t-88 62t-109.5 22.5
q-79 0 -142 -39t-99.5 -104.5t-36.5 -145.5t36.5 -145.5t99.5 -104t142 -38.5zM383 133q-44 0 -80 18.5t-57 52.5l55 56q23 -27 39.5 -37t44.5 -10q23 0 40.5 11.5t17.5 32.5q0 17 -15 34t-62 17q-10 0 -22.5 -0.5t-20.5 -1.5v68q17 -1 22.5 -1.5t16.5 -0.5q29 0 46.5 15
t17.5 40q0 19 -15 30.5t-39 11.5q-20 0 -40.5 -12.5t-37.5 -35.5l-54 56q32 38 64.5 54.5t76.5 16.5q57 0 93.5 -29.5t36.5 -75.5q0 -60 -44 -89q31 -13 49.5 -36t18.5 -52q0 -38 -20 -68.5t-54.5 -47.5t-77.5 -17z" />
    <glyph glyph-name="uni2783" unicode="&#x2783;" horiz-adv-x="779" 
d="M390 -21q-74 0 -138 27.5t-112 77t-75 115.5t-27 142t27 142t75 115.5t112 77.5t138 28t137.5 -28t111.5 -77.5t75 -115.5t27 -142t-27 -142t-75 -115.5t-111.5 -77t-137.5 -27.5zM390 53q79 0 141.5 38.5t99 104t36.5 145.5q0 60 -21 112.5t-58.5 92t-88 62t-109.5 22.5
q-79 0 -142 -39t-99.5 -104.5t-36.5 -145.5t36.5 -145.5t99.5 -104t142 -38.5zM406 145v86h-191v37l77 275h88l-64 -227h90l24 103h65v-103h53v-85h-53v-86h-89z" />
    <glyph glyph-name="uni2784" unicode="&#x2784;" horiz-adv-x="779" 
d="M390 -21q-74 0 -138 27.5t-112 77t-75 115.5t-27 142t27 142t75 115.5t112 77.5t138 28t137.5 -28t111.5 -77.5t75 -115.5t27 -142t-27 -142t-75 -115.5t-111.5 -77t-137.5 -27.5zM384 132q-28 0 -52 8t-42.5 22.5t-30.5 34.5l55 50q11 -16 29.5 -27.5t43.5 -11.5
q24 0 43 15.5t19 42.5q0 23 -16.5 39t-42.5 16q-23 0 -41.5 -10.5t-30.5 -26.5l-60 15v239h253v-85h-174v-77q13 9 29 14.5t35 5.5q59 0 95 -35t36 -92q0 -40 -19.5 -71t-53 -48.5t-75.5 -17.5zM390 53q79 0 141.5 38.5t99 104t36.5 145.5q0 60 -21 112.5t-58.5 92t-88 62
t-109.5 22.5q-79 0 -142 -39t-99.5 -104.5t-36.5 -145.5t36.5 -145.5t99.5 -104t142 -38.5z" />
    <glyph glyph-name="uni2785" unicode="&#x2785;" horiz-adv-x="779" 
d="M390 -21q-74 0 -138 27.5t-112 77t-75 115.5t-27 142t27 142t75 115.5t112 77.5t138 28t137.5 -28t111.5 -77.5t75 -115.5t27 -142t-27 -142t-75 -115.5t-111.5 -77t-137.5 -27.5zM390 53q79 0 141.5 38.5t99 104t36.5 145.5q0 60 -21 112.5t-58.5 92t-88 62t-109.5 22.5
q-79 0 -142 -39t-99.5 -104.5t-36.5 -145.5t36.5 -145.5t99.5 -104t142 -38.5zM386 136q-45 0 -80 23.5t-55.5 64.5t-20.5 94q0 110 48 171t134 61q38 0 72.5 -14.5t58.5 -41.5l-49 -58q-19 20 -40 28t-47 8q-34 0 -62.5 -28t-34.5 -88q20 17 44 27t51 10q39 0 69.5 -15.5
t47.5 -42.5t17 -62q0 -61 -41 -99t-112 -38zM392 208q30 0 48 16.5t18 42.5t-18 42t-48 16q-29 0 -47.5 -16t-18.5 -42t18.5 -42.5t47.5 -16.5z" />
    <glyph glyph-name="uni2786" unicode="&#x2786;" horiz-adv-x="779" 
d="M390 -21q-74 0 -138 27.5t-112 77t-75 115.5t-27 142t27 142t75 115.5t112 77.5t138 28t137.5 -28t111.5 -77.5t75 -115.5t27 -142t-27 -142t-75 -115.5t-111.5 -77t-137.5 -27.5zM390 53q79 0 141.5 38.5t99 104t36.5 145.5q0 60 -21 112.5t-58.5 92t-88 62t-109.5 22.5
q-79 0 -142 -39t-99.5 -104.5t-36.5 -145.5t36.5 -145.5t99.5 -104t142 -38.5zM281 140l136 313h-165v85h277v-50l-153 -348h-95z" />
    <glyph glyph-name="uni2787" unicode="&#x2787;" horiz-adv-x="779" 
d="M390 -21q-74 0 -138 27.5t-112 77t-75 115.5t-27 142t27 142t75 115.5t112 77.5t138 28t137.5 -28t111.5 -77.5t75 -115.5t27 -142t-27 -142t-75 -115.5t-111.5 -77t-137.5 -27.5zM390 205q27 0 42.5 17t15.5 37q0 19 -15.5 37.5t-42.5 18.5q-29 0 -45 -18t-16 -38
q0 -21 16.5 -37.5t44.5 -16.5zM390 53q79 0 141.5 38.5t99 104t36.5 145.5q0 60 -21 112.5t-58.5 92t-88 62t-109.5 22.5q-79 0 -142 -39t-99.5 -104.5t-36.5 -145.5t36.5 -145.5t99.5 -104t142 -38.5zM390 133q-48 0 -82 16.5t-51.5 44.5t-17.5 62q0 26 15.5 52.5
t50.5 39.5q-33 16 -46 38.5t-13 44.5q0 31 17 57.5t49 42.5t78 16q45 0 76.5 -16.5t48.5 -42.5t17 -57q0 -22 -13 -44.5t-46 -37.5q35 -15 51 -41.5t16 -53.5q0 -32 -17.5 -60t-51 -44.5t-81.5 -16.5zM390 372q23 0 37 17.5t14 35.5t-14 34.5t-37 16.5q-25 0 -39 -16
t-14 -35q0 -18 14 -35.5t39 -17.5z" />
    <glyph glyph-name="uni2788" unicode="&#x2788;" horiz-adv-x="779" 
d="M390 -21q-74 0 -138 27.5t-112 77t-75 115.5t-27 142t27 142t75 115.5t112 77.5t138 28t137.5 -28t111.5 -77.5t75 -115.5t27 -142t-27 -142t-75 -115.5t-111.5 -77t-137.5 -27.5zM390 53q79 0 141.5 38.5t99 104t36.5 145.5q0 60 -21 112.5t-58.5 92t-88 62t-109.5 22.5
q-79 0 -142 -39t-99.5 -104.5t-36.5 -145.5t36.5 -145.5t99.5 -104t142 -38.5zM367 133q-37 0 -72 14.5t-59 41.5l49 58q20 -19 40 -27.5t48 -8.5q32 0 61 28t35 88q-20 -17 -44 -27t-51 -10q-39 0 -69.5 15.5t-47.5 42.5t-17 62q0 61 41.5 99t111.5 38q45 0 80.5 -23.5
t55.5 -64.5t20 -94q0 -110 -48 -171t-134 -61zM387 358q29 0 47.5 16.5t18.5 41.5q0 26 -18.5 42.5t-47.5 16.5q-30 0 -48 -16.5t-18 -42.5q0 -25 18 -41.5t48 -16.5z" />
    <glyph glyph-name="uni278A" unicode="&#x278a;" horiz-adv-x="717" 
d="M359 23q-65 0 -121 24.5t-98 68t-65.5 101t-23.5 124.5t23.5 125t65.5 101.5t98 68t121 24.5t121 -24.5t97.5 -68t65 -101.5t23.5 -125t-23.5 -124.5t-65 -101t-97.5 -68t-121 -24.5zM322 141h90v398h-58q-6 -18 -22.5 -31.5t-42.5 -21t-62 -7.5v-86q30 0 54.5 5.5
t40.5 15.5v-273z" />
    <glyph glyph-name="uni278B" unicode="&#x278b;" horiz-adv-x="717" 
d="M51 341q0 67 23.5 125t65.5 101.5t98 68t121 24.5t121 -24.5t97.5 -68t65 -101.5t23.5 -125t-23.5 -124.5t-65 -101t-97.5 -68t-121 -24.5t-121 24.5t-98 68t-65.5 101t-23.5 124.5zM496 233h-142l62 66q38 41 56.5 72.5t18.5 60.5q0 37 -18.5 64t-49 42.5t-67.5 15.5
q-52 0 -85.5 -22t-59.5 -60l68 -46q21 28 39.5 37.5t37.5 9.5q18 0 33 -11t15 -33t-20 -48.5t-54 -61.5l-116 -118v-53h282v85z" />
    <glyph glyph-name="uni278C" unicode="&#x278c;" horiz-adv-x="717" 
d="M51 341q0 67 23.5 125t65.5 101.5t98 68t121 24.5t121 -24.5t97.5 -68t65 -101.5t23.5 -125t-23.5 -124.5t-65 -101t-97.5 -68t-121 -24.5t-121 24.5t-98 68t-65.5 101t-23.5 124.5zM504 266q0 29 -18.5 52t-49.5 36q44 29 44 89q0 46 -36.5 75.5t-93.5 29.5
q-44 0 -76.5 -16.5t-64.5 -54.5l54 -56q17 23 37.5 35.5t40.5 12.5q24 0 39 -11.5t15 -30.5q0 -25 -17.5 -40t-46.5 -15q-11 0 -16.5 0.5t-22.5 1.5v-68q8 1 20.5 1.5t22.5 0.5q47 0 62 -17t15 -34q0 -21 -17.5 -32.5t-40.5 -11.5q-28 0 -44.5 10t-39.5 37l-55 -56
q21 -34 57 -52.5t80 -18.5q43 0 77.5 17t54.5 47.5t20 68.5z" />
    <glyph glyph-name="uni278D" unicode="&#x278d;" horiz-adv-x="717" 
d="M51 341q0 67 23.5 125t65.5 101.5t98 68t121 24.5t121 -24.5t97.5 -68t65 -101.5t23.5 -125t-23.5 -124.5t-65 -101t-97.5 -68t-121 -24.5t-121 24.5t-98 68t-65.5 101t-23.5 124.5zM517 231v85h-53v103h-65l-24 -103h-90l64 227h-88l-77 -275v-37h191v-86h89v86h53z" />
    <glyph glyph-name="uni278E" unicode="&#x278e;" horiz-adv-x="717" 
d="M359 23q-65 0 -121 24.5t-98 68t-65.5 101t-23.5 124.5t23.5 125t65.5 101.5t98 68t121 24.5t121 -24.5t97.5 -68t65 -101.5t23.5 -125t-23.5 -124.5t-65 -101t-97.5 -68t-121 -24.5zM353 132q42 0 75.5 17.5t53 48.5t19.5 71q0 57 -36 92t-95 35q-19 0 -35 -5.5
t-29 -14.5v77h174v85h-253v-239l60 -15q12 16 30.5 26.5t41.5 10.5q26 0 42.5 -16t16.5 -39q0 -27 -19 -42.5t-43 -15.5q-25 0 -43.5 11.5t-29.5 27.5l-55 -50q12 -20 30.5 -34.5t42.5 -22.5t52 -8z" />
    <glyph glyph-name="uni278F" unicode="&#x278f;" horiz-adv-x="717" 
d="M666 342q0 -67 -23.5 -125t-65.5 -101.5t-98 -68t-121 -24.5t-121 24.5t-97.5 68t-65 101.5t-23.5 125t23.5 124.5t65 101t97.5 68t121 24.5t121 -24.5t98 -68t65.5 -101t23.5 -124.5zM199 318q0 -53 20 -94t55.5 -64.5t80.5 -23.5q71 0 112 38t41 99q0 35 -17 62
t-47.5 42.5t-69.5 15.5q-27 0 -51 -10t-44 -27q6 60 35 88t61 28q27 0 48 -8t40 -28l49 58q-24 27 -58.5 41.5t-72.5 14.5q-86 0 -134 -61t-48 -171zM295 267q0 26 18.5 42t47.5 16q30 0 48 -16t18 -42t-18 -42.5t-48 -16.5q-29 0 -47.5 16.5t-18.5 42.5z" />
    <glyph glyph-name="uni2790" unicode="&#x2790;" horiz-adv-x="717" 
d="M51 341q0 67 23.5 125t65.5 101.5t98 68t121 24.5t121 -24.5t97.5 -68t65 -101.5t23.5 -125t-23.5 -124.5t-65 -101t-97.5 -68t-121 -24.5t-121 24.5t-98 68t-65.5 101t-23.5 124.5zM498 488v50h-277v-85h165l-136 -313h95z" />
    <glyph glyph-name="uni2791" unicode="&#x2791;" horiz-adv-x="717" 
d="M359 23q-65 0 -121 24.5t-98 68t-65.5 101t-23.5 124.5t23.5 125t65.5 101.5t98 68t121 24.5t121 -24.5t97.5 -68t65 -101.5t23.5 -125t-23.5 -124.5t-65 -101t-97.5 -68t-121 -24.5zM359 205q-28 0 -44.5 16.5t-16.5 37.5q0 20 16 38t45 18q27 0 42.5 -18.5t15.5 -37.5
q0 -20 -15.5 -37t-42.5 -17zM359 133q48 0 81.5 16.5t51 44.5t17.5 60q0 27 -16 53.5t-51 41.5q33 15 46 37.5t13 44.5q0 31 -16.5 57t-48.5 42.5t-77 16.5q-46 0 -78 -16t-49 -42.5t-17 -57.5q0 -22 13 -44.5t46 -38.5q-35 -13 -50.5 -39.5t-15.5 -52.5q0 -34 17.5 -62
t51.5 -44.5t82 -16.5zM359 372q-25 0 -39 17.5t-14 35.5q0 19 14 35t39 16q23 0 37 -16.5t14 -34.5t-14 -35.5t-37 -17.5z" />
    <glyph glyph-name="uni2792" unicode="&#x2792;" horiz-adv-x="717" 
d="M51 341q0 67 23.5 125t65.5 101.5t98 68t121 24.5t121 -24.5t97.5 -68t65 -101.5t23.5 -125t-23.5 -124.5t-65 -101t-97.5 -68t-121 -24.5t-121 24.5t-98 68t-65.5 101t-23.5 124.5zM518 365q0 53 -20 94t-55.5 64.5t-80.5 23.5q-70 0 -111.5 -38t-41.5 -99q0 -35 17 -62
t47.5 -42.5t69.5 -15.5q27 0 51 10t44 27q-6 -60 -34.5 -88t-60.5 -28q-29 0 -49 8.5t-40 27.5l-49 -58q24 -27 59 -41.5t72 -14.5q86 0 134 61t48 171zM422 416q0 -25 -18.5 -41.5t-47.5 -16.5q-30 0 -48 16.5t-18 41.5q0 26 18 42.5t48 16.5q29 0 47.5 -16.5t18.5 -42.5z
" />
    <glyph glyph-name="uni27D1" unicode="&#x27d1;" horiz-adv-x="649" 
d="M324 71q-25 0 -43 17.5t-18 42.5q0 26 18 44t43 18q26 0 43.5 -18t17.5 -44q0 -25 -17.5 -42.5t-43.5 -17.5zM132 -12l-77 37l235 483h68l236 -484l-77 -37l-211 441h36z" />
    <glyph glyph-name="uni3000" unicode="&#x3000;" horiz-adv-x="1000" 
 />
    <glyph glyph-name="fi" unicode="&#xfb01;" horiz-adv-x="546" 
d="M101 0v536q0 53 17 87t48 50.5t74 16.5q20 0 36 -3t29 -7v-93q-11 2 -21.5 3.5t-24.5 1.5q-22 0 -40 -14.5t-18 -49.5v-528h-100zM295 396h-269v92h269v-92zM480 0h-100v488h100v-488zM365 638q0 29 17.5 47.5t47.5 18.5q29 0 47 -18.5t18 -47.5q0 -28 -18 -46.5
t-47 -18.5q-30 0 -47.5 18.5t-17.5 46.5z" />
    <glyph glyph-name="fl" unicode="&#xfb02;" horiz-adv-x="571" 
d="M101 0v536q0 53 17 87t48 50.5t74 16.5q20 0 36 -3t29 -7v-93q-11 2 -21.5 3.5t-24.5 1.5q-22 0 -40 -14.5t-18 -49.5v-528h-100zM295 396h-269v92h269v-92zM477 -5q-26 0 -46 12.5t-31.5 36.5t-11.5 59v578h98v-543q0 -31 15.5 -42t35.5 -11v-80q-13 -5 -28 -7.5
t-32 -2.5z" />
    <glyph glyph-name="uniFFE3" unicode="&#xffe3;" horiz-adv-x="289" 
d="M280 820h-271v96h271v-96z" />
    <glyph glyph-name="u1F10B" unicode="&#x1f10b;" horiz-adv-x="779" 
d="M390 -21q-74 0 -138 27.5t-112 77t-75 115.5t-27 142t27 142t75 115.5t112 77.5t138 28t137.5 -28t111.5 -77.5t75 -115.5t27 -142t-27 -142t-75 -115.5t-111.5 -77t-137.5 -27.5zM390 53q79 0 141.5 38.5t99 104t36.5 145.5q0 60 -21 112.5t-58.5 92t-88 62t-109.5 22.5
q-79 0 -142 -39t-99.5 -104.5t-36.5 -145.5t36.5 -145.5t99.5 -104t142 -38.5zM390 134q-73 0 -116 56t-43 151t43 151t116 56q74 0 116 -56t42 -151t-42 -151t-116 -56zM390 217q37 0 53 37.5t16 86.5q0 36 -7 63.5t-22 43.5t-40 16t-40.5 -16t-22.5 -43.5t-7 -63.5
q0 -49 16.5 -86.5t53.5 -37.5z" />
    <glyph glyph-name="u1F10C" unicode="&#x1f10c;" horiz-adv-x="717" 
d="M359 23q-65 0 -121 24.5t-98 68t-65.5 101t-23.5 124.5t23.5 125t65.5 101.5t98 68t121 24.5t121 -24.5t97.5 -68t65 -101.5t23.5 -125t-23.5 -124.5t-65 -101t-97.5 -68t-121 -24.5zM359 134q74 0 116 56t42 151t-42 151t-116 56q-73 0 -116 -56t-43 -151t43 -151
t116 -56zM359 217q-37 0 -53.5 37.5t-16.5 86.5q0 36 7 63.5t22.5 43.5t40.5 16t40 -16t22 -43.5t7 -63.5q0 -49 -16 -86.5t-53 -37.5z" />
    <glyph glyph-name="uni004A0301" horiz-adv-x="530" 
d="M248 79q49 0 74.5 29.5t25.5 80.5v492h102v-492q0 -61 -25 -107t-70.5 -71.5t-105.5 -25.5q-61 0 -106.5 23t-70.5 68t-25 110v41h102v-35q0 -59 26 -86t73 -27zM389 750l-50 52l152 140l51 -51z" />
    <glyph glyph-name="J.alt" horiz-adv-x="318" 
d="M9 -15v94h13q51 0 76.5 19.5t34 63t8.5 113.5v406h100v-461q0 -73 -21 -126t-69 -81t-128 -28h-14z" />
    <glyph glyph-name="i.loclTRK" horiz-adv-x="232" 
d="M166 0h-100v488h100v-488zM51 638q0 29 17.5 47.5t47.5 18.5q29 0 47 -18.5t18 -47.5q0 -28 -18 -46.5t-47 -18.5q-30 0 -47.5 18.5t-17.5 46.5z" />
    <glyph glyph-name="uni006A0301" horiz-adv-x="236" 
d="M60 -194q-25 0 -40 4.5t-20 6.5v84q5 -1 13 -3t18 -2q20 0 30 13t10 35v544h100v-541q0 -38 -11.5 -70.5t-36 -51.5t-63.5 -19zM111 557l-50 52l152 140l51 -51z" />
    <glyph glyph-name="zero.tf" horiz-adv-x="540" 
d="M270 -10q-71 0 -123.5 42t-80.5 120.5t-28 187.5q0 108 28 186.5t80.5 121t123.5 42.5q72 0 124 -42.5t80 -121t28 -186.5q0 -109 -28 -187.5t-80 -120.5t-124 -42zM270 86q46 0 74.5 33.5t42.5 91.5t14 129q0 64 -14 122t-42.5 95t-74.5 37q-47 0 -76.5 -37t-42.5 -95
t-13 -122q0 -71 13 -129t42.5 -91.5t76.5 -33.5z" />
    <glyph glyph-name="one.tf" horiz-adv-x="540" 
d="M242 577l37 -15q-9 -19 -33 -37t-65 -30t-103 -12v96q53 0 90.5 12.5t62 35.5t36.5 54h75v-681h-100v577zM509 0h-444v96h444v-96z" />
    <glyph glyph-name="two.tf" horiz-adv-x="540" 
d="M480 506q0 -64 -27 -122t-86 -122l-208 -227l-3 59h333v-94h-419v82l202 217q43 46 66.5 80t33 62t9.5 56q0 47 -27.5 72.5t-71.5 25.5t-82 -23.5t-73 -74.5l-74 52q38 64 92.5 102.5t138.5 38.5q61 0 104.5 -24.5t67.5 -66t24 -93.5z" />
    <glyph glyph-name="three.tf" horiz-adv-x="540" 
d="M253 -10q-67 0 -116.5 25.5t-96.5 76.5l64 66q28 -25 50.5 -40.5t46 -22.5t51.5 -7q62 0 93 31t31 78q0 48 -22.5 74.5t-59.5 37.5t-81 11q-12 0 -25.5 -0.5t-22.5 -1.5v88q17 -1 23.5 -1h17.5q70 0 109 27.5t39 80.5q0 33 -31 56t-80 23q-40 0 -69 -16t-58 -51l-64 61
q33 38 63 61t62 33t68 10q62 0 107.5 -21t70.5 -58.5t25 -88.5q0 -58 -29.5 -101t-79.5 -66.5t-113 -23.5v61q70 0 127 -22.5t90.5 -67.5t33.5 -114q0 -53 -27.5 -98t-78 -72.5t-118.5 -27.5z" />
    <glyph glyph-name="four.tf" horiz-adv-x="540" 
d="M434 429v-429h-102v228l-21 35l67 166h56zM38 169v62l179 450h102l-181 -467l-22 51h409v-96h-487z" />
    <glyph glyph-name="five.tf" horiz-adv-x="540" 
d="M137 279l-70 19v383h377v-96h-321l39 32v-301l-52 16q2 28 25.5 53.5t63 42.5t87.5 17q54 0 100.5 -26.5t75 -74t28.5 -112.5q0 -79 -31 -133t-81.5 -81.5t-110.5 -27.5q-53 0 -95 13.5t-73.5 38.5t-54.5 59l73 57q27 -37 63.5 -54t72.5 -17q62 0 98.5 38t36.5 101
q0 53 -37.5 85t-90.5 32q-35 0 -67.5 -17.5t-55.5 -46.5z" />
    <glyph glyph-name="six.tf" horiz-adv-x="540" 
d="M34 331q0 109 32.5 189.5t90.5 125t135 44.5q42 0 73.5 -5.5t59.5 -19.5t60 -40l-54 -75q-24 17 -46 27t-44 14.5t-48 4.5q-45 0 -82.5 -30.5t-60 -94t-22.5 -163.5l-19 -6q20 59 66.5 93t113.5 34q74 0 122.5 -27.5t73 -73.5t24.5 -102q0 -69 -29 -122.5t-80.5 -83.5
t-120.5 -30q-74 0 -129.5 34.5t-85.5 109.5t-30 197zM142 215q0 -58 36 -94.5t94 -36.5q62 0 97.5 36.5t35.5 94.5q0 53 -35.5 85.5t-97.5 32.5q-58 0 -94 -32.5t-36 -85.5z" />
    <glyph glyph-name="seven.tf" horiz-adv-x="540" 
d="M94 0l342 651l55 -66h-433v96h456v-85l-311 -596h-109z" />
    <glyph glyph-name="eight.tf" horiz-adv-x="540" 
d="M270 -10q-71 0 -120 26t-74 69.5t-25 94.5q0 54 23 93.5t63 64t91 34.5v-49q-45 12 -80 35.5t-55 60.5t-20 86q0 53 22 94.5t66.5 66t110.5 24.5q64 0 107.5 -24.5t65.5 -66t22 -94.5q0 -45 -16.5 -79t-46 -58t-68.5 -38l-1 37q46 -12 80.5 -37t54 -62.5t19.5 -87.5
q0 -51 -25 -94.5t-74 -69.5t-120 -26zM270 88q53 0 85.5 28t32.5 74q0 55 -32.5 88t-85.5 33t-85.5 -33t-32.5 -88q0 -46 32.5 -74t85.5 -28zM270 405q47 0 74.5 27.5t27.5 73.5q0 39 -27.5 62.5t-74.5 23.5q-46 0 -74 -23.5t-28 -62.5q0 -46 28 -73.5t74 -27.5z" />
    <glyph glyph-name="nine.tf" horiz-adv-x="540" 
d="M509 349q0 -109 -32.5 -189.5t-90.5 -125t-135 -44.5q-42 0 -73.5 5.5t-59.5 20t-60 39.5l54 75q24 -17 46 -27t44.5 -14.5t47.5 -4.5q46 0 83 30.5t59.5 94t22.5 163.5l19 6q-20 -59 -66 -93t-114 -34q-73 0 -122 27.5t-73.5 74t-24.5 101.5q0 70 29 123t81 83t120 30
q75 0 130 -34.5t85 -109.5t30 -197zM401 465q0 59 -35.5 95t-94.5 36q-61 0 -97 -36t-36 -95q0 -52 36 -85t97 -33q59 0 94.5 33t35.5 85z" />
    <glyph glyph-name="zero.dnom" horiz-adv-x="369" 
d="M185 -8q-73 0 -116 56t-43 151t43 151t116 56q74 0 116 -56t42 -151t-42 -151t-116 -56zM185 322q-25 0 -40.5 -16t-22.5 -43.5t-7 -63.5q0 -49 16.5 -86.5t53.5 -37.5t53 37.5t16 86.5q0 36 -7 63.5t-22 43.5t-40 16z" />
    <glyph glyph-name="one.dnom" horiz-adv-x="232" 
d="M104 318l31 -9q-9 -26 -42 -41.5t-84 -15.5v86q36 0 62.5 7.5t42.5 21t22 31.5h58v-398h-90v318z" />
    <glyph glyph-name="two.dnom" horiz-adv-x="341" 
d="M306 284q0 -29 -18.5 -60.5t-56.5 -72.5l-80 -85l-11 19h171v-85h-282v53l116 118q34 35 54 61.5t20 48.5t-15 33t-33 11q-19 0 -37.5 -9.5t-39.5 -37.5l-68 46q26 38 59.5 60t85.5 22q37 0 67.5 -15.5t49 -42.5t18.5 -64z" />
    <glyph glyph-name="three.dnom" horiz-adv-x="325" 
d="M156 -9q-44 0 -80 18.5t-57 52.5l55 56q15 -18 27 -28t25 -14.5t32 -4.5q23 0 40.5 11.5t17.5 32.5q0 17 -15 34t-62 17q-10 0 -22.5 -0.5t-20.5 -1.5v68q17 -1 22.5 -1.5t16.5 -0.5q29 0 46.5 15t17.5 40q0 19 -15 30.5t-39 11.5q-20 0 -40.5 -12.5t-37.5 -35.5l-54 56
q32 38 64.5 54.5t76.5 16.5q57 0 93.5 -29.5t36.5 -75.5q0 -53 -35 -82t-103 -29l21 37q39 0 71 -13.5t51 -37t19 -52.5q0 -38 -20 -68.5t-54.5 -47.5t-77.5 -17z" />
    <glyph glyph-name="four.dnom" horiz-adv-x="357" 
d="M287 274v-274h-89v138l1 27l23 109h65zM9 86v37l92 275h88l-95 -285l-10 58h256v-85h-331z" />
    <glyph glyph-name="five.dnom" horiz-adv-x="333" 
d="M98 144l-60 15v239h253v-85h-212l38 17v-153l-34 9q0 15 13 31t35.5 27.5t49.5 11.5q59 0 95 -35t36 -92q0 -40 -19.5 -71t-53 -48.5t-75.5 -17.5q-28 0 -52 8t-42.5 22.5t-30.5 34.5l55 50q11 -16 29.5 -27.5t43.5 -11.5q24 0 43 15.5t19 42.5q0 23 -16.5 39t-42.5 16
q-23 0 -41.5 -10.5t-30.5 -26.5z" />
    <glyph glyph-name="six.dnom" horiz-adv-x="343" 
d="M17 174q0 110 48 171t134 61q38 0 72.5 -14.5t58.5 -41.5l-49 -58q-19 20 -39.5 28t-48.5 8q-35 0 -64.5 -31.5t-32.5 -99.5h-15q23 24 50.5 38t60.5 14q39 0 69.5 -15.5t47.5 -42.5t17 -62q0 -61 -41 -99t-112 -38q-45 0 -80 23.5t-55.5 64.5t-20.5 94zM113 123
q0 -26 18.5 -42.5t47.5 -16.5q30 0 48 16.5t18 42.5t-18 42t-48 16q-29 0 -47.5 -16t-18.5 -42z" />
    <glyph glyph-name="seven.dnom" horiz-adv-x="325" 
d="M51 0l163 324l10 -11h-203v85h300v-50l-175 -348h-95z" />
    <glyph glyph-name="eight.dnom" horiz-adv-x="343" 
d="M172 -8q-49 0 -82.5 16.5t-51 44.5t-17.5 62q0 28 17 55.5t57 39.5l-1 -6q-37 15 -51.5 39t-14.5 47q0 31 17 57.5t49 42.5t78 16q45 0 77 -16.5t48.5 -42.5t16.5 -57q0 -24 -15.5 -48.5t-54.5 -38.5v9q41 -13 59.5 -41.5t18.5 -57.5q0 -32 -17.5 -60t-51 -44.5
t-81.5 -16.5zM172 64q27 0 42.5 17t15.5 37q0 19 -15.5 37.5t-42.5 18.5q-29 0 -45 -18t-16 -38q0 -21 16.5 -37.5t44.5 -16.5zM172 231q23 0 37 17.5t14 35.5t-14 34.5t-37 16.5q-25 0 -39 -16t-14 -35q0 -18 14 -35.5t39 -17.5z" />
    <glyph glyph-name="nine.dnom" horiz-adv-x="343" 
d="M326 224q0 -110 -48 -171t-134 -61q-37 0 -72 14.5t-59 41.5l49 58q20 -19 40 -27.5t48 -8.5q35 0 64.5 31.5t32.5 99.5h15q-22 -24 -50 -38t-61 -14q-39 0 -69.5 15.5t-47.5 42.5t-17 62q0 61 41.5 99t111.5 38q45 0 80.5 -23.5t55.5 -64.5t20 -94zM230 275
q0 26 -18.5 42.5t-47.5 16.5q-30 0 -48 -16.5t-18 -42.5q0 -25 18 -41.5t48 -16.5q29 0 47.5 16.5t18.5 41.5z" />
    <glyph glyph-name="zero.numr" horiz-adv-x="369" 
d="M185 275q-73 0 -116 56t-43 151t43 151t116 56q74 0 116 -56t42 -151t-42 -151t-116 -56zM185 605q-25 0 -40.5 -16t-22.5 -43.5t-7 -63.5q0 -49 16.5 -86.5t53.5 -37.5t53 37.5t16 86.5q0 36 -7 63.5t-22 43.5t-40 16z" />
    <glyph glyph-name="one.numr" horiz-adv-x="232" 
d="M104 601l31 -9q-9 -26 -42 -41.5t-84 -15.5v86q36 0 62.5 7.5t42.5 21t22 31.5h58v-398h-90v318z" />
    <glyph glyph-name="two.numr" horiz-adv-x="341" 
d="M306 567q0 -29 -18.5 -60.5t-56.5 -72.5l-80 -85l-11 19h171v-85h-282v53l116 118q34 35 54 61.5t20 48.5t-15 33t-33 11q-19 0 -37.5 -9.5t-39.5 -37.5l-68 46q26 38 59.5 60t85.5 22q37 0 67.5 -15.5t49 -42.5t18.5 -64z" />
    <glyph glyph-name="three.numr" horiz-adv-x="325" 
d="M156 274q-44 0 -80 18.5t-57 52.5l55 56q15 -18 27 -28t25 -14.5t32 -4.5q23 0 40.5 11.5t17.5 32.5q0 17 -15 34t-62 17q-10 0 -22.5 -0.5t-20.5 -1.5v68q17 -1 22.5 -1.5t16.5 -0.5q29 0 46.5 15t17.5 40q0 19 -15 30.5t-39 11.5q-20 0 -40.5 -12.5t-37.5 -35.5l-54 56
q32 38 64.5 54.5t76.5 16.5q57 0 93.5 -29.5t36.5 -75.5q0 -53 -35 -82t-103 -29l21 37q39 0 71 -13.5t51 -37t19 -52.5q0 -38 -20 -68.5t-54.5 -47.5t-77.5 -17z" />
    <glyph glyph-name="four.numr" horiz-adv-x="357" 
d="M287 557v-274h-89v138l1 27l23 109h65zM9 369v37l92 275h88l-95 -285l-10 58h256v-85h-331z" />
    <glyph glyph-name="five.numr" horiz-adv-x="333" 
d="M98 427l-60 15v239h253v-85h-212l38 17v-153l-34 9q0 15 13 31t35.5 27.5t49.5 11.5q59 0 95 -35t36 -92q0 -40 -19.5 -71t-53 -48.5t-75.5 -17.5q-28 0 -52 8t-42.5 22.5t-30.5 34.5l55 50q11 -16 29.5 -27.5t43.5 -11.5q24 0 43 15.5t19 42.5q0 23 -16.5 39t-42.5 16
q-23 0 -41.5 -10.5t-30.5 -26.5z" />
    <glyph glyph-name="six.numr" horiz-adv-x="343" 
d="M17 457q0 110 48 171t134 61q38 0 72.5 -14.5t58.5 -41.5l-49 -58q-19 20 -39.5 28t-48.5 8q-35 0 -64.5 -31.5t-32.5 -99.5h-15q23 24 50.5 38t60.5 14q39 0 69.5 -15.5t47.5 -42.5t17 -62q0 -61 -41 -99t-112 -38q-45 0 -80 23.5t-55.5 64.5t-20.5 94zM113 406
q0 -26 18.5 -42.5t47.5 -16.5q30 0 48 16.5t18 42.5t-18 42t-48 16q-29 0 -47.5 -16t-18.5 -42z" />
    <glyph glyph-name="seven.numr" horiz-adv-x="325" 
d="M51 283l163 324l10 -11h-203v85h300v-50l-175 -348h-95z" />
    <glyph glyph-name="eight.numr" horiz-adv-x="343" 
d="M172 275q-49 0 -82.5 16.5t-51 44.5t-17.5 62q0 28 17 55.5t57 39.5l-1 -6q-37 15 -51.5 39t-14.5 47q0 31 17 57.5t49 42.5t78 16q45 0 77 -16.5t48.5 -42.5t16.5 -57q0 -24 -15.5 -48.5t-54.5 -38.5v9q41 -13 59.5 -41.5t18.5 -57.5q0 -32 -17.5 -60t-51 -44.5
t-81.5 -16.5zM172 347q27 0 42.5 17t15.5 37q0 19 -15.5 37.5t-42.5 18.5q-29 0 -45 -18t-16 -38q0 -21 16.5 -37.5t44.5 -16.5zM172 514q23 0 37 17.5t14 35.5t-14 34.5t-37 16.5q-25 0 -39 -16t-14 -35q0 -18 14 -35.5t39 -17.5z" />
    <glyph glyph-name="nine.numr" horiz-adv-x="343" 
d="M326 507q0 -110 -48 -171t-134 -61q-37 0 -72 14.5t-59 41.5l49 58q20 -19 40 -27.5t48 -8.5q35 0 64.5 31.5t32.5 99.5h15q-22 -24 -50 -38t-61 -14q-39 0 -69.5 15.5t-47.5 42.5t-17 62q0 61 41.5 99t111.5 38q45 0 80.5 -23.5t55.5 -64.5t20 -94zM230 558
q0 26 -18.5 42.5t-47.5 16.5q-30 0 -48 -16.5t-18 -42.5q0 -25 18 -41.5t48 -16.5q29 0 47.5 16.5t18.5 41.5z" />
    <glyph glyph-name="periodcentered.loclCAT" horiz-adv-x="159" 
d="M79 296q-28 0 -48.5 20.5t-20.5 48.5t20.5 48t48.5 20q29 0 49.5 -20t20.5 -48t-20.5 -48.5t-49.5 -20.5z" />
    <glyph glyph-name="periodcentered.loclCAT.case" horiz-adv-x="179" 
d="M71 322q-20 0 -36.5 10t-26.5 27t-10 37t10 36.5t26.5 26.5t36.5 10q31 0 52.5 -22t21.5 -51q0 -30 -21.5 -52t-52.5 -22z" />
    <glyph glyph-name="uni030C.alt" 
d="M92 681v-56l-22 -142h-60v198h82z" />
    <glyph glyph-name="uni0308.narrow" 
d="M342 566q-30 0 -47.5 18.5t-17.5 46.5q0 29 17.5 47.5t47.5 18.5q29 0 47 -18.5t18 -47.5q0 -28 -18 -46.5t-47 -18.5zM198 566q-30 0 -47.5 18.5t-17.5 46.5q0 29 17.5 47.5t47.5 18.5q29 0 47 -18.5t18 -47.5q0 -28 -18 -46.5t-47 -18.5z" />
    <glyph glyph-name="uni0302.narrow" 
d="M201 558l-59 49l128 143l128 -143l-59 -49l-99 117h60z" />
    <glyph glyph-name="uni0304.narrow" 
d="M375 584h-211v70h211v-70z" />
    </font>
</defs>
</svg>
