<svg xmlns="http://www.w3.org/2000/svg" version="1.1" xmlns:xlink="http://www.w3.org/1999/xlink" xmlns:svgjs="http://svgjs.dev/svgjs" viewBox="0 0 800 800" opacity="0.25" width="800" height="800"><g stroke-width="0.25" stroke="#f9fafbff" fill="none"><rect width="80" height="80" x="0" y="0"></rect><rect width="80" height="80" x="80" y="0"></rect><rect width="80" height="80" x="160" y="0"></rect><rect width="80" height="80" x="240" y="0"></rect><rect width="80" height="80" x="320" y="0"></rect><rect width="80" height="80" x="400" y="0"></rect><rect width="80" height="80" x="480" y="0"></rect><rect width="80" height="80" x="560" y="0"></rect><rect width="80" height="80" x="640" y="0"></rect><rect width="80" height="80" x="720" y="0"></rect><rect width="80" height="80" x="800" y="0"></rect><rect width="80" height="80" x="0" y="80"></rect><rect width="80" height="80" x="80" y="80"></rect><rect width="80" height="80" x="160" y="80"></rect><rect width="80" height="80" x="240" y="80"></rect><rect width="80" height="80" x="320" y="80"></rect><rect width="80" height="80" x="400" y="80"></rect><rect width="80" height="80" x="480" y="80"></rect><rect width="80" height="80" x="560" y="80"></rect><rect width="80" height="80" x="640" y="80"></rect><rect width="80" height="80" x="720" y="80"></rect><rect width="80" height="80" x="800" y="80"></rect><rect width="80" height="80" x="0" y="160"></rect><rect width="80" height="80" x="80" y="160"></rect><rect width="80" height="80" x="160" y="160"></rect><rect width="80" height="80" x="240" y="160"></rect><rect width="80" height="80" x="320" y="160"></rect><rect width="80" height="80" x="400" y="160"></rect><rect width="80" height="80" x="480" y="160"></rect><rect width="80" height="80" x="560" y="160"></rect><rect width="80" height="80" x="640" y="160"></rect><rect width="80" height="80" x="720" y="160"></rect><rect width="80" height="80" x="800" y="160"></rect><rect width="80" height="80" x="0" y="240"></rect><rect width="80" height="80" x="80" y="240"></rect><rect width="80" height="80" x="160" y="240"></rect><rect width="80" height="80" x="240" y="240"></rect><rect width="80" height="80" x="320" y="240"></rect><rect width="80" height="80" x="400" y="240"></rect><rect width="80" height="80" x="480" y="240"></rect><rect width="80" height="80" x="560" y="240"></rect><rect width="80" height="80" x="640" y="240"></rect><rect width="80" height="80" x="720" y="240"></rect><rect width="80" height="80" x="800" y="240"></rect><rect width="80" height="80" x="0" y="320"></rect><rect width="80" height="80" x="80" y="320"></rect><rect width="80" height="80" x="160" y="320"></rect><rect width="80" height="80" x="240" y="320"></rect><rect width="80" height="80" x="320" y="320"></rect><rect width="80" height="80" x="400" y="320"></rect><rect width="80" height="80" x="480" y="320"></rect><rect width="80" height="80" x="560" y="320"></rect><rect width="80" height="80" x="640" y="320"></rect><rect width="80" height="80" x="720" y="320"></rect><rect width="80" height="80" x="800" y="320"></rect><rect width="80" height="80" x="0" y="400"></rect><rect width="80" height="80" x="80" y="400"></rect><rect width="80" height="80" x="160" y="400"></rect><rect width="80" height="80" x="240" y="400"></rect><rect width="80" height="80" x="320" y="400"></rect><rect width="80" height="80" x="400" y="400"></rect><rect width="80" height="80" x="480" y="400"></rect><rect width="80" height="80" x="560" y="400"></rect><rect width="80" height="80" x="640" y="400"></rect><rect width="80" height="80" x="720" y="400"></rect><rect width="80" height="80" x="800" y="400"></rect><rect width="80" height="80" x="0" y="480"></rect><rect width="80" height="80" x="80" y="480"></rect><rect width="80" height="80" x="160" y="480"></rect><rect width="80" height="80" x="240" y="480"></rect><rect width="80" height="80" x="320" y="480"></rect><rect width="80" height="80" x="400" y="480"></rect><rect width="80" height="80" x="480" y="480"></rect><rect width="80" height="80" x="560" y="480"></rect><rect width="80" height="80" x="640" y="480"></rect><rect width="80" height="80" x="720" y="480"></rect><rect width="80" height="80" x="800" y="480"></rect><rect width="80" height="80" x="0" y="560"></rect><rect width="80" height="80" x="80" y="560"></rect><rect width="80" height="80" x="160" y="560"></rect><rect width="80" height="80" x="240" y="560"></rect><rect width="80" height="80" x="320" y="560"></rect><rect width="80" height="80" x="400" y="560"></rect><rect width="80" height="80" x="480" y="560"></rect><rect width="80" height="80" x="560" y="560"></rect><rect width="80" height="80" x="640" y="560"></rect><rect width="80" height="80" x="720" y="560"></rect><rect width="80" height="80" x="800" y="560"></rect><rect width="80" height="80" x="0" y="640"></rect><rect width="80" height="80" x="80" y="640"></rect><rect width="80" height="80" x="160" y="640"></rect><rect width="80" height="80" x="240" y="640"></rect><rect width="80" height="80" x="320" y="640"></rect><rect width="80" height="80" x="400" y="640"></rect><rect width="80" height="80" x="480" y="640"></rect><rect width="80" height="80" x="560" y="640"></rect><rect width="80" height="80" x="640" y="640"></rect><rect width="80" height="80" x="720" y="640"></rect><rect width="80" height="80" x="800" y="640"></rect><rect width="80" height="80" x="0" y="720"></rect><rect width="80" height="80" x="80" y="720"></rect><rect width="80" height="80" x="160" y="720"></rect><rect width="80" height="80" x="240" y="720"></rect><rect width="80" height="80" x="320" y="720"></rect><rect width="80" height="80" x="400" y="720"></rect><rect width="80" height="80" x="480" y="720"></rect><rect width="80" height="80" x="560" y="720"></rect><rect width="80" height="80" x="640" y="720"></rect><rect width="80" height="80" x="720" y="720"></rect><rect width="80" height="80" x="800" y="720"></rect><rect width="80" height="80" x="0" y="800"></rect><rect width="80" height="80" x="80" y="800"></rect><rect width="80" height="80" x="160" y="800"></rect><rect width="80" height="80" x="240" y="800"></rect><rect width="80" height="80" x="320" y="800"></rect><rect width="80" height="80" x="400" y="800"></rect><rect width="80" height="80" x="480" y="800"></rect><rect width="80" height="80" x="560" y="800"></rect><rect width="80" height="80" x="640" y="800"></rect><rect width="80" height="80" x="720" y="800"></rect><rect width="80" height="80" x="800" y="800"></rect></g></svg>
