<svg xmlns="http://www.w3.org/2000/svg" xml:space="preserve" id="svg1" width="4398.556" height="1000" version="1.1" viewBox="0 0 1163.784 264.583">
   <g id="layer1" transform="translate(226.742 -2093.259)">
      <g id="g651" transform="matrix(3.9979 0 0 3.9979 6369.254 -961.373)">
         <text xml:space="preserve" id="text650" x="-1654.816" y="830.204" style="font-size:97.1304px;fill:#f1e9da;stroke-width:.284562">
            <tspan id="tspan650" x="-1654.816" y="830.204" style="font-style:normal;font-variant:normal;font-weight:800;font-stretch:normal;font-size:97.1304px;font-family:Gabarito;-inkscape-font-specification:&quot;Gabarito Ultra-Bold&quot;;stroke-width:.284562">R</tspan>
         </text>
         <text xml:space="preserve" id="text651" x="-1529.699" y="828.629" style="font-size:92.6412px;fill:#f1e9da;stroke-width:.27141">
            <tspan id="tspan651" x="-1529.699" y="828.629" style="font-style:normal;font-variant:normal;font-weight:800;font-stretch:normal;font-size:92.6412px;font-family:Gabarito;-inkscape-font-specification:&quot;Gabarito Ultra-Bold&quot;;stroke-width:.27141">STO</tspan>
         </text>
         <path id="path651" d="m-1585.545 764.092-10.725 10.725 22.231 22.23-22.231 22.231 10.96 10.96 24.614-24.614a11.796 11.796 0 0 0 0-16.682zm44.696 0-17.056 17.057 10.724 10.725 17.057-17.057zm6.443 25.826-7.365 7.365 7.365 7.366 7.365-7.366zm-12.539 12.539-10.96 10.96 16.82 16.821 10.961-10.96z" style="fill:#f1e9da;stroke:none;stroke-width:8.73125;stroke-dasharray:none;stroke-opacity:1"/>
      </g>
   </g>
</svg>
