<svg xmlns="http://www.w3.org/2000/svg" xml:space="preserve" id="svg1" width="1079.733" height="1070.711" version="1.1" viewBox="0 0 285.679 283.292">
   <g id="layer1" transform="translate(3089.395 -1472.808)">
      <path id="path652" d="m-3010.22 1482.162-69.821 69.82 62.471 62.47-62.471 62.472 69.822 69.822 11.024-11.026 52.64-52.64 52.637 52.638 11.028 11.028 69.82-69.822-51.554-51.553-22.049 22.046 29.508 29.507-25.725 25.727-41.667-41.667c24.137-26.133 24.138-66.926 0-93.06l41.666-41.66 25.724 25.72-29.508 29.507 22.048 22.048 51.555-51.555-69.82-69.822-63.665 63.665zm0 44.101 61.735 61.734c14.743 14.743 14.743 38.176 0 52.92l-61.734 61.734-25.727-25.727 62.47-62.471-62.47-62.471z" style="color:#000;fill:none;stroke:#000;stroke-width:13.2292;stroke-dasharray:none"/>
   </g>
</svg>
