<?xml version="1.0" encoding="UTF-8" standalone="no"?>
<svg
   xmlns:dc="http://purl.org/dc/elements/1.1/"
   xmlns:cc="http://creativecommons.org/ns#"
   xmlns:rdf="http://www.w3.org/1999/02/22-rdf-syntax-ns#"
   xmlns:svg="http://www.w3.org/2000/svg"
   xmlns="http://www.w3.org/2000/svg"
   xmlns:sodipodi="http://sodipodi.sourceforge.net/DTD/sodipodi-0.dtd"
   xmlns:inkscape="http://www.inkscape.org/namespaces/inkscape"
   viewBox="0 0 200.04 56.2"
   version="1.1"
   id="svg20"
   sodipodi:docname="rxsto-dark.svg"
   inkscape:version="0.92.4 (5da689c313, 2019-01-14)">
  <metadata
     id="metadata24">
    <rdf:RDF>
      <cc:Work
         rdf:about="">
        <dc:format>image/svg+xml</dc:format>
        <dc:type
           rdf:resource="http://purl.org/dc/dcmitype/StillImage" />
      </cc:Work>
    </rdf:RDF>
  </metadata>
  <sodipodi:namedview
     pagecolor="#ffffff"
     bordercolor="#666666"
     borderopacity="1"
     objecttolerance="10"
     gridtolerance="10"
     guidetolerance="10"
     inkscape:pageopacity="0"
     inkscape:pageshadow="2"
     inkscape:window-width="1920"
     inkscape:window-height="1147"
     id="namedview22"
     showgrid="false"
     inkscape:zoom="5.6788644"
     inkscape:cx="77.313514"
     inkscape:cy="32.972705"
     inkscape:window-x="-8"
     inkscape:window-y="22"
     inkscape:window-maximized="1"
     inkscape:current-layer="Layer_1-2" />
  <defs
     id="defs4">
    <style
       id="style2">.cls-1{stroke:#000;stroke-width:4px;}</style>
  </defs>
  <title
     id="title6">rxsto</title>
  <g
     id="Layer_2"
     data-name="Layer 2">
    <g
       id="Layer_1-2"
       data-name="Layer 1">
      <path
         class="cls-1"
         d="M5.6,53.91A3.68,3.68,0,0,1,2.94,53,3.56,3.56,0,0,1,2,50.31V18.13a3.61,3.61,0,0,1,.94-2.67,3.6,3.6,0,0,1,2.66-.93,3.67,3.67,0,0,1,2.7.9,3.67,3.67,0,0,1,.9,2.7V50.31A3.72,3.72,0,0,1,8.3,53,3.59,3.59,0,0,1,5.6,53.91ZM5.53,29.29a14.42,14.42,0,0,1,2.12-7.74,15.68,15.68,0,0,1,5.73-5.44,16,16,0,0,1,7.92-2c2.88,0,5,.46,6.44,1.4s2,2.05,1.62,3.35a2.74,2.74,0,0,1-.83,1.55,2.87,2.87,0,0,1-1.4.68A4.27,4.27,0,0,1,25.4,21a20.23,20.23,0,0,0-8.28-.15,11.26,11.26,0,0,0-5.8,3A7.5,7.5,0,0,0,9.2,29.29Z"
         id="path8"
         style="stroke:#222222;stroke-opacity:1;fill:#222222;fill-opacity:1" />
      <path
         class="cls-1"
         d="M74,53.78a4.4,4.4,0,0,1-1.5-.1,2.91,2.91,0,0,1-1.41-.89l-15-15.14L53,35.1,38.09,20.26a4.66,4.66,0,0,1-1.32-2.58,3.41,3.41,0,0,1,.56-2.52,3.22,3.22,0,0,1,2.48-1.24A3.65,3.65,0,0,1,42.88,15L57.56,29.68l2.19,1.69L75.89,47.59a4.13,4.13,0,0,1,1.37,2.66,3.15,3.15,0,0,1-.81,2.38A3.49,3.49,0,0,1,74,53.78Zm-33.42,0a3.18,3.18,0,0,1-2.37-1.19,3.38,3.38,0,0,1-.68-2.45,4.54,4.54,0,0,1,1.33-2.7l14.67-15.4,3.68,6.27L43.5,52.83A3.74,3.74,0,0,1,40.59,53.83Zm20.95-18.3-5-5.06,14-15.54A3.26,3.26,0,0,1,72,14a4.28,4.28,0,0,1,1.58-.14A3.1,3.1,0,0,1,76,15.13a3.74,3.74,0,0,1,.6,2.6,4.87,4.87,0,0,1-1.38,2.78Z"
         id="path10"
         style="stroke:#59cc3d;stroke-opacity:1;fill:#59cc3d;fill-opacity:0.99607843" />
      <path
         class="cls-1"
         d="M101.83,54.2a27,27,0,0,1-9.32-1.55,17.82,17.82,0,0,1-6.66-3.92A3.15,3.15,0,0,1,85,46.1a3.44,3.44,0,0,1,1.4-2.41,3.74,3.74,0,0,1,2.84-1A3.93,3.93,0,0,1,91.61,44a11.34,11.34,0,0,0,3.92,2.55,14.79,14.79,0,0,0,6,1.19,12.16,12.16,0,0,0,6.37-1.37,4.23,4.23,0,0,0,2.27-3.53,4.38,4.38,0,0,0-2.05-3.74q-2.13-1.59-7.74-2.59-7.27-1.44-10.55-4.32a9,9,0,0,1-3.27-7.06A8.77,8.77,0,0,1,88.73,19a13,13,0,0,1,5.54-3.6,21.23,21.23,0,0,1,7.06-1.19,22,22,0,0,1,8.42,1.51,14.33,14.33,0,0,1,5.83,4.18,3.32,3.32,0,0,1,.94,2.41,2.78,2.78,0,0,1-1.23,2.12,3.52,3.52,0,0,1-2.73.51,5.17,5.17,0,0,1-2.67-1.3A9.78,9.78,0,0,0,106,21.3a16.13,16.13,0,0,0-4.83-.65,12,12,0,0,0-5.36,1.08,3.4,3.4,0,0,0-2.2,3.17,4.17,4.17,0,0,0,.69,2.34A5.72,5.72,0,0,0,97,29.11a34.92,34.92,0,0,0,5.9,1.62,32.28,32.28,0,0,1,8.53,2.73,11.37,11.37,0,0,1,4.5,3.86,9.39,9.39,0,0,1,1.37,5.07,10.65,10.65,0,0,1-1.76,6,12.25,12.25,0,0,1-5.19,4.25A20.37,20.37,0,0,1,101.83,54.2Z"
         id="path12"
         style="fill:#222222;fill-opacity:1;stroke:#222222;stroke-opacity:1" />
      <path
         class="cls-1"
         d="M128.41,22.16A3.5,3.5,0,0,1,126,21.3a2.84,2.84,0,0,1-.93-2.16,3,3,0,0,1,.93-2.31,3.5,3.5,0,0,1,2.45-.86H145a3.49,3.49,0,0,1,2.45.86,3,3,0,0,1,.94,2.31,2.81,2.81,0,0,1-.94,2.16,3.49,3.49,0,0,1-2.45.86Zm17.48,31.75a11.78,11.78,0,0,1-6.48-1.83,12.87,12.87,0,0,1-4.54-5,15.09,15.09,0,0,1-1.66-7.13V5.6a3.46,3.46,0,0,1,3.6-3.6,3.54,3.54,0,0,1,2.6,1,3.5,3.5,0,0,1,1,2.59V39.94A7.39,7.39,0,0,0,142,44.77a4.84,4.84,0,0,0,3.89,1.94h2.44a2.84,2.84,0,0,1,2.2,1,3.75,3.75,0,0,1,.9,2.59,3.24,3.24,0,0,1-1.19,2.59,4.52,4.52,0,0,1-3.06,1Z"
         id="path14"
         style="stroke:#222222;stroke-opacity:1;fill:#222222;fill-opacity:1" />
      <path
         class="cls-1"
         d="M178.24,54.2A20.28,20.28,0,0,1,168,51.64a18.43,18.43,0,0,1-7-7,20.51,20.51,0,0,1-2.56-10.33,20.65,20.65,0,0,1,2.56-10.41,18.43,18.43,0,0,1,7-7,21.84,21.84,0,0,1,20.52,0,18.57,18.57,0,0,1,7,7.05A20.75,20.75,0,0,1,198,34.26a20.8,20.8,0,0,1-2.52,10.33,18.19,18.19,0,0,1-7,7A20.31,20.31,0,0,1,178.24,54.2Zm0-6.48A12.65,12.65,0,0,0,184.87,46a12,12,0,0,0,4.5-4.75,14.56,14.56,0,0,0,1.62-7,14.78,14.78,0,0,0-1.62-7,12,12,0,0,0-4.5-4.79,13.55,13.55,0,0,0-13.25,0,12.32,12.32,0,0,0-4.54,4.79,14.56,14.56,0,0,0-1.65,7,14.34,14.34,0,0,0,1.65,7A12.35,12.35,0,0,0,171.62,46,12.64,12.64,0,0,0,178.24,47.72Z"
         id="path16"
         style="fill:#222222;fill-opacity:1;stroke:#222222;stroke-opacity:1" />
    </g>
  </g>
</svg>
