<?xml version="1.0" encoding="UTF-8" standalone="no"?>
<svg
   xmlns:dc="http://purl.org/dc/elements/1.1/"
   xmlns:cc="http://creativecommons.org/ns#"
   xmlns:rdf="http://www.w3.org/1999/02/22-rdf-syntax-ns#"
   xmlns:svg="http://www.w3.org/2000/svg"
   xmlns="http://www.w3.org/2000/svg"
   xmlns:sodipodi="http://sodipodi.sourceforge.net/DTD/sodipodi-0.dtd"
   xmlns:inkscape="http://www.inkscape.org/namespaces/inkscape"
   inkscape:version="1.0 (4035a4fb49, 2020-05-01)"
   sodipodi:docname="rxsto-light.svg"
   id="svg20"
   version="1.1"
   viewBox="0 0 200.04 56.2">
  <metadata
     id="metadata24">
    <rdf:RDF>
      <cc:Work
         rdf:about="">
        <dc:format>image/svg+xml</dc:format>
        <dc:type
           rdf:resource="http://purl.org/dc/dcmitype/StillImage" />
      </cc:Work>
    </rdf:RDF>
  </metadata>
  <sodipodi:namedview
     inkscape:document-rotation="0"
     inkscape:current-layer="Layer_1-2"
     inkscape:window-maximized="1"
     inkscape:window-y="22"
     inkscape:window-x="-8"
     inkscape:cy="22.921625"
     inkscape:cx="134.87912"
     inkscape:zoom="5.6788644"
     showgrid="false"
     id="namedview22"
     inkscape:window-height="1387"
     inkscape:window-width="5120"
     inkscape:pageshadow="2"
     inkscape:pageopacity="0"
     guidetolerance="10"
     gridtolerance="10"
     objecttolerance="10"
     borderopacity="1"
     bordercolor="#666666"
     pagecolor="#ffffff" />
  <defs
     id="defs4">
    <style
       id="style2">.cls-1{stroke:#000;stroke-width:4px;}</style>
  </defs>
  <title
     id="title6">rxsto</title>
  <g
     data-name="Layer 2"
     id="Layer_2">
    <g
       data-name="Layer 1"
       id="Layer_1-2">
      <g
         style="opacity:1"
         id="g838">
        <path
           id="path840"
           d="M 5.6,53.91 C 4.6278428,53.970654 3.6712922,53.643413 2.94,53 2.2658247,52.273307 1.9251617,51.298431 2,50.31 V 18.13 c -0.063211,-0.980855 0.2762536,-1.945078 0.94,-2.67 0.723468,-0.658556 1.6838005,-0.994311 2.66,-0.93 0.9844208,-0.07539 1.9576972,0.249036 2.7,0.9 0.6509642,0.742303 0.9753897,1.715579 0.9,2.7 V 50.31 C 9.2670538,51.290341 8.943505,52.257392 8.3,53 7.5640545,53.662783 6.5869945,53.992088 5.6,53.91 Z M 5.53,29.29 c -0.039949,-2.728625 0.6951899,-5.412575 2.12,-7.74 1.4143349,-2.272713 3.386959,-4.145501 5.73,-5.44 2.422486,-1.3407 5.151422,-2.029825 7.92,-2 2.88,0 5,0.46 6.44,1.4 1.44,0.94 2,2.05 1.62,3.35 -0.09888,0.593816 -0.390574,1.13854 -0.83,1.55 -0.395124,0.351292 -0.879607,0.586613 -1.4,0.68 -0.576759,0.08852 -1.16554,0.05789 -1.73,-0.09 -2.720128,-0.620426 -5.539185,-0.671496 -8.28,-0.15 -2.187219,0.405149 -4.205435,1.449054 -5.8,3 -1.4124404,1.452549 -2.1771228,3.414753 -2.12,5.44 z"
           style="color:#000000;font-style:normal;font-variant:normal;font-weight:normal;font-stretch:normal;font-size:medium;line-height:normal;font-family:sans-serif;font-variant-ligatures:normal;font-variant-position:normal;font-variant-caps:normal;font-variant-numeric:normal;font-variant-alternates:normal;font-variant-east-asian:normal;font-feature-settings:normal;font-variation-settings:normal;text-indent:0;text-align:start;text-decoration:none;text-decoration-line:none;text-decoration-style:solid;text-decoration-color:#000000;letter-spacing:normal;word-spacing:normal;text-transform:none;writing-mode:lr-tb;direction:ltr;text-orientation:mixed;dominant-baseline:auto;baseline-shift:baseline;text-anchor:start;white-space:normal;shape-padding:0;shape-margin:0;inline-size:0;clip-rule:nonzero;display:inline;overflow:visible;visibility:visible;isolation:auto;mix-blend-mode:normal;color-interpolation:sRGB;color-interpolation-filters:linearRGB;solid-color:#000000;solid-opacity:1;vector-effect:none;fill:#222222;fill-opacity:1;fill-rule:nonzero;stroke:none;stroke-width:4px;stroke-linecap:butt;stroke-linejoin:miter;stroke-miterlimit:4;stroke-dasharray:none;stroke-dashoffset:0;stroke-opacity:1.0;color-rendering:auto;image-rendering:auto;shape-rendering:auto;text-rendering:auto;enable-background:accumulate;stop-color:#000000;stop-opacity:1;" />
        <path
           sodipodi:nodetypes="cccccccccccccccccccccccccccccccccccccccssc"
           id="path842"
           d="m 21.3125,12.111328 c -3.111124,-0.03179 -6.178097,0.741421 -8.900391,2.248047 -0.63294,0.349691 -1.154231,0.849689 -1.736328,1.271484 -0.232162,-0.536734 -0.480422,-1.071816 -0.8730466,-1.519531 l -0.085937,-0.09766 -0.097656,-0.08789 C 8.5111146,12.954095 7.0638034,12.479888 5.5957031,12.552734 4.1264424,12.492912 2.6838541,12.988173 1.59375,13.980469 l -0.066406,0.0625 -0.0625,0.06641 c -1.03088379,1.125898 -1.55911181,2.625044 -1.46093755,4.148437 L 0,18.130859 v 32.179688 l 0.00585938,-0.152344 c -0.11680889,1.542759 0.41648589,3.066937 1.46875002,4.201172 l 0.068359,0.07617 0.076172,0.06641 c 1.0884209,0.957626 2.5061463,1.432499 3.9511719,1.382813 1.4881325,0.08617 2.9579318,-0.398402 4.0683594,-1.398438 l 0.091797,-0.08398 0.080078,-0.0918 c 0.9889821,-1.14129 1.4878181,-2.630065 1.3847651,-4.136719 l 0.0039,0.136719 V 31.289062 h 0.05859 l -0.05859,-2.054687 c -0.04168,-1.47792 0.515457,-2.906687 1.541015,-3.970703 1.307806,-1.263168 2.955852,-2.116012 4.744141,-2.447266 h 0.0039 l 0.0059,-0.002 c 2.469879,-0.469945 5.009699,-0.42433 7.460937,0.134766 l -0.0625,-0.01367 c 0.828815,0.217152 1.694142,0.260837 2.541016,0.130859 l 0.02539,-0.0039 0.02344,-0.0039 c 0.882908,-0.158443 1.706577,-0.558288 2.376953,-1.154297 l 0.01953,-0.01758 0.01758,-0.01758 c 0.728427,-0.682068 1.204195,-1.581171 1.394532,-2.558594 0.271979,-1.025421 0.205938,-2.181905 -0.261719,-3.138672 C 30.545294,15.181668 29.756354,14.43804 28.833984,13.835938 26.894415,12.56983 24.399446,12.112613 21.3125,12.111328 Z"
           style="color:#000000;font-style:normal;font-variant:normal;font-weight:normal;font-stretch:normal;font-size:medium;line-height:normal;font-family:sans-serif;font-variant-ligatures:normal;font-variant-position:normal;font-variant-caps:normal;font-variant-numeric:normal;font-variant-alternates:normal;font-variant-east-asian:normal;font-feature-settings:normal;font-variation-settings:normal;text-indent:0;text-align:start;text-decoration:none;text-decoration-line:none;text-decoration-style:solid;text-decoration-color:#000000;letter-spacing:normal;word-spacing:normal;text-transform:none;writing-mode:lr-tb;direction:ltr;text-orientation:mixed;dominant-baseline:auto;baseline-shift:baseline;text-anchor:start;white-space:normal;shape-padding:0;shape-margin:0;inline-size:0;clip-rule:nonzero;display:inline;overflow:visible;visibility:visible;isolation:auto;mix-blend-mode:normal;color-interpolation:sRGB;color-interpolation-filters:linearRGB;solid-color:#000000;solid-opacity:1;vector-effect:none;fill:#222222;fill-opacity:1;fill-rule:nonzero;stroke:none;stroke-width:4px;stroke-linecap:butt;stroke-linejoin:miter;stroke-miterlimit:4;stroke-dasharray:none;stroke-dashoffset:0;stroke-opacity:1;color-rendering:auto;image-rendering:auto;shape-rendering:auto;text-rendering:auto;enable-background:accumulate;stop-color:#000000;stop-opacity:1" />
      </g>
      <g
         style="opacity:1"
         id="g844">
        <path
           id="path846"
           d="m 74,53.78 c -0.502034,0.05296 -1.009439,0.01913 -1.5,-0.1 -0.546751,-0.152781 -1.036874,-0.46215 -1.41,-0.89 L 56.09,37.65 53,35.1 38.09,20.26 c -0.703032,-0.697845 -1.165399,-1.601563 -1.32,-2.58 -0.150784,-0.880929 0.05031,-1.785844 0.56,-2.52 0.597259,-0.766312 1.508595,-1.22198 2.48,-1.24 1.136077,-0.141382 2.27267,0.258461 3.07,1.08 l 14.68,14.68 2.19,1.69 16.14,16.22 c 0.773087,0.684264 1.261858,1.633264 1.37,2.66 0.07201,0.871367 -0.221396,1.733462 -0.81,2.38 -0.628733,0.697279 -1.511892,1.111823 -2.45,1.15 z m -33.42,0 c -0.925599,-0.03261 -1.790988,-0.46713 -2.37,-1.19 -0.536905,-0.697034 -0.780851,-1.575956 -0.68,-2.45 0.12343,-1.025048 0.592557,-1.977411 1.33,-2.7 l 14.67,-15.4 3.68,6.27 -13.71,14.52 c -0.781601,0.735402 -1.841453,1.099612 -2.91,1 z m 20.95,-18.3 -5,-5.06 14,-15.54 C 70.932778,14.460852 71.440305,14.157026 72,14 c 0.513343,-0.144704 1.049211,-0.192186 1.58,-0.14 0.959815,0.02572 1.85354,0.494738 2.42,1.27 0.512878,0.763414 0.726484,1.68904 0.6,2.6 -0.144503,1.05237 -0.629123,2.028635 -1.38,2.78 z"
           style="color:#000000;font-style:normal;font-variant:normal;font-weight:normal;font-stretch:normal;font-size:medium;line-height:normal;font-family:sans-serif;font-variant-ligatures:normal;font-variant-position:normal;font-variant-caps:normal;font-variant-numeric:normal;font-variant-alternates:normal;font-variant-east-asian:normal;font-feature-settings:normal;font-variation-settings:normal;text-indent:0;text-align:start;text-decoration:none;text-decoration-line:none;text-decoration-style:solid;text-decoration-color:#000000;letter-spacing:normal;word-spacing:normal;text-transform:none;writing-mode:lr-tb;direction:ltr;text-orientation:mixed;dominant-baseline:auto;baseline-shift:baseline;text-anchor:start;white-space:normal;shape-padding:0;shape-margin:0;inline-size:0;clip-rule:nonzero;display:inline;overflow:visible;visibility:visible;isolation:auto;mix-blend-mode:normal;color-interpolation:sRGB;color-interpolation-filters:linearRGB;solid-color:#000000;solid-opacity:1;vector-effect:none;fill:#8de052;fill-opacity:0.996078;fill-rule:nonzero;stroke:none;stroke-width:4px;stroke-linecap:butt;stroke-linejoin:miter;stroke-miterlimit:4;stroke-dasharray:none;stroke-dashoffset:0;stroke-opacity:1.0;color-rendering:auto;image-rendering:auto;shape-rendering:auto;text-rendering:auto;enable-background:accumulate;stop-color:#000000;stop-opacity:1;" />
        <path
           sodipodi:nodetypes="ccccccccccccccccccccccccccccccccccsccccccccccc"
           id="path848"
           d="m 73.691406,11.876953 c -0.751052,-0.06358 -1.508466,-0.0074 -2.234375,0.197266 -0.90231,0.253465 -1.71973,0.744117 -2.36914,1.419922 l -0.02148,0.02344 -11.773437,13.06836 -12.978516,-12.978516 c -1.20866,-1.245358 -2.928223,-1.842065 -4.650391,-1.660156 -1.530142,0.06226 -2.968418,0.771621 -3.912109,1.982422 l -0.0332,0.04492 -0.03125,0.04492 c -0.805949,1.160882 -1.123973,2.593141 -0.888672,3.986328 0.22299,1.391745 0.880785,2.678355 1.88086,3.671875 l 12.298828,12.242188 -11.566407,12.140625 0.04883,-0.04883 c -1.062049,1.040656 -1.738255,2.412422 -1.916016,3.888672 l -0.002,0.0059 v 0.0039 c -0.160446,1.390533 0.227859,2.791466 1.082031,3.900391 l 0.01172,0.01563 0.01172,0.01367 c 0.578589,0.722342 1.361346,1.189406 2.207031,1.515625 l 0.06641,0.328125 1.482422,0.138672 c 1.638843,0.152776 3.268047,-0.407262 4.466797,-1.535157 l 0.04297,-0.04102 12.103516,-12.81836 12.652344,12.769532 -0.08789,-0.0918 c 0.629457,0.721776 1.456547,1.242261 2.378907,1.5 l 0.0332,0.0098 0.0332,0.0078 c 0.691188,0.167859 1.405482,0.209544 2.113281,0.142578 1.451168,-0.07531 2.818295,-0.715091 3.792969,-1.794922 0.958456,-1.055746 1.437761,-2.463487 1.320312,-3.884765 l -0.002,-0.02344 -0.0039,-0.02148 c -0.160451,-1.523372 -0.886171,-2.933975 -2.033203,-3.949219 l 0.09375,0.08789 L 65.400391,34.212891 76.634766,21.923828 c 1.058007,-1.058695 1.740773,-2.435354 1.945312,-3.917969 0.19405,-1.397576 -0.133074,-2.819018 -0.919922,-3.990234 l -0.02148,-0.0332 -0.02344,-0.0332 C 76.6965,12.691831 75.245336,11.937564 73.691406,11.876953 Z"
           style="color:#000000;font-style:normal;font-variant:normal;font-weight:normal;font-stretch:normal;font-size:medium;line-height:normal;font-family:sans-serif;font-variant-ligatures:normal;font-variant-position:normal;font-variant-caps:normal;font-variant-numeric:normal;font-variant-alternates:normal;font-variant-east-asian:normal;font-feature-settings:normal;font-variation-settings:normal;text-indent:0;text-align:start;text-decoration:none;text-decoration-line:none;text-decoration-style:solid;text-decoration-color:#000000;letter-spacing:normal;word-spacing:normal;text-transform:none;writing-mode:lr-tb;direction:ltr;text-orientation:mixed;dominant-baseline:auto;baseline-shift:baseline;text-anchor:start;white-space:normal;shape-padding:0;shape-margin:0;inline-size:0;clip-rule:nonzero;display:inline;overflow:visible;visibility:visible;isolation:auto;mix-blend-mode:normal;color-interpolation:sRGB;color-interpolation-filters:linearRGB;solid-color:#000000;solid-opacity:1;vector-effect:none;fill:#8de052;fill-opacity:1;fill-rule:nonzero;stroke:none;stroke-width:4px;stroke-linecap:butt;stroke-linejoin:miter;stroke-miterlimit:4;stroke-dasharray:none;stroke-dashoffset:0;stroke-opacity:1;color-rendering:auto;image-rendering:auto;shape-rendering:auto;text-rendering:auto;enable-background:accumulate;stop-color:#000000;stop-opacity:1" />
      </g>
      <g
         style="opacity:1"
         id="g850">
        <path
           id="path852"
           d="m 101.83,54.2 c -3.17362,0.03513 -6.32858,-0.489572 -9.32,-1.55 -2.480015,-0.803766 -4.753469,-2.141895 -6.66,-3.92 -0.673354,-0.698915 -0.986944,-1.669201 -0.85,-2.63 0.105757,-0.964872 0.614223,-1.84016 1.4,-2.41 0.764756,-0.716502 1.79504,-1.079278 2.84,-1 0.920246,0.14211 1.760139,0.606354 2.37,1.31 1.115309,1.113118 2.450359,1.981581 3.92,2.55 1.895226,0.810433 3.938928,1.215767 6,1.19 2.20842,0.131297 4.41083,-0.342374 6.37,-1.37 1.3282,-0.691866 2.19157,-2.034459 2.27,-3.53 0.0108,-1.517636 -0.76486,-2.932691 -2.05,-3.74 -1.42,-1.06 -4,-1.923333 -7.74,-2.59 -4.846667,-0.96 -8.363333,-2.4 -10.55,-4.32 -2.103472,-1.736263 -3.306093,-4.332748 -3.27,-7.06 -0.08892,-2.245912 0.68786,-4.440239 2.17,-6.13 1.505828,-1.657068 3.414124,-2.897116 5.54,-3.6 2.268995,-0.793486 4.656269,-1.195873 7.06,-1.19 2.87843,-0.05243 5.73917,0.460597 8.42,1.51 2.2663,0.876511 4.27249,2.314915 5.83,4.18 0.62628,0.643203 0.96539,1.512617 0.94,2.41 -0.0596,0.859022 -0.5138,1.641961 -1.23,2.12 -0.80164,0.536976 -1.78856,0.721346 -2.73,0.51 -0.99798,-0.162899 -1.92628,-0.614882 -2.67,-1.3 -1.09519,-1.074305 -2.42775,-1.875897 -3.89,-2.34 -1.56779,-0.460044 -3.19637,-0.679211 -4.83,-0.65 -1.84597,-0.05726 -3.680247,0.312332 -5.36,1.08 -1.31998,0.49791 -2.195352,1.759241 -2.2,3.17 -0.0084,0.831344 0.231876,1.646224 0.69,2.34 0.697847,0.87387 1.636549,1.524008 2.7,1.87 1.915481,0.711583 3.88972,1.253663 5.9,1.62 2.95637,0.509216 5.82733,1.428058 8.53,2.73 1.81496,0.866068 3.36775,2.198017 4.5,3.86 0.9296,1.525293 1.40486,3.284094 1.37,5.07 0.0269,2.131049 -0.58621,4.221152 -1.76,6 -1.30086,1.871972 -3.09826,3.343829 -5.19,4.25 -2.69533,1.124775 -5.60101,1.656801 -8.52,1.56 z"
           style="color:#000000;font-style:normal;font-variant:normal;font-weight:normal;font-stretch:normal;font-size:medium;line-height:normal;font-family:sans-serif;font-variant-ligatures:normal;font-variant-position:normal;font-variant-caps:normal;font-variant-numeric:normal;font-variant-alternates:normal;font-variant-east-asian:normal;font-feature-settings:normal;font-variation-settings:normal;text-indent:0;text-align:start;text-decoration:none;text-decoration-line:none;text-decoration-style:solid;text-decoration-color:#000000;letter-spacing:normal;word-spacing:normal;text-transform:none;writing-mode:lr-tb;direction:ltr;text-orientation:mixed;dominant-baseline:auto;baseline-shift:baseline;text-anchor:start;white-space:normal;shape-padding:0;shape-margin:0;inline-size:0;clip-rule:nonzero;display:inline;overflow:visible;visibility:visible;isolation:auto;mix-blend-mode:normal;color-interpolation:sRGB;color-interpolation-filters:linearRGB;solid-color:#000000;solid-opacity:1;vector-effect:none;fill:#222222;fill-opacity:1;fill-rule:nonzero;stroke:none;stroke-width:4px;stroke-linecap:butt;stroke-linejoin:miter;stroke-miterlimit:4;stroke-dasharray:none;stroke-dashoffset:0;stroke-opacity:1.0;color-rendering:auto;image-rendering:auto;shape-rendering:auto;text-rendering:auto;enable-background:accumulate;stop-color:#000000;stop-opacity:1;" />
        <path
           sodipodi:nodetypes="ccccccccccccscccccccccccccccccccccccccccccccsccccccccccccccccccccccccccccccc"
           id="path854"
           d="m 101.31445,12.212891 c -2.613998,-0.0042 -5.209239,0.431164 -7.677731,1.291015 -2.450491,0.811332 -4.650672,2.239982 -6.386719,4.150391 l -0.01172,0.01367 -0.01172,0.01367 c -1.812168,2.066021 -2.75815,4.748647 -2.658203,7.49414 -0.02156,3.29287 1.429289,6.425843 3.962891,8.53125 2.612571,2.285497 6.432628,3.769646 11.460938,4.765625 l 0.01758,0.0039 0.0195,0.002 c 3.60276,0.642203 5.98796,1.547876 6.89453,2.224609 l 0.0645,0.04687 0.0684,0.04297 c 0.68598,0.430926 1.08993,1.176978 1.10156,1.984375 -0.0565,0.772436 -0.49253,1.459398 -1.18164,1.818359 l -0.004,0.002 -0.002,0.002 c -1.63705,0.858665 -3.47694,1.254241 -5.32226,1.144532 l -0.0723,-0.0059 -0.0703,0.002 c -1.782402,0.02228 -3.550491,-0.328443 -5.189462,-1.029296 l -0.0332,-0.01367 -0.03125,-0.01172 c -1.210475,-0.46818 -2.309887,-1.184739 -3.228515,-2.101563 l 0.09766,0.105469 c -0.919933,-1.061399 -2.188046,-1.7622 -3.576172,-1.976562 l -0.07617,-0.01172 -0.07813,-0.0059 c -1.559882,-0.118343 -3.087319,0.42748 -4.25,1.46875 -1.173778,0.894732 -1.949015,2.218767 -2.119141,3.6875 -0.21158,1.558272 0.296774,3.132277 1.388672,4.265626 l 0.03711,0.03906 0.03906,0.03711 c 2.114251,1.971833 4.633941,3.454792 7.382813,4.34961 3.191391,1.127781 6.554884,1.684749 9.939455,1.652343 3.19031,0.09933 6.36653,-0.479611 9.3125,-1.708984 l 0.0117,-0.0059 0.0117,-0.0059 c 2.43313,-1.054063 4.52394,-2.76587 6.03711,-4.943359 l 0.0137,-0.01953 0.0137,-0.01953 c 1.38715,-2.102177 2.11016,-4.571935 2.08594,-7.089844 0.0368,-2.156561 -0.53357,-4.280947 -1.65625,-6.123047 l -0.0273,-0.04297 -0.0293,-0.04297 c -1.32971,-1.95183 -3.15247,-3.516697 -5.2832,-4.535156 l -0.004,-0.002 c -2.86896,-1.381604 -5.91658,-2.355966 -9.05469,-2.896484 l 0.0176,0.002 c -1.89514,-0.345356 -3.754776,-0.856516 -5.56055,-1.527344 l -0.03906,-0.01367 -0.03906,-0.01172 C 96.958242,26.993962 96.38828,26.577419 95.941406,26.046875 95.736794,25.70448 95.605327,25.320104 95.609375,24.919922 v -0.0059 -0.0078 c 0.0019,-0.58737 0.356676,-1.097382 0.90625,-1.304688 l 0.06445,-0.02344 0.06055,-0.0293 c 1.399843,-0.639746 2.928435,-0.94811 4.466795,-0.90039 l 0.0488,0.002 h 0.0488 c 1.42117,-0.02541 2.8385,0.167139 4.20312,0.564453 1.15731,0.369931 2.21457,1.002588 3.08203,1.853515 l 0.0215,0.02148 0.0234,0.02148 c 1.01294,0.933131 2.27697,1.543432 3.63281,1.779297 1.46057,0.314618 2.98968,0.03472 4.23242,-0.796875 l 0.002,-0.002 c 1.22875,-0.821199 2.01108,-2.168116 2.11328,-3.642578 l 0.002,-0.04102 0.002,-0.04102 c 0.0401,-1.418 -0.49707,-2.790529 -1.47461,-3.816407 -1.76583,-2.089081 -4.02201,-3.708223 -6.57422,-4.695312 -2.91562,-1.140177 -6.02617,-1.696768 -9.15625,-1.642578 z"
           style="color:#000000;font-style:normal;font-variant:normal;font-weight:normal;font-stretch:normal;font-size:medium;line-height:normal;font-family:sans-serif;font-variant-ligatures:normal;font-variant-position:normal;font-variant-caps:normal;font-variant-numeric:normal;font-variant-alternates:normal;font-variant-east-asian:normal;font-feature-settings:normal;font-variation-settings:normal;text-indent:0;text-align:start;text-decoration:none;text-decoration-line:none;text-decoration-style:solid;text-decoration-color:#000000;letter-spacing:normal;word-spacing:normal;text-transform:none;writing-mode:lr-tb;direction:ltr;text-orientation:mixed;dominant-baseline:auto;baseline-shift:baseline;text-anchor:start;white-space:normal;shape-padding:0;shape-margin:0;inline-size:0;clip-rule:nonzero;display:inline;overflow:visible;visibility:visible;isolation:auto;mix-blend-mode:normal;color-interpolation:sRGB;color-interpolation-filters:linearRGB;solid-color:#000000;solid-opacity:1;vector-effect:none;fill:#222222;fill-opacity:1;fill-rule:nonzero;stroke:none;stroke-width:4px;stroke-linecap:butt;stroke-linejoin:miter;stroke-miterlimit:4;stroke-dasharray:none;stroke-dashoffset:0;stroke-opacity:1;color-rendering:auto;image-rendering:auto;shape-rendering:auto;text-rendering:auto;enable-background:accumulate;stop-color:#000000;stop-opacity:1" />
      </g>
      <g
         style="opacity:1"
         id="g856">
        <path
           id="path858"
           d="m 128.41,22.16 c -0.88309,0.02779 -1.74401,-0.279425 -2.41,-0.86 -0.60754,-0.551797 -0.94667,-1.339444 -0.93,-2.16 -0.0393,-0.868371 0.29997,-1.711099 0.93,-2.31 0.67619,-0.5902 1.55327,-0.898074 2.45,-0.86 H 145 c 0.89688,-0.03911 1.77434,0.268896 2.45,0.86 0.63371,0.597106 0.97673,1.440075 0.94,2.31 0.0182,0.822924 -0.32543,1.612427 -0.94,2.16 -0.67566,0.591104 -1.55312,0.899109 -2.45,0.86 z m 17.48,31.75 c -2.29204,0.03347 -4.54406,-0.602516 -6.48,-1.83 -1.93145,-1.232804 -3.49874,-2.958903 -4.54,-5 -1.13019,-2.204383 -1.7003,-4.653106 -1.66,-7.13 V 5.6 c -0.0836,-2.0218439 1.57816,-3.6836065 3.6,-3.6 0.96691,-0.036001 1.90642,0.3253483 2.6,1 0.67614,0.6885547 1.03798,1.6257244 1,2.59 v 34.35 c -0.058,1.747395 0.50534,3.458774 1.59,4.83 0.91701,1.225329 2.35954,1.944739 3.89,1.94 h 2.44 c 0.84565,-0.01086 1.65214,0.355727 2.2,1 0.61619,0.718772 0.9377,1.644011 0.9,2.59 0.0248,1.000817 -0.4145,1.95688 -1.19,2.59 -0.86271,0.697581 -1.95184,1.053507 -3.06,1 z"
           style="color:#000000;font-style:normal;font-variant:normal;font-weight:normal;font-stretch:normal;font-size:medium;line-height:normal;font-family:sans-serif;font-variant-ligatures:normal;font-variant-position:normal;font-variant-caps:normal;font-variant-numeric:normal;font-variant-alternates:normal;font-variant-east-asian:normal;font-feature-settings:normal;font-variation-settings:normal;text-indent:0;text-align:start;text-decoration:none;text-decoration-line:none;text-decoration-style:solid;text-decoration-color:#000000;letter-spacing:normal;word-spacing:normal;text-transform:none;writing-mode:lr-tb;direction:ltr;text-orientation:mixed;dominant-baseline:auto;baseline-shift:baseline;text-anchor:start;white-space:normal;shape-padding:0;shape-margin:0;inline-size:0;clip-rule:nonzero;display:inline;overflow:visible;visibility:visible;isolation:auto;mix-blend-mode:normal;color-interpolation:sRGB;color-interpolation-filters:linearRGB;solid-color:#000000;solid-opacity:1;vector-effect:none;fill:#222222;fill-opacity:1;fill-rule:nonzero;stroke:none;stroke-width:4px;stroke-linecap:butt;stroke-linejoin:miter;stroke-miterlimit:4;stroke-dasharray:none;stroke-dashoffset:0;stroke-opacity:1.0;color-rendering:auto;image-rendering:auto;shape-rendering:auto;text-rendering:auto;enable-background:accumulate;stop-color:#000000;stop-opacity:1;" />
        <path
           sodipodi:nodetypes="ccccccccccccccccssccccsccccccccccscccccccccccccccccccccccc"
           id="path860"
           d="m 136.81641,0.015625 c -3.12445,-0.08274283 -5.73504,2.5347691 -5.60547,5.6679688 v 8.2871092 h -2.76172 l 0.0859,0.002 c -1.40849,-0.0598 -2.78752,0.422582 -3.84961,1.34961 l -0.0332,0.0293 -0.0312,0.0293 c -1.03301,0.981977 -1.5824,2.362636 -1.53711,3.785157 -0.008,1.372327 0.55485,2.691166 1.57227,3.615234 l 0.0137,0.01367 0.0156,0.01172 c 1.0461,0.911935 2.4,1.395218 3.78711,1.351562 l -0.0625,0.002 h 2.80078 v 15.757813 c -0.0456,2.803646 0.59833,5.574839 1.87695,8.070312 4.2e-4,8.14e-4 0.002,0.0011 0.002,0.002 2.8e-4,5.48e-4 -2.8e-4,0.0014 0,0.002 1.20303,2.356492 3.01387,4.349896 5.24414,5.773437 l 0.002,0.002 0.004,0.002 c 2.26449,1.435795 4.89907,2.179775 7.58008,2.140625 h 0.002 l 1.28906,-0.01953 -0.12696,-0.0039 c 1.59797,0.07716 3.17004,-0.435493 4.41407,-1.441407 l 0.004,-0.0039 0.002,-0.002 c 1.23715,-1.01001 1.93488,-2.536037 1.91406,-4.130859 0.0388,-1.422407 -0.43949,-2.811942 -1.36524,-3.894532 -0.9328,-1.096962 -2.30821,-1.721616 -3.74804,-1.703124 h -2.41797 -0.002 c -0.89984,0.0028 -1.74405,-0.418242 -2.28321,-1.138672 l -0.0156,-0.02148 -0.0176,-0.02148 c -0.79139,-1.000469 -1.2025,-2.24851 -1.16016,-3.523438 l 0.002,-0.0332 v -15.8125 H 145 l -0.0879,-0.002 c 1.41019,0.06149 2.79311,-0.424106 3.85547,-1.353515 l 0.006,-0.0059 0.008,-0.0059 c 1.03536,-0.922489 1.60807,-2.252015 1.5957,-3.636719 0.0399,-1.423637 -0.51657,-2.803098 -1.55468,-3.78125 l -0.0274,-0.02539 -0.0273,-0.02539 c -1.06236,-0.929409 -2.44528,-1.413056 -3.85547,-1.351563 l 0.0879,-0.002 h -2.58984 V 5.5898438 l -0.002,0.078125 c 0.0597,-1.5143636 -0.50846,-2.9870066 -1.57031,-4.0683594 l -0.0176,-0.017578 -0.0156,-0.015625 C 139.7397,0.53049066 138.29951,-0.0173735 136.81641,0.015625 Z"
           style="color:#000000;font-style:normal;font-variant:normal;font-weight:normal;font-stretch:normal;font-size:medium;line-height:normal;font-family:sans-serif;font-variant-ligatures:normal;font-variant-position:normal;font-variant-caps:normal;font-variant-numeric:normal;font-variant-alternates:normal;font-variant-east-asian:normal;font-feature-settings:normal;font-variation-settings:normal;text-indent:0;text-align:start;text-decoration:none;text-decoration-line:none;text-decoration-style:solid;text-decoration-color:#000000;letter-spacing:normal;word-spacing:normal;text-transform:none;writing-mode:lr-tb;direction:ltr;text-orientation:mixed;dominant-baseline:auto;baseline-shift:baseline;text-anchor:start;white-space:normal;shape-padding:0;shape-margin:0;inline-size:0;clip-rule:nonzero;display:inline;overflow:visible;visibility:visible;isolation:auto;mix-blend-mode:normal;color-interpolation:sRGB;color-interpolation-filters:linearRGB;solid-color:#000000;solid-opacity:1;vector-effect:none;fill:#222222;fill-opacity:1;fill-rule:nonzero;stroke:none;stroke-width:4px;stroke-linecap:butt;stroke-linejoin:miter;stroke-miterlimit:4;stroke-dasharray:none;stroke-dashoffset:0;stroke-opacity:1;color-rendering:auto;image-rendering:auto;shape-rendering:auto;text-rendering:auto;enable-background:accumulate;stop-color:#000000;stop-opacity:1" />
      </g>
      <g
         style="opacity:1"
         id="g862">
        <path
           id="path864"
           d="m 178.24,54.2 c -3.57946,0.06547 -7.11246,-0.817784 -10.24,-2.56 -2.92806,-1.651277 -5.34872,-4.071941 -7,-7 -1.74739,-3.158102 -2.63045,-6.721397 -2.56,-10.33 -0.0779,-3.634856 0.80514,-7.225864 2.56,-10.41 1.65128,-2.928059 4.07194,-5.348723 7,-7 6.41416,-3.413347 14.10584,-3.413347 20.52,0 2.93032,1.670638 5.35026,4.107866 7,7.05 1.70567,3.163867 2.56024,6.716543 2.48,10.31 0.0692,3.603508 -0.79921,7.163151 -2.52,10.33 -1.64132,2.935604 -4.0644,5.358679 -7,7 -3.12324,1.758302 -6.65616,2.658783 -10.24,2.61 z m 0,-6.48 c 2.32612,0.04727 4.62022,-0.547878 6.63,-1.72 1.91104,-1.135925 3.46896,-2.780394 4.5,-4.75 1.11628,-2.161366 1.67324,-4.567973 1.62,-7 0.044,-2.431066 -0.51243,-4.835441 -1.62,-7 -1.02502,-1.984323 -2.58347,-3.643212 -4.5,-4.79 -4.11549,-2.306696 -9.13451,-2.306696 -13.25,0 -1.92079,1.154075 -3.49044,2.810165 -4.54,4.79 -1.12668,2.158653 -1.69399,4.565404 -1.65,7 -0.0535,2.43561 0.51432,4.844706 1.65,7 1.05664,1.964248 2.62551,3.605679 4.54,4.75 2.00666,1.170823 4.2972,1.765946 6.62,1.72 z"
           style="color:#000000;font-style:normal;font-variant:normal;font-weight:normal;font-stretch:normal;font-size:medium;line-height:normal;font-family:sans-serif;font-variant-ligatures:normal;font-variant-position:normal;font-variant-caps:normal;font-variant-numeric:normal;font-variant-alternates:normal;font-variant-east-asian:normal;font-feature-settings:normal;font-variation-settings:normal;text-indent:0;text-align:start;text-decoration:none;text-decoration-line:none;text-decoration-style:solid;text-decoration-color:#000000;letter-spacing:normal;word-spacing:normal;text-transform:none;writing-mode:lr-tb;direction:ltr;text-orientation:mixed;dominant-baseline:auto;baseline-shift:baseline;text-anchor:start;white-space:normal;shape-padding:0;shape-margin:0;inline-size:0;clip-rule:nonzero;display:inline;overflow:visible;visibility:visible;isolation:auto;mix-blend-mode:normal;color-interpolation:sRGB;color-interpolation-filters:linearRGB;solid-color:#000000;solid-opacity:1;vector-effect:none;fill:#222222;fill-opacity:1;fill-rule:nonzero;stroke:none;stroke-width:4px;stroke-linecap:butt;stroke-linejoin:miter;stroke-miterlimit:4;stroke-dasharray:none;stroke-dashoffset:0;stroke-opacity:1.0;color-rendering:auto;image-rendering:auto;shape-rendering:auto;text-rendering:auto;enable-background:accumulate;stop-color:#000000;stop-opacity:1;" />
        <path
           sodipodi:nodetypes="sccccccccccccccccccccccccccsscccccccccccccccccs"
           id="path866"
           d="m 178.25977,12.339844 c -3.8499,0 -7.69946,0.932496 -11.19922,2.794922 l -0.0215,0.01172 -0.0215,0.01172 c -3.2457,1.830411 -5.92936,4.514065 -7.75977,7.759766 l -0.004,0.0078 -0.006,0.0098 c -1.91935,3.482591 -2.88207,7.409479 -2.80274,11.384765 -0.0683,3.943438 0.89496,7.835609 2.80469,11.28711 l 0.004,0.0078 0.004,0.0078 c 1.83041,3.245701 4.51407,5.929354 7.75977,7.759765 l 0.004,0.002 0.006,0.002 c 3.42607,1.908512 7.29597,2.87437 11.2168,2.808593 3.92515,0.04784 7.79375,-0.937668 11.21484,-2.863281 h 0.002 c 3.25547,-1.821665 5.94506,-4.509429 7.76562,-7.765625 l 0.006,-0.01172 0.006,-0.0098 c 1.8796,-3.459104 2.82618,-7.347481 2.75781,-11.283203 0.0801,-3.92489 -0.85169,-7.80575 -2.71484,-11.261719 l -0.008,-0.01367 -0.01,-0.01367 c -1.82736,-3.258899 -4.50809,-5.96004 -7.7539,-7.810547 l -0.0254,-0.01367 -0.0254,-0.01367 c -3.49976,-1.862426 -7.34931,-2.794922 -11.19921,-2.794922 z m -0.0156,10.388672 c 1.93702,0 3.8741,0.491991 5.62305,1.466796 1.58512,0.955129 2.87703,2.328058 3.72656,3.972657 0.95508,1.8697 1.43449,3.945662 1.39648,6.044922 v 0.04102 0.03906 c 0.0459,2.094505 -0.43283,4.16718 -1.39257,6.029297 -0.85755,1.638182 -2.15389,3.004702 -3.74219,3.951172 -1.69047,0.984192 -3.61842,1.487013 -5.57422,1.447265 l -0.041,-0.002 -0.0391,0.002 c -1.94979,0.03857 -3.87281,-0.461377 -5.55859,-1.441406 -1.60037,-0.957725 -2.91221,-2.328845 -3.79688,-3.970703 -0.97403,-1.85238 -1.46201,-3.921202 -1.41601,-6.013672 v -0.04102 -0.03906 c -0.0379,-2.097566 0.45239,-4.170882 1.42187,-6.03125 0.87417,-1.646877 2.17853,-3.025153 3.77344,-3.990235 1.74835,-0.973967 3.68295,-1.464843 5.61914,-1.464843 z"
           style="color:#000000;font-style:normal;font-variant:normal;font-weight:normal;font-stretch:normal;font-size:medium;line-height:normal;font-family:sans-serif;font-variant-ligatures:normal;font-variant-position:normal;font-variant-caps:normal;font-variant-numeric:normal;font-variant-alternates:normal;font-variant-east-asian:normal;font-feature-settings:normal;font-variation-settings:normal;text-indent:0;text-align:start;text-decoration:none;text-decoration-line:none;text-decoration-style:solid;text-decoration-color:#000000;letter-spacing:normal;word-spacing:normal;text-transform:none;writing-mode:lr-tb;direction:ltr;text-orientation:mixed;dominant-baseline:auto;baseline-shift:baseline;text-anchor:start;white-space:normal;shape-padding:0;shape-margin:0;inline-size:0;clip-rule:nonzero;display:inline;overflow:visible;visibility:visible;isolation:auto;mix-blend-mode:normal;color-interpolation:sRGB;color-interpolation-filters:linearRGB;solid-color:#000000;solid-opacity:1;vector-effect:none;fill:#222222;fill-opacity:1;fill-rule:nonzero;stroke:none;stroke-width:4px;stroke-linecap:butt;stroke-linejoin:miter;stroke-miterlimit:4;stroke-dasharray:none;stroke-dashoffset:0;stroke-opacity:1;color-rendering:auto;image-rendering:auto;shape-rendering:auto;text-rendering:auto;enable-background:accumulate;stop-color:#000000;stop-opacity:1" />
      </g>
    </g>
  </g>
</svg>
