<?xml version="1.0" encoding="UTF-8" standalone="no"?>
<!-- Created with Inkscape (http://www.inkscape.org/) -->

<svg
   width="256"
   height="256"
   viewBox="0 0 67.733332 67.733335"
   version="1.1"
   id="svg1094"
   inkscape:version="1.1.1 (3bf5ae0d25, 2021-09-20)"
   sodipodi:docname="hydra.svg"
   xmlns:inkscape="http://www.inkscape.org/namespaces/inkscape"
   xmlns:sodipodi="http://sodipodi.sourceforge.net/DTD/sodipodi-0.dtd"
   xmlns="http://www.w3.org/2000/svg"
   xmlns:svg="http://www.w3.org/2000/svg">
  <sodipodi:namedview
     id="namedview1096"
     pagecolor="#505050"
     bordercolor="#eeeeee"
     borderopacity="1"
     inkscape:pageshadow="0"
     inkscape:pageopacity="0"
     inkscape:pagecheckerboard="0"
     inkscape:document-units="mm"
     showgrid="false"
     units="px"
     inkscape:zoom="1.5554293"
     inkscape:cx="125.04586"
     inkscape:cy="256.52082"
     inkscape:window-width="2554"
     inkscape:window-height="1352"
     inkscape:window-x="1275"
     inkscape:window-y="961"
     inkscape:window-maximized="0"
     inkscape:current-layer="layer1" />
  <defs
     id="defs1091">
    <linearGradient
       y2="156.1198"
       x2="105.3606"
       y1="290.58389"
       x1="105.5798"
       gradientUnits="userSpaceOnUse"
       id="SVGID_1_">
      <stop
         id="stop4"
         style="stop-color:#0D55FF;stop-opacity:0"
         offset="0.0665" />
      <stop
         id="stop6"
         style="stop-color:#0C5CFF;stop-opacity:0.1173"
         offset="0.1377" />
      <stop
         id="stop8"
         style="stop-color:#0B6FFF;stop-opacity:0.2878"
         offset="0.2412" />
      <stop
         id="stop10"
         style="stop-color:#088FFF;stop-opacity:0.4909"
         offset="0.3645" />
      <stop
         id="stop12"
         style="stop-color:#05BBFF;stop-opacity:0.719"
         offset="0.503" />
      <stop
         id="stop14"
         style="stop-color:#01F3FF;stop-opacity:0.9651"
         offset="0.6524" />
      <stop
         id="stop16"
         style="stop-color:#00FCFF"
         offset="0.6736" />
    </linearGradient>
    <linearGradient
       y2="91.223801"
       x2="148.7776"
       y1="91.223801"
       x1="69.742699"
       gradientUnits="userSpaceOnUse"
       id="SVGID_2_">
      <stop
         id="stop51"
         style="stop-color:#00FCFF"
         offset="0" />
      <stop
         id="stop53"
         style="stop-color:#01EEFF;stop-opacity:0.8696"
         offset="0.1304" />
      <stop
         id="stop55"
         style="stop-color:#04C9FF;stop-opacity:0.6226"
         offset="0.3774" />
      <stop
         id="stop57"
         style="stop-color:#098DFF;stop-opacity:0.2882"
         offset="0.7118" />
      <stop
         id="stop59"
         style="stop-color:#0D55FF;stop-opacity:0"
         offset="1" />
    </linearGradient>
    <linearGradient
       y2="37.834801"
       x2="56.947701"
       y1="124.2443"
       x1="158.81599"
       gradientUnits="userSpaceOnUse"
       id="SVGID_3_">
      <stop
         id="stop64"
         style="stop-color:#0D55FF;stop-opacity:0"
         offset="0" />
      <stop
         id="stop66"
         style="stop-color:#098DFF;stop-opacity:0.2882"
         offset="0.2882" />
      <stop
         id="stop68"
         style="stop-color:#04C9FF;stop-opacity:0.6226"
         offset="0.6226" />
      <stop
         id="stop70"
         style="stop-color:#01EEFF;stop-opacity:0.8696"
         offset="0.8696" />
      <stop
         id="stop72"
         style="stop-color:#00FCFF"
         offset="1" />
    </linearGradient>
    <linearGradient
       y2="7.4833999"
       x2="9.5493002"
       y1="80.629799"
       x1="95.7817"
       gradientUnits="userSpaceOnUse"
       id="SVGID_4_">
      <stop
         id="stop77"
         style="stop-color:#0D55FF;stop-opacity:0"
         offset="0" />
      <stop
         id="stop79"
         style="stop-color:#098DFF;stop-opacity:0.2882"
         offset="0.2882" />
      <stop
         id="stop81"
         style="stop-color:#04C9FF;stop-opacity:0.6226"
         offset="0.6226" />
      <stop
         id="stop83"
         style="stop-color:#01EEFF;stop-opacity:0.8696"
         offset="0.8696" />
      <stop
         id="stop85"
         style="stop-color:#00FCFF"
         offset="1" />
    </linearGradient>
    <linearGradient
       y2="45.7356"
       x2="185.5558"
       y1="131.93829"
       x1="160.7319"
       gradientUnits="userSpaceOnUse"
       id="SVGID_5_">
      <stop
         id="stop116"
         style="stop-color:#0D55FF;stop-opacity:0"
         offset="0" />
      <stop
         id="stop118"
         style="stop-color:#0B69FF;stop-opacity:0.0627"
         offset="0.0627" />
      <stop
         id="stop120"
         style="stop-color:#0896FF;stop-opacity:0.22"
         offset="0.22" />
      <stop
         id="stop122"
         style="stop-color:#05BAFF;stop-opacity:0.3786"
         offset="0.3786" />
      <stop
         id="stop124"
         style="stop-color:#03D7FF;stop-opacity:0.5364"
         offset="0.5364" />
      <stop
         id="stop126"
         style="stop-color:#01ECFF;stop-opacity:0.693"
         offset="0.693" />
      <stop
         id="stop128"
         style="stop-color:#00F8FF;stop-opacity:0.8481"
         offset="0.8481" />
      <stop
         id="stop130"
         style="stop-color:#00FCFF"
         offset="1" />
    </linearGradient>
  </defs>
  <g
     inkscape:label="Layer 1"
     inkscape:groupmode="layer"
     id="layer1">
    <g
       id="g177"
       transform="matrix(0.25118981,0,0,0.25118981,4.8789858,-3.880882)">
	<linearGradient
   y2="156.1198"
   x2="105.3606"
   y1="290.58389"
   x1="105.5798"
   gradientUnits="userSpaceOnUse"
   id="linearGradient2910">
		<stop
   id="stop4-8"
   style="stop-color:#0D55FF;stop-opacity:0"
   offset="0.0665" />

		<stop
   id="stop6-9"
   style="stop-color:#0C5CFF;stop-opacity:0.1173"
   offset="0.1377" />

		<stop
   id="stop8-6"
   style="stop-color:#0B6FFF;stop-opacity:0.2878"
   offset="0.2412" />

		<stop
   id="stop10-9"
   style="stop-color:#088FFF;stop-opacity:0.4909"
   offset="0.3645" />

		<stop
   id="stop12-0"
   style="stop-color:#05BBFF;stop-opacity:0.719"
   offset="0.503" />

		<stop
   id="stop14-8"
   style="stop-color:#01F3FF;stop-opacity:0.9651"
   offset="0.6524" />

		<stop
   id="stop16-7"
   style="stop-color:#00FCFF"
   offset="0.6736" />

	</linearGradient>

	
	<g
   id="g993">
  <path
     id="path19"
     d="m 190.49,285.1 c 0,-46.9 -38.02,-84.92 -84.92,-84.92 v 0 c -46.9,0 -84.92,38.02 -84.92,84.92"
     class="st0"
     style="fill:url(#SVGID_1_)" />
  <g
     id="g175">
		<g
   id="g49">
			<g
   id="g37">
				<path
   id="path21"
   d="m 141.15,220.08 c 0,12.25 -15.81,22.19 -35.31,22.19 -19.5,0 -35.31,-9.93 -35.31,-22.19 0,-12.25 15.81,-11.09 35.31,-11.09 19.5,0 35.31,-1.16 35.31,11.09 z"
   class="st1" />

				<rect
   id="rect23"
   height="8.5299997"
   width="70.629997"
   class="st1"
   y="211.55"
   x="70.519997" />

				<ellipse
   id="ellipse25"
   ry="22.49"
   rx="35.310001"
   cy="211.55"
   cx="105.83"
   class="st2" />

				<ellipse
   id="ellipse27"
   ry="22.190001"
   rx="35.310001"
   cy="211.25"
   cx="105.83"
   class="st3" />

				<path
   id="path29"
   d="m 105.83,141.16 c -16.56,0 -29.98,8.43 -29.98,18.84 v 49.71 c 0,10.4 13.42,18.84 29.98,18.84 16.56,0 29.98,-8.43 29.98,-18.84 V 160 c 0,-10.4 -13.42,-18.84 -29.98,-18.84 z"
   class="st4" />

				<path
   id="path31"
   d="m 87.99,182.42 c -0.67,0 -1.22,0.55 -1.22,1.22 v 40.59 c 0.78,0.41 1.6,0.78 2.45,1.14 v -41.73 c -0.01,-0.66 -0.56,-1.22 -1.23,-1.22 z"
   class="st5" />

				<path
   id="path33"
   d="m 92.83,189.48 c -0.67,0 -1.22,0.55 -1.22,1.22 v 35.58 c 0.79,0.27 1.61,0.52 2.45,0.74 V 190.7 c -0.01,-0.67 -0.56,-1.22 -1.23,-1.22 z"
   class="st1" />

				<path
   id="path35"
   d="m 97.95,191.78 c -0.67,0 -1.22,0.55 -1.22,1.22 v 34.65 c 0.8,0.16 1.62,0.29 2.45,0.41 V 193 c -0.01,-0.67 -0.56,-1.22 -1.23,-1.22 z"
   class="st1" />

			</g>

			<polygon
   id="polygon39"
   points="86.76,179.11 86.76,177.99 80.51,174.25 80.51,175.37 "
   class="st1" />

			<polygon
   id="polygon41"
   points="86.76,176.68 86.76,175.57 80.51,171.82 80.51,172.94 "
   class="st1" />

			<path
   id="path43"
   d="m 84.22,183.08 c 0,1.83 -0.89,2.8 -1.98,2.16 -1.09,-0.63 -1.98,-2.62 -1.98,-4.45 0,-1.83 0.89,-2.8 1.98,-2.16 1.09,0.63 1.98,2.62 1.98,4.45 z"
   class="st1" />

			<path
   id="path45"
   d="m 84.22,192.92 c 0,1.83 -0.89,2.8 -1.98,2.16 -1.09,-0.63 -1.98,-2.62 -1.98,-4.45 0,-1.83 0.89,-2.8 1.98,-2.16 1.09,0.63 1.98,2.63 1.98,4.45 z"
   class="st1" />

			<path
   id="path47"
   d="m 84.22,202.77 c 0,1.83 -0.89,2.8 -1.98,2.16 -1.09,-0.63 -1.98,-2.62 -1.98,-4.45 0,-1.83 0.89,-2.8 1.98,-2.16 1.09,0.63 1.98,2.62 1.98,4.45 z"
   class="st1" />

		</g>

		<linearGradient
   y2="91.223801"
   x2="148.7776"
   y1="91.223801"
   x1="69.742699"
   gradientUnits="userSpaceOnUse"
   id="linearGradient2933">
			<stop
   id="stop51-0"
   style="stop-color:#00FCFF"
   offset="0" />

			<stop
   id="stop53-8"
   style="stop-color:#01EEFF;stop-opacity:0.8696"
   offset="0.1304" />

			<stop
   id="stop55-6"
   style="stop-color:#04C9FF;stop-opacity:0.6226"
   offset="0.3774" />

			<stop
   id="stop57-8"
   style="stop-color:#098DFF;stop-opacity:0.2882"
   offset="0.7118" />

			<stop
   id="stop59-7"
   style="stop-color:#0D55FF;stop-opacity:0"
   offset="1" />

		</linearGradient>

		<path
   id="path62"
   d="m 195.35,91.08 c 0,-39.6 -30.43,-72.06 -69.18,-75.34 -1.16,0.12 -2.31,0.28 -3.46,0.49 v 0 c 0,0 0,0 0,0 -0.96,0.17 -1.92,0.37 -2.87,0.6 -0.23,0.05 -0.45,0.12 -0.68,0.17 -0.73,0.18 -1.45,0.39 -2.18,0.6 -0.28,0.09 -0.57,0.17 -0.85,0.26 -0.69,0.22 -1.37,0.46 -2.05,0.72 -0.27,0.1 -0.54,0.19 -0.8,0.3 -0.92,0.36 -1.84,0.75 -2.74,1.17 -11.73,5.5 -23.93,16.68 -28.73,39.25 -1.36,6.41 0.02,13.09 3.86,18.4 7.57,10.46 18.7,32.67 5.08,61.13 l 6.54,20.14 c 0.54,1.65 1.16,3.27 1.81,4.86 6.56,1.85 13.47,2.87 20.62,2.87 41.77,0.01 75.63,-33.85 75.63,-75.62 z"
   class="st6"
   style="fill:url(#SVGID_2_)" />

		<linearGradient
   y2="37.834801"
   x2="56.947701"
   y1="124.2443"
   x1="158.81599"
   gradientUnits="userSpaceOnUse"
   id="linearGradient2941">
			<stop
   id="stop64-3"
   style="stop-color:#0D55FF;stop-opacity:0"
   offset="0" />

			<stop
   id="stop66-9"
   style="stop-color:#098DFF;stop-opacity:0.2882"
   offset="0.2882" />

			<stop
   id="stop68-3"
   style="stop-color:#04C9FF;stop-opacity:0.6226"
   offset="0.6226" />

			<stop
   id="stop70-6"
   style="stop-color:#01EEFF;stop-opacity:0.8696"
   offset="0.8696" />

			<stop
   id="stop72-0"
   style="stop-color:#00FCFF"
   offset="1" />

		</linearGradient>

		<circle
   id="circle75"
   r="75.629997"
   cy="91.080002"
   cx="119.72"
   class="st7"
   style="fill:url(#SVGID_3_)" />

		<linearGradient
   y2="7.4833999"
   x2="9.5493002"
   y1="80.629799"
   x1="95.7817"
   gradientUnits="userSpaceOnUse"
   id="linearGradient2949">
			<stop
   id="stop77-6"
   style="stop-color:#0D55FF;stop-opacity:0"
   offset="0" />

			<stop
   id="stop79-8"
   style="stop-color:#098DFF;stop-opacity:0.2882"
   offset="0.2882" />

			<stop
   id="stop81-3"
   style="stop-color:#04C9FF;stop-opacity:0.6226"
   offset="0.6226" />

			<stop
   id="stop83-0"
   style="stop-color:#01EEFF;stop-opacity:0.8696"
   offset="0.8696" />

			<stop
   id="stop85-1"
   style="stop-color:#00FCFF"
   offset="1" />

		</linearGradient>

		<path
   id="path88"
   d="m 53.51,91.08 c 0,-40.19 31.35,-73.03 70.92,-75.47 -1.56,-0.1 -3.13,-0.16 -4.71,-0.16 -41.77,0 -75.63,33.86 -75.63,75.63 0,41.77 33.86,75.63 75.63,75.63 1.58,0 3.15,-0.06 4.71,-0.16 C 84.86,164.11 53.51,131.26 53.51,91.08 Z"
   class="st8"
   style="fill:url(#SVGID_4_)" />

		<path
   id="path90"
   d="m 96.1,141.08 6.54,20.14 c 6.12,18.83 20.15,34.05 38.42,41.68 l 25.28,10.55 c 0,0 7.66,3.83 23.84,-3.83 16.18,-7.66 12.35,-23.73 11.49,-31.88 l 7.24,-50.71 v -11.87 c 0,-7.07 -0.21,-12.38 -0.93,-19.4 -0.81,-7.91 -2.23,-17.52 -3.94,-25.3 0,0 -6.87,-33.99 -47.58,-49.2 -13.18,-4.92 -27.84,-4.93 -40.57,1.04 -11.73,5.5 -23.94,16.68 -28.73,39.25 -1.36,6.41 0.02,13.09 3.86,18.4 7.57,10.47 18.7,32.68 5.08,61.13 z"
   class="st9" />

		<path
   id="path92"
   d="m 139.38,21.26 c -3.43,-1.26 -6.97,-2.19 -10.54,-2.79 -4.25,0.74 -8.41,2 -12.4,3.83 -11.95,5.5 -24.38,16.68 -29.27,39.25 -1.39,6.41 0.02,13.09 3.93,18.4 7.71,10.46 19.05,32.67 5.17,61.13 l 6.66,20.14 c 6.23,18.83 20.52,34.05 39.14,41.68 l 24.39,5.35 c 0,0 1.26,5.75 14.43,4.89 0.53,-0.03 6.26,-1.79 9.28,-3.52 6.1,-10.59 -4.15,-26.19 -4.75,-31.88 l 7.37,-50.71 8.83,-12.64 c 0,-15.03 -4.91,-26.89 -13.8,-43.92 0.02,0 -6.98,-33.99 -48.44,-49.21 z"
   class="st1" />

		<path
   id="path94"
   d="m 138.41,21.26 c -3.37,-1.26 -6.84,-2.19 -10.35,-2.79 -4.17,0.74 -8.26,2 -12.17,3.83 -11.73,5.5 -23.93,16.68 -28.73,39.25 -1.36,6.41 0.02,13.09 3.86,18.4 7.57,10.46 18.7,32.67 5.08,61.13 l 6.54,20.14 c 6.12,18.83 20.15,34.05 38.42,41.68 l 25.28,10.55 c 0,0 6.68,2.36 15.36,-0.56 4.93,-12.15 2.51,-29.46 1.91,-35.15 l 7.24,-50.71 -11.41,-9.13 c 0,-15.03 3.41,-27.7 6.54,-47.43 0.01,0 -6.86,-33.99 -47.57,-49.21 z"
   class="st10" />

		<path
   id="path96"
   d="m 153.49,181.19 c -1.74,0 -3.28,1 -4.3,2.53 -8.63,-8.23 -20.51,-19.74 -21.77,-21.43 0.09,-4.05 0.35,-7.75 0.74,-11.09 l 16.2,16.01 c 0.13,1.94 1.48,3.48 3.14,3.48 1.75,0 3.17,-1.69 3.17,-3.77 0,-2.08 -1.42,-3.77 -3.17,-3.77 -1.28,0 -2.37,0.91 -2.87,2.2 L 128.39,149.3 c 1.95,-14.78 6.08,-22.16 6.14,-22.27 l -1.32,-0.74 c -0.35,0.61 -6.91,12.32 -7.34,36.16 h -0.02 c 0,0.03 0,0.06 0.01,0.1 -0.08,4.78 0.08,10.05 0.59,15.82 -10.36,-27.99 -4.2,-53.91 -4.11,-54.27 l -1.48,-0.36 c -0.1,0.39 -7.12,29.83 6.15,60.09 0,0.03 0.01,0.06 0.01,0.09 h 0.03 c 2.5,5.69 5.75,11.41 9.87,16.97 0.97,0.48 1.96,0.94 2.96,1.38 -4.87,-6.14 -8.59,-12.5 -11.38,-18.84 -0.83,-6.97 -1.15,-13.29 -1.12,-18.96 2.22,2.41 7.69,7.88 21.08,20.64 -0.34,0.87 -0.54,1.84 -0.54,2.87 0,3.74 2.5,6.79 5.57,6.79 3.07,0 5.57,-3.05 5.57,-6.79 0,-3.75 -2.5,-6.79 -5.57,-6.79 z m -5.99,-16.54 c 0.89,0 1.64,1.04 1.64,2.27 0,1.23 -0.75,2.27 -1.64,2.27 -0.89,0 -1.65,-1.04 -1.65,-2.27 0,-1.23 0.76,-2.27 1.65,-2.27 z m 5.99,28.61 c -2.23,0 -4.05,-2.37 -4.05,-5.29 0,-0.96 0.21,-1.85 0.56,-2.63 l 0.43,-0.44 c -0.04,-0.04 -0.09,-0.09 -0.14,-0.13 0.74,-1.26 1.89,-2.08 3.2,-2.08 2.23,0 4.05,2.37 4.05,5.29 0,2.91 -1.81,5.28 -4.05,5.28 z"
   class="st9" />

		<path
   id="path98"
   d="m 153.07,181.18 c -1.72,0 -3.24,1 -4.25,2.53 -8.52,-8.23 -20.26,-19.74 -21.51,-21.43 0.09,-4.05 0.35,-7.75 0.73,-11.09 l 16,16 c 0.12,1.94 1.46,3.48 3.1,3.48 1.72,0 3.13,-1.69 3.13,-3.77 0,-2.08 -1.4,-3.77 -3.13,-3.77 -1.26,0 -2.34,0.91 -2.84,2.2 l -16.04,-16.04 c 1.93,-14.78 6,-22.16 6.07,-22.27 l -1.31,-0.74 c -0.35,0.61 -6.83,12.32 -7.26,36.16 h -0.02 c 0,0.03 0,0.06 0.01,0.1 -0.08,4.78 0.08,10.05 0.58,15.82 -10.23,-27.99 -4.15,-53.91 -4.06,-54.27 l -1.46,-0.36 c -0.1,0.39 -7.03,29.83 6.07,60.09 0,0.03 0.01,0.06 0.01,0.09 h 0.03 c 2.47,5.69 5.68,11.41 9.75,16.97 0.96,0.48 1.94,0.94 2.92,1.38 -4.81,-6.14 -8.48,-12.5 -11.25,-18.84 -0.82,-6.97 -1.14,-13.29 -1.1,-18.96 2.19,2.41 7.59,7.88 20.82,20.64 -0.33,0.87 -0.53,1.84 -0.53,2.87 0,3.74 2.47,6.79 5.5,6.79 3.03,0 5.5,-3.05 5.5,-6.79 0.05,-3.74 -2.42,-6.79 -5.46,-6.79 z m -5.92,-16.53 c 0.88,0 1.62,1.04 1.62,2.27 0,1.23 -0.74,2.27 -1.62,2.27 -0.88,0 -1.63,-1.04 -1.63,-2.27 0,-1.23 0.75,-2.27 1.63,-2.27 z m 5.92,28.61 c -2.21,0 -4,-2.37 -4,-5.29 0,-0.96 0.21,-1.85 0.55,-2.63 l 0.43,-0.44 c -0.04,-0.04 -0.09,-0.09 -0.14,-0.13 0.73,-1.26 1.87,-2.08 3.16,-2.08 2.21,0 4,2.37 4,5.29 0.01,2.91 -1.79,5.28 -4,5.28 z"
   class="st1" />

		<path
   id="path100"
   d="M 168.73,213.45 143.45,202.9 c -18.27,-7.63 -32.3,-22.85 -38.42,-41.68 l -6.54,-20.14 c 13.62,-28.45 2.49,-50.66 -5.08,-61.13 -3.84,-5.31 -5.22,-11.99 -3.86,-18.4 4.8,-22.57 17,-33.75 28.73,-39.25 3.55,-1.66 6.99,-3.05 9.78,-3.83 -4.17,0.74 -8.26,2 -12.17,3.83 -11.73,5.5 -23.93,16.68 -28.73,39.25 -1.36,6.41 0.02,13.09 3.86,18.4 7.57,10.46 18.7,32.67 5.08,61.13 l 6.54,20.14 c 6.12,18.83 20.15,34.05 38.42,41.68 l 25.28,10.55 c 0,0 2.32,1.15 7.1,0.92 -3.16,-0.15 -4.71,-0.92 -4.71,-0.92 z"
   class="st11" />

		<path
   id="path102"
   d="M 208.91,92.55"
   class="st12" />

		<g
   id="g106">
			<path
   id="path104"
   d="m 100.28,95.77 v 2.98 c 1.75,8.26 2.51,17.31 0.99,27.33 0.55,1.01 1.1,2.05 1.63,3.14 97.79,40.93 106.01,-2.18 106.01,-2.18 0,0 1.05,-14.1 -0.93,-31.27 -40.49,24 -107.7,0 -107.7,0 z"
   class="st9" />

		</g>

		<g
   id="g110">
			<path
   id="path108"
   d="m 100.28,95.77 v 2.98 c 1.75,8.26 2.51,17.31 0.99,27.33 0.55,1.01 1.1,2.05 1.63,3.14 95.84,38.26 106.01,-2.18 106.01,-2.18 0,0 1.05,-14.1 -0.93,-31.27 -40.49,24 -107.7,0 -107.7,0 z"
   class="st13" />

		</g>

		<g
   id="g114">
			<path
   id="path112"
   d="m 100.28,95.77 v 2.98 c 1.75,8.26 2.51,17.31 0.99,27.33 0.55,1.01 1.1,2.05 1.63,3.14 81.15,25.59 106.01,-2.18 106.01,-2.18 0,0 3.34,-15.99 -0.93,-31.27 -40.49,24 -107.7,0 -107.7,0 z"
   class="st4" />

		</g>

		<linearGradient
   y2="45.7356"
   x2="185.5558"
   y1="131.93829"
   x1="160.7319"
   gradientUnits="userSpaceOnUse"
   id="linearGradient2973">
			<stop
   id="stop116-8"
   style="stop-color:#0D55FF;stop-opacity:0"
   offset="0" />

			<stop
   id="stop118-5"
   style="stop-color:#0B69FF;stop-opacity:0.0627"
   offset="0.0627" />

			<stop
   id="stop120-3"
   style="stop-color:#0896FF;stop-opacity:0.22"
   offset="0.22" />

			<stop
   id="stop122-3"
   style="stop-color:#05BAFF;stop-opacity:0.3786"
   offset="0.3786" />

			<stop
   id="stop124-0"
   style="stop-color:#03D7FF;stop-opacity:0.5364"
   offset="0.5364" />

			<stop
   id="stop126-8"
   style="stop-color:#01ECFF;stop-opacity:0.693"
   offset="0.693" />

			<stop
   id="stop128-2"
   style="stop-color:#00F8FF;stop-opacity:0.8481"
   offset="0.8481" />

			<stop
   id="stop130-1"
   style="stop-color:#00FCFF"
   offset="1" />

		</linearGradient>

		<path
   id="path133"
   d="m 208.21,112.94 -22.97,22.97 c 1.43,-0.28 2.78,-0.6 4.06,-0.93 0,0 0,0 0.01,0 l 18.9,-18.9 c 0.01,-0.99 0.02,-2.04 0,-3.14 z m -69.46,-5.86 c -6.86,6.87 -12.49,14.75 -20.24,22.47 0,0 0,0 0,0 1.58,0.46 3.12,0.89 4.65,1.31 0.36,0.1 0.72,0.2 1.07,0.29 1.46,0.39 2.89,0.76 4.31,1.11 0.36,0.09 0.72,0.18 1.08,0.26 1.44,0.35 2.86,0.68 4.25,0.99 0.2,0.04 0.39,0.08 0.59,0.13 7.97,1.74 15.16,2.82 21.62,3.39 0,0 0,0 0,0 l 31.54,-31.54 c -15.08,3.37 -35.07,3.71 -48.87,1.59 z m 68.22,-6.45 c -0.01,-0.06 -0.02,-0.11 -0.03,-0.17 -0.14,-0.73 -0.3,-1.47 -0.47,-2.21 -2.97,1.76 -6.11,3.23 -9.36,4.44 l -34.75,34.75 c 0.52,0.02 1.02,0.03 1.53,0.05 0.65,0.02 1.3,0.03 1.93,0.04 0.65,0.01 1.29,0.02 1.92,0.01 0.1,0 0.19,0 0.29,0 1.64,-0.01 3.23,-0.06 4.76,-0.14 l 34.56,-34.56 c -0.1,-0.73 -0.23,-1.47 -0.38,-2.21 z"
   class="st14"
   style="fill:url(#SVGID_5_)" />

		<g
   id="g145">
			<path
   id="path135"
   d="m 104.77,109.95 c -0.14,8.37 -4.81,12.88 -10.42,10.06 -5.62,-2.82 -10.05,-11.89 -9.91,-20.27 0.14,-8.37 4.81,-12.88 10.42,-10.06 5.61,2.82 10.05,11.9 9.91,20.27 z"
   class="st15" />

			<path
   id="path137"
   d="m 102.28,110.49 c -0.14,8.37 -4.81,12.88 -10.42,10.06 -5.62,-2.82 -10.05,-11.89 -9.91,-20.27 0.14,-8.37 4.81,-12.88 10.42,-10.06 5.62,2.82 10.06,11.9 9.91,20.27 z"
   class="st1" />

			<path
   id="path139"
   d="m 96.15,107.41 c -0.06,3.32 -1.91,5.11 -4.13,3.99 -2.23,-1.12 -3.99,-4.72 -3.93,-8.04 0.06,-3.32 1.91,-5.11 4.13,-3.99 2.22,1.12 3.98,4.72 3.93,8.04 z"
   class="st16" />

			<path
   id="path141"
   d="m 100.45,109.57 c -0.12,6.86 -3.94,10.55 -8.54,8.24 -4.6,-2.31 -8.24,-9.74 -8.12,-16.6 0.12,-6.86 3.94,-10.55 8.54,-8.24 4.6,2.3 8.23,9.74 8.12,16.6 z"
   class="st17" />

			<path
   id="path143"
   d="m 98.51,108.6 c -0.09,5.27 -3.03,8.1 -6.56,6.33 -3.53,-1.77 -6.33,-7.48 -6.24,-12.75 0.09,-5.27 3.03,-8.1 6.56,-6.33 3.54,1.77 6.33,7.48 6.24,12.75 z"
   class="st18" />

		</g>

		<g
   id="g157">
			<path
   id="path147"
   d="m 70.83,124.94 c -0.14,8.37 -4.81,12.88 -10.42,10.06 -5.62,-2.82 -10.05,-11.89 -9.91,-20.27 0.14,-8.37 4.81,-12.88 10.42,-10.06 5.61,2.82 10.05,11.89 9.91,20.27 z"
   class="st15" />

			<path
   id="path149"
   d="m 68.34,125.48 c -0.14,8.37 -4.81,12.88 -10.42,10.06 -5.62,-2.82 -10.05,-11.89 -9.91,-20.27 0.14,-8.37 4.81,-12.88 10.42,-10.06 5.62,2.82 10.05,11.89 9.91,20.27 z"
   class="st1" />

			<path
   id="path151"
   d="m 62.21,122.4 c -0.06,3.32 -1.91,5.11 -4.13,3.99 -2.23,-1.12 -3.99,-4.72 -3.93,-8.04 0.06,-3.32 1.91,-5.11 4.13,-3.99 2.22,1.12 3.98,4.72 3.93,8.04 z"
   class="st16" />

			<path
   id="path153"
   d="m 66.5,124.56 c -0.12,6.86 -3.94,10.55 -8.54,8.24 -4.6,-2.31 -8.24,-9.74 -8.12,-16.6 0.12,-6.86 3.94,-10.55 8.54,-8.24 4.6,2.3 8.24,9.74 8.12,16.6 z"
   class="st17" />

			<path
   id="path155"
   d="m 64.57,123.59 c -0.09,5.27 -3.03,8.1 -6.56,6.33 -3.53,-1.77 -6.33,-7.48 -6.24,-12.75 0.09,-5.27 3.03,-8.1 6.56,-6.33 3.54,1.77 6.33,7.48 6.24,12.75 z"
   class="st18" />

		</g>

		<g
   id="g169">
			<path
   id="path159"
   d="m 105.11,143.87 c -0.29,17.39 -9.98,26.74 -21.65,20.89 -11.66,-5.86 -20.88,-24.7 -20.58,-42.09 0.29,-17.39 9.98,-26.74 21.65,-20.89 11.66,5.85 20.87,24.69 20.58,42.09 z"
   class="st15" />

			<path
   id="path161"
   d="m 99.95,144.99 c -0.29,17.39 -9.98,26.74 -21.65,20.89 -11.66,-5.86 -20.88,-24.7 -20.58,-42.09 0.29,-17.39 9.98,-26.74 21.65,-20.89 11.67,5.85 20.88,24.7 20.58,42.09 z"
   class="st1" />

			<path
   id="path163"
   d="m 87.21,138.59 c -0.12,6.9 -3.96,10.6 -8.58,8.28 -4.62,-2.32 -8.28,-9.79 -8.16,-16.69 0.12,-6.9 3.96,-10.6 8.58,-8.28 4.62,2.32 8.28,9.79 8.16,16.69 z"
   class="st16" />

			<path
   id="path165"
   d="m 96.13,143.07 c -0.24,14.25 -8.18,21.91 -17.73,17.11 -9.55,-4.8 -17.1,-20.23 -16.86,-34.48 0.24,-14.25 8.18,-21.91 17.73,-17.11 9.56,4.8 17.1,20.23 16.86,34.48 z"
   class="st17" />

			<path
   id="path167"
   d="M 92.12,141.06 C 91.94,152 85.84,157.88 78.5,154.2 71.16,150.52 65.36,138.66 65.55,127.71 c 0.18,-10.94 6.28,-16.83 13.62,-13.14 7.34,3.69 13.14,15.54 12.95,26.49 z"
   class="st18" />

		</g>

		
			<circle
   r="30.719999"
   id="ellipse171"
   cy="60.389999"
   cx="126.64"
   class="st19"
   transform="matrix(0.7071,-0.7071,0.7071,0.7071,-5.6089,107.2386)" />

		<circle
   id="circle173"
   r="12.57"
   cy="65.599998"
   cx="157.37"
   class="st19" />

	</g>
</g>

</g>
  </g>
  <style
     id="style2"
     type="text/css">
	.st0{fill:url(#SVGID_1_);}
	.st1{fill:#00FCFF;}
	.st2{fill:#F1FFFF;}
	.st3{fill:#00C9F4;}
	.st4{fill:#0D2161;}
	.st5{fill:#0D0C36;}
	.st6{fill:url(#SVGID_2_);}
	.st7{fill:url(#SVGID_3_);}
	.st8{fill:url(#SVGID_4_);}
	.st9{fill:#FFF8FF;}
	.st10{fill:#DCF2FF;}
	.st11{fill:#FFFFFF;}
	.st12{fill:#F13955;}
	.st13{fill:#CFDEF7;}
	.st14{fill:url(#SVGID_5_);}
	.st15{fill:#0670F4;}
	.st16{fill:#0D34AD;}
	.st17{fill:none;stroke:#0670F4;stroke-miterlimit:10;}
	.st18{fill:none;stroke:#0670F4;stroke-width:0.5;stroke-miterlimit:10;}
	.st19{opacity:0.48;fill:#FFF8FF;}
</style>
</svg>
